<svg width="145" height="31" viewBox="0 0 145 31" fill="none" xmlns="http://www.w3.org/2000/svg">
<path d="M72.5787 0.375C64.3547 0.375 57.6641 7.06569 57.6641 15.2897C57.6641 23.5137 64.3547 30.2043 72.5787 30.2043C80.8027 30.2043 87.4933 23.5137 87.4933 15.2897C87.4933 7.06569 80.8027 0.375 72.5787 0.375ZM71.6122 20.2613L70.2568 21.6166C69.5215 22.3519 68.5563 22.72 67.593 22.72C66.6366 22.72 65.682 22.3572 64.9558 21.6311C64.2515 20.9268 63.8654 19.9857 63.8688 18.9812C63.8722 17.9785 64.2633 17.037 64.9702 16.3301L68.4107 12.8895C69.1176 12.1826 70.0591 11.7915 71.0619 11.7882C71.0661 11.7882 71.0705 11.7881 71.0749 11.7881C72.0745 11.7881 73.0104 12.1738 73.7117 12.8751C74.2263 13.3897 74.5757 14.0398 74.7221 14.7551C74.7996 15.1334 74.5557 15.5028 74.1774 15.5802C73.7991 15.658 73.4297 15.4138 73.3523 15.0355C73.261 14.5894 73.0434 14.1842 72.723 13.8639C72.286 13.4268 71.7009 13.1864 71.0747 13.1864C71.0719 13.1864 71.0693 13.1864 71.0665 13.1864C70.4355 13.1885 69.8435 13.4342 69.3994 13.8783L65.9589 17.3188C65.5148 17.7629 65.2691 18.3549 65.267 18.9859C65.265 19.6152 65.5055 20.2034 65.9445 20.6424C66.3816 21.0795 66.9666 21.3199 67.5928 21.3199H67.601C68.232 21.3178 68.8241 21.0721 69.2681 20.628L70.6235 19.2726C70.8965 18.9996 71.3392 18.9996 71.6122 19.2726C71.8852 19.5456 71.8852 19.9882 71.6122 20.2613ZM80.1974 14.2392L76.7798 17.6568C76.0511 18.3855 75.0938 18.7499 74.1365 18.7499C73.1792 18.7499 72.222 18.3856 71.4932 17.6568C70.9791 17.1427 70.629 16.4941 70.4809 15.7813C70.4023 15.4033 70.6451 15.033 71.0231 14.9545C71.4009 14.8758 71.7713 15.1186 71.8499 15.4967C71.9425 15.9422 72.1611 16.3473 72.482 16.6681C73.3943 17.5805 74.8788 17.5803 75.7911 16.6681L79.2087 13.2505C80.1211 12.3381 80.1211 10.8537 79.2087 9.9413C78.7691 9.50173 78.1815 9.25966 77.5541 9.25966C76.9267 9.25966 76.3392 9.50173 75.8996 9.9413L74.5532 11.2876C74.2802 11.5607 73.8376 11.5607 73.5645 11.2876C73.2915 11.0146 73.2914 10.572 73.5645 10.2989L74.9108 8.95257C75.6145 8.2489 76.5533 7.86135 77.5541 7.86135C78.555 7.86135 79.4937 8.2489 80.1974 8.95257C81.6549 10.4101 81.6549 12.7816 80.1974 14.2392Z" fill="#54C4FC"/>
<path d="M15.9045 0.373047C7.68081 0.373047 0.990234 7.06362 0.990234 15.2873C0.990234 23.5104 7.68081 30.2016 15.9045 30.2016C24.1276 30.2016 30.8188 23.5104 30.8188 15.2873C30.8188 7.06362 24.1288 0.373047 15.9045 0.373047ZM22.5578 11.8738C22.5644 12.0216 22.568 12.1706 22.568 12.3196C22.568 16.8559 19.1161 22.0848 12.8004 22.0848C10.8618 22.0848 9.05713 21.5183 7.53843 20.5439C7.80696 20.5757 8.08031 20.5919 8.35725 20.5919C9.96607 20.5919 11.4457 20.0429 12.6208 19.1225C11.1189 19.0949 9.85072 18.1024 9.41397 16.7381C9.62304 16.7778 9.83871 16.8 10.0592 16.8C10.3722 16.8 10.6762 16.7591 10.9639 16.6805C9.39355 16.3657 8.21067 14.9785 8.21067 13.3144C8.21067 13.3 8.21067 13.285 8.21127 13.2712C8.67385 13.5277 9.20311 13.6827 9.76541 13.7001C8.84506 13.0856 8.2389 12.0342 8.2389 10.8435C8.2389 10.214 8.40772 9.62402 8.70329 9.11699C10.3956 11.1944 12.926 12.5605 15.7783 12.7047C15.7195 12.453 15.69 12.1916 15.69 11.9219C15.69 10.0265 17.2267 8.4892 19.1221 8.4892C20.1098 8.4892 21.0007 8.90612 21.6279 9.57296C22.4106 9.41917 23.1436 9.13441 23.8086 8.73972C23.5503 9.54172 23.0078 10.214 22.2971 10.6393C22.9922 10.5564 23.6554 10.3726 24.2688 10.0992C23.811 10.7865 23.2289 11.3914 22.5578 11.8738Z" fill="#54C4FC"/>
<path d="M129.252 30.2035C137.491 30.2035 144.166 23.5281 144.166 15.2893C144.166 7.05037 137.491 0.375 129.252 0.375C121.013 0.375 114.338 7.05037 114.338 15.2893C114.338 23.5281 121.013 30.2035 129.252 30.2035ZM121.162 14.9661L135.542 9.42174C136.21 9.18063 136.793 9.58456 136.576 10.5938L136.578 10.5925L134.129 22.1275C133.948 22.9453 133.462 23.1441 132.782 22.7588L129.053 20.0109L127.255 21.7434C127.056 21.9423 126.888 22.1101 126.503 22.1101L126.768 18.3156L133.678 12.0728C133.979 11.808 133.611 11.6589 133.214 11.9224L124.675 17.299L120.993 16.1506C120.194 15.897 120.177 15.3514 121.162 14.9661Z" fill="#54C4FC"/>
</svg>
