<svg width="201" height="43" viewBox="0 0 201 43" fill="none" xmlns="http://www.w3.org/2000/svg">
<path d="M100.227 0.5625C88.713 0.5625 79.3457 9.92981 79.3457 21.4438C79.3457 32.9578 88.713 42.3251 100.227 42.3251C111.741 42.3251 121.108 32.9578 121.108 21.4438C121.108 9.92981 111.741 0.5625 100.227 0.5625ZM98.8738 28.4043L96.9762 30.3019C95.9467 31.3314 94.5954 31.8466 93.2468 31.8466C91.9077 31.8467 90.5712 31.3388 89.5545 30.3221C88.5684 29.3361 88.0279 28.0185 88.0327 26.6122C88.0374 25.2083 88.585 23.8901 89.5747 22.9005L94.3916 18.0835C95.3813 17.0938 96.6995 16.5462 98.1033 16.5415C98.1093 16.5415 98.1155 16.5414 98.1215 16.5414C99.5211 16.5414 100.831 17.0815 101.813 18.0633C102.534 18.7838 103.023 19.694 103.228 20.6954C103.336 21.225 102.995 21.7422 102.465 21.8506C101.936 21.9596 101.418 21.6176 101.31 21.0879C101.182 20.4634 100.878 19.8962 100.429 19.4476C99.8172 18.8357 98.998 18.4992 98.1213 18.4992C98.1174 18.4992 98.1137 18.4992 98.1099 18.4992C97.2264 18.5021 96.3975 18.8461 95.7758 19.4678L90.9589 24.2847C90.3372 24.9065 89.9932 25.7353 89.9903 26.6187C89.9873 27.4997 90.3241 28.3233 90.9388 28.9379C91.5507 29.5499 92.3698 29.8864 93.2465 29.8864H93.258C94.1414 29.8835 94.9703 29.5395 95.5919 28.9178L97.4895 27.0202C97.8718 26.638 98.4916 26.6379 98.8738 27.0202C99.256 27.4023 99.256 28.022 98.8738 28.4043ZM110.894 19.9731L106.109 24.7579C105.088 25.7782 103.748 26.2884 102.408 26.2884C101.068 26.2884 99.7276 25.7782 98.7073 24.7579C97.9875 24.0382 97.4974 23.1302 97.2899 22.1321C97.1799 21.6029 97.5198 21.0845 98.0491 20.9746C98.5781 20.8644 99.0966 21.2043 99.2066 21.7337C99.3362 22.3574 99.6423 22.9245 100.092 23.3737C101.369 24.6511 103.447 24.6508 104.725 23.3737L109.509 18.5889C110.787 17.3115 110.787 15.2332 109.509 13.9558C108.894 13.3404 108.071 13.0015 107.193 13.0015C106.314 13.0015 105.492 13.3404 104.876 13.9558L102.991 15.8408C102.609 16.223 101.989 16.223 101.607 15.8408C101.225 15.4585 101.225 14.8388 101.607 14.4565L103.492 12.5715C104.477 11.5864 105.792 11.0438 107.193 11.0438C108.594 11.0438 109.908 11.5864 110.894 12.5715C112.934 14.6121 112.934 17.9324 110.894 19.9731Z" fill="#2479DF"/>
<path d="M20.8808 0.5625C9.36716 0.5625 0 9.92966 0 21.4433C0 32.956 9.36716 42.324 20.8808 42.324C32.3935 42.324 41.7615 32.956 41.7615 21.4433C41.7615 9.92966 32.3952 0.5625 20.8808 0.5625ZM30.1958 16.6642C30.205 16.8711 30.2101 17.0797 30.2101 17.2883C30.2101 23.6393 25.3772 30.9601 16.5349 30.9601C13.8207 30.9601 11.2941 30.167 9.16782 28.8027C9.54378 28.8473 9.92648 28.87 10.3142 28.87C12.5666 28.87 14.6382 28.1013 16.2834 26.8127C14.1807 26.774 12.4052 25.3846 11.7937 23.4745C12.0864 23.53 12.3883 23.5611 12.697 23.5611C13.1352 23.5611 13.5608 23.5039 13.9637 23.3937C11.7651 22.953 10.109 21.0109 10.109 18.6811C10.109 18.6609 10.109 18.6399 10.1098 18.6206C10.7575 18.9797 11.4985 19.1967 12.2857 19.2211C10.9972 18.3607 10.1485 16.8888 10.1485 15.2218C10.1485 14.3403 10.3849 13.5144 10.7987 12.8045C13.168 15.713 16.7107 17.6256 20.7041 17.8274C20.6217 17.475 20.5805 17.1092 20.5805 16.7315C20.5805 14.0779 22.732 11.9255 25.3856 11.9255C26.7683 11.9255 28.0157 12.5093 28.8938 13.4429C29.9897 13.2275 31.0158 12.8289 31.9469 12.2763C31.5852 13.3991 30.8257 14.3403 29.8307 14.9358C30.8039 14.8197 31.7324 14.5623 32.5912 14.1797C31.9503 15.1419 31.1353 15.9888 30.1958 16.6642Z" fill="#2479DF"/>
<path d="M179.574 42.324C191.109 42.324 200.455 32.9781 200.455 21.4433C200.455 9.90838 191.109 0.5625 179.574 0.5625C168.039 0.5625 158.693 9.90838 158.693 21.4433C158.693 32.9781 168.039 42.324 179.574 42.324ZM168.248 20.9908L188.381 13.2284C189.315 12.8908 190.131 13.4564 189.828 14.8693L189.83 14.8676L186.402 31.0171C186.148 32.162 185.468 32.4405 184.516 31.901L179.296 28.0538L176.778 30.4794C176.499 30.7578 176.265 30.9927 175.725 30.9927L176.096 25.6803L185.77 16.94C186.192 16.5693 185.677 16.3605 185.121 16.7294L173.165 24.2569L168.011 22.6491C166.893 22.2941 166.868 21.5303 168.248 20.9908Z" fill="#2479DF"/>
</svg>
