<svg width="144" height="30" viewBox="0 0 144 30" fill="none" xmlns="http://www.w3.org/2000/svg">
<path d="M71.5885 0.0957031C63.3645 0.0957031 56.6738 6.78639 56.6738 15.0104C56.6738 23.2344 63.3645 29.925 71.5885 29.925C79.8124 29.925 86.5031 23.2344 86.5031 15.0104C86.5031 6.78639 79.8124 0.0957031 71.5885 0.0957031ZM70.622 19.982L69.2666 21.3373C68.5312 22.0726 67.5661 22.4407 66.6028 22.4407C65.6463 22.4407 64.6917 22.0779 63.9655 21.3518C63.2612 20.6475 62.8752 19.7064 62.8786 18.7019C62.8819 17.6992 63.273 16.7577 63.98 16.0508L67.4205 12.6102C68.1274 11.9033 69.0689 11.5122 70.0716 11.5089C70.0759 11.5089 70.0803 11.5088 70.0846 11.5088C71.0843 11.5088 72.0202 11.8945 72.7215 12.5958C73.2361 13.1104 73.5855 13.7605 73.7319 14.4758C73.8093 14.8541 73.5654 15.2235 73.1872 15.3009C72.8088 15.3788 72.4395 15.1345 72.362 14.7562C72.2707 14.3101 72.0531 13.9049 71.7328 13.5846C71.2957 13.1475 70.7106 12.9071 70.0844 12.9071C70.0817 12.9071 70.079 12.9071 70.0763 12.9071C69.4453 12.9092 68.8532 13.1549 68.4092 13.599L64.9687 17.0395C64.5246 17.4836 64.2789 18.0756 64.2768 18.7066C64.2747 19.3359 64.5153 19.9241 64.9543 20.3631C65.3913 20.8002 65.9764 21.0406 66.6026 21.0406H66.6108C67.2418 21.0385 67.8338 20.7928 68.2778 20.3487L69.6332 18.9933C69.9062 18.7203 70.3489 18.7203 70.622 18.9933C70.895 19.2663 70.895 19.7089 70.622 19.982ZM79.2072 13.9599L75.7896 17.3775C75.0608 18.1062 74.1036 18.4706 73.1463 18.4706C72.189 18.4706 71.2318 18.1063 70.503 17.3775C69.9889 16.8634 69.6388 16.2148 69.4907 15.502C69.4121 15.124 69.6548 14.7537 70.0329 14.6752C70.4107 14.5965 70.7811 14.8393 70.8597 15.2174C70.9522 15.6629 71.1708 16.068 71.4917 16.3888C72.404 17.3012 73.8886 17.301 74.8009 16.3888L78.2185 12.9712C79.1308 12.0588 79.1308 10.5744 78.2185 9.66201C77.7789 9.22243 77.1913 8.98036 76.5639 8.98036C75.9365 8.98036 75.3489 9.22243 74.9093 9.66201L73.563 11.0083C73.2899 11.2814 72.8473 11.2814 72.5743 11.0083C72.3013 10.7353 72.3012 10.2927 72.5743 10.0196L73.9206 8.67327C74.6243 7.9696 75.563 7.58205 76.5639 7.58205C77.5648 7.58205 78.5035 7.9696 79.2072 8.67327C80.6647 10.1308 80.6647 12.5023 79.2072 13.9599Z" fill="#54C4FC"/>
<path d="M14.9143 0.09375C6.69057 0.09375 0 6.78432 0 15.008C0 23.2311 6.69057 29.9223 14.9143 29.9223C23.1374 29.9223 29.8285 23.2311 29.8285 15.008C29.8285 6.78432 23.1386 0.09375 14.9143 0.09375ZM21.5676 11.5945C21.5742 11.7423 21.5778 11.8913 21.5778 12.0403C21.5778 16.5766 18.1259 21.8055 11.8102 21.8055C9.87155 21.8055 8.06689 21.239 6.54819 20.2646C6.81673 20.2964 7.09007 20.3126 7.36702 20.3126C8.97583 20.3126 10.4555 19.7636 11.6306 18.8432C10.1287 18.8156 8.86049 17.8231 8.42374 16.4588C8.6328 16.4985 8.84847 16.5207 9.06895 16.5207C9.38194 16.5207 9.68592 16.4799 9.97368 16.4012C8.40331 16.0864 7.22043 14.6992 7.22043 13.0351C7.22043 13.0207 7.22044 13.0057 7.22104 12.9919C7.68361 13.2484 8.21288 13.4034 8.77518 13.4208C7.85483 12.8063 7.24867 11.7549 7.24867 10.5643C7.24867 9.93466 7.41748 9.34473 7.71305 8.83769C9.40537 10.9151 11.9357 12.2812 14.7881 12.4254C14.7292 12.1737 14.6998 11.9123 14.6998 11.6426C14.6998 9.74723 16.2365 8.20991 18.1319 8.20991C19.1195 8.20991 20.0104 8.62683 20.6376 9.29366C21.4204 9.13987 22.1533 8.85511 22.8184 8.46042C22.56 9.26242 22.0175 9.93466 21.3069 10.36C22.0019 10.2771 22.6652 10.0933 23.2785 9.81992C22.8208 10.5072 22.2386 11.1121 21.5676 11.5945Z" fill="#54C4FC"/>
<path d="M128.262 29.9242C136.501 29.9242 143.176 23.2489 143.176 15.01C143.176 6.77108 136.501 0.0957031 128.262 0.0957031C120.023 0.0957031 113.348 6.77108 113.348 15.01C113.348 23.2489 120.023 29.9242 128.262 29.9242ZM120.172 14.6868L134.552 9.14245C135.219 8.90133 135.802 9.30526 135.586 10.3145L135.587 10.3132L133.139 21.8482C132.957 22.666 132.471 22.8648 131.792 22.4795L128.063 19.7316L126.265 21.4641C126.066 21.663 125.898 21.8308 125.513 21.8308L125.777 18.0363L132.688 11.7935C132.988 11.5287 132.621 11.3796 132.224 11.6431L123.684 17.0197L120.003 15.8713C119.204 15.6177 119.187 15.0721 120.172 14.6868Z" fill="#54C4FC"/>
</svg>
