<svg width="140" height="30" viewBox="0 0 140 30" fill="none" xmlns="http://www.w3.org/2000/svg">
<path d="M69.8664 0.525391C61.8405 0.525391 55.311 7.05489 55.311 15.0807C55.311 23.1066 61.8405 29.6361 69.8664 29.6361C77.8922 29.6361 84.4217 23.1066 84.4217 15.0807C84.4217 7.05489 77.8922 0.525391 69.8664 0.525391ZM68.9231 19.9326L67.6004 21.2553C66.8828 21.9729 65.9409 22.332 65.0008 22.332C64.0674 22.3321 63.1358 21.978 62.4271 21.2694C61.7397 20.582 61.363 19.6636 61.3663 18.6834C61.3696 17.7048 61.7513 16.7859 62.4412 16.0961L65.7988 12.7384C66.4886 12.0486 67.4075 11.6668 68.3861 11.6636C68.3902 11.6636 68.3945 11.6635 68.3987 11.6635C69.3743 11.6635 70.2877 12.04 70.9721 12.7244C71.4743 13.2266 71.8153 13.861 71.9581 14.5591C72.0337 14.9282 71.7957 15.2887 71.4265 15.3643C71.0573 15.4402 70.6969 15.2019 70.6213 14.8327C70.5322 14.3973 70.3198 14.0019 70.0072 13.6893C69.5807 13.2627 69.0097 13.0281 68.3986 13.0281C68.3959 13.0281 68.3933 13.0281 68.3906 13.0281C67.7748 13.0302 67.197 13.27 66.7636 13.7033L63.406 17.061C62.9727 17.4944 62.7329 18.0721 62.7309 18.6879C62.7288 19.302 62.9636 19.8761 63.392 20.3045C63.8185 20.7311 64.3895 20.9656 65.0006 20.9656H65.0086C65.6244 20.9636 66.2022 20.7238 66.6355 20.2905L67.9582 18.9678C68.2246 18.7013 68.6567 18.7013 68.9231 18.9678C69.1896 19.2341 69.1896 19.6661 68.9231 19.9326ZM77.3015 14.0556L73.9663 17.3908C73.2551 18.102 72.3209 18.4576 71.3866 18.4576C70.4524 18.4576 69.5182 18.1021 68.807 17.3908C68.3053 16.8891 67.9637 16.2562 67.8191 15.5605C67.7424 15.1916 67.9793 14.8303 68.3482 14.7536C68.717 14.6769 69.0784 14.9138 69.1551 15.2828C69.2454 15.7175 69.4588 16.1129 69.7719 16.426C70.6623 17.3163 72.111 17.3162 73.0014 16.426L76.3366 13.0907C77.227 12.2003 77.227 10.7516 76.3366 9.86123C75.9076 9.43224 75.3342 9.196 74.7219 9.196C74.1096 9.196 73.5362 9.43224 73.1072 9.86123L71.7933 11.1751C71.5268 11.4416 71.0949 11.4416 70.8284 11.1751C70.562 10.9086 70.5619 10.4767 70.8284 10.2102L72.1423 8.89631C72.829 8.20959 73.7452 7.83138 74.7219 7.83138C75.6987 7.83138 76.6148 8.20959 77.3015 8.89631C78.7239 10.3187 78.7239 12.6331 77.3015 14.0556Z" fill="#54C4FC"/>
<path d="M14.5564 0.523438C6.53085 0.523438 0.00146484 7.05282 0.00146484 15.0784C0.00146484 23.1034 6.53085 29.6333 14.5564 29.6333C22.5814 29.6333 29.1114 23.1034 29.1114 15.0784C29.1114 7.05282 22.5826 0.523438 14.5564 0.523438ZM21.0494 11.7472C21.0559 11.8914 21.0594 12.0368 21.0594 12.1822C21.0594 16.6092 17.6907 21.7121 11.5271 21.7121C9.63519 21.7121 7.87401 21.1593 6.3919 20.2083C6.65397 20.2394 6.92072 20.2552 7.191 20.2552C8.76105 20.2552 10.2051 19.7194 11.3518 18.8212C9.88612 18.7942 8.64849 17.8257 8.22226 16.4942C8.42629 16.5329 8.63676 16.5546 8.85192 16.5546C9.15738 16.5546 9.45403 16.5148 9.73486 16.438C8.20233 16.1308 7.04795 14.777 7.04795 13.153C7.04795 13.139 7.04795 13.1243 7.04853 13.1108C7.49997 13.3612 8.01648 13.5124 8.56524 13.5294C7.66706 12.9297 7.0755 11.9037 7.0755 10.7417C7.0755 10.1273 7.24025 9.55154 7.52869 9.05672C9.18024 11.0841 11.6496 12.4173 14.4333 12.558C14.3758 12.3123 14.3471 12.0573 14.3471 11.7941C14.3471 9.94435 15.8468 8.44406 17.6965 8.44406C18.6604 8.44406 19.5298 8.85094 20.1419 9.50171C20.9058 9.35162 21.6211 9.07372 22.2701 8.68854C22.018 9.47122 21.4886 10.1273 20.795 10.5424C21.4733 10.4614 22.1206 10.282 22.7192 10.0153C22.2724 10.686 21.7043 11.2764 21.0494 11.7472Z" fill="#54C4FC"/>
<path d="M125.174 29.6353C133.214 29.6353 139.729 23.1207 139.729 15.0803C139.729 7.03994 133.214 0.525391 125.174 0.525391C117.133 0.525391 110.619 7.03994 110.619 15.0803C110.619 23.1207 117.133 29.6353 125.174 29.6353ZM117.279 14.765L131.312 9.35418C131.963 9.11887 132.532 9.51307 132.321 10.498L132.323 10.4967L129.933 21.7538C129.756 22.5519 129.282 22.7459 128.618 22.3699L124.98 19.6882L123.224 21.379C123.03 21.5731 122.867 21.7368 122.491 21.7368L122.749 18.0338L129.493 11.9413C129.786 11.683 129.427 11.5374 129.04 11.7946L120.706 17.0416L117.114 15.9209C116.334 15.6735 116.317 15.141 117.279 14.765Z" fill="#54C4FC"/>
</svg>
