<svg width="144" height="31" viewBox="0 0 144 31" fill="none" xmlns="http://www.w3.org/2000/svg">
<path d="M71.9593 0.1875C63.7354 0.1875 57.0447 6.87819 57.0447 15.1022C57.0447 23.3262 63.7354 30.0168 71.9593 30.0168C80.1833 30.0168 86.874 23.3262 86.874 15.1022C86.874 6.87819 80.1833 0.1875 71.9593 0.1875ZM70.9928 20.0738L69.6374 21.4291C68.9021 22.1644 67.9369 22.5325 66.9737 22.5325C66.0172 22.5325 65.0626 22.1697 64.3364 21.4436C63.6321 20.7393 63.246 19.7982 63.2494 18.7937C63.2528 17.791 63.6439 16.8495 64.3508 16.1426L67.7913 12.702C68.4982 11.9951 69.4398 11.604 70.4425 11.6007C70.4467 11.6007 70.4512 11.6006 70.4555 11.6006C71.4551 11.6006 72.3911 11.9863 73.0923 12.6876C73.607 13.2022 73.9563 13.8523 74.1027 14.5676C74.1802 14.9459 73.9363 15.3153 73.558 15.3927C73.1797 15.4705 72.8104 15.2263 72.7329 14.848C72.6416 14.4019 72.424 13.9967 72.1036 13.6764C71.6666 13.2393 71.0815 12.9989 70.4553 12.9989C70.4526 12.9989 70.4499 12.9989 70.4471 12.9989C69.8161 13.001 69.2241 13.2467 68.78 13.6908L65.3395 17.1313C64.8954 17.5754 64.6498 18.1674 64.6477 18.7984C64.6456 19.4277 64.8861 20.0159 65.3251 20.4549C65.7622 20.892 66.3472 21.1324 66.9734 21.1324H66.9816C67.6127 21.1303 68.2047 20.8846 68.6487 20.4405L70.0041 19.0851C70.2771 18.8121 70.7198 18.8121 70.9928 19.0851C71.2658 19.3581 71.2658 19.8007 70.9928 20.0738ZM79.5781 14.0517L76.1604 17.4693C75.4317 18.198 74.4744 18.5624 73.5171 18.5624C72.5598 18.5624 71.6026 18.1981 70.8738 17.4693C70.3597 16.9552 70.0097 16.3066 69.8615 15.5938C69.7829 15.2158 70.0257 14.8455 70.4037 14.767C70.7816 14.6883 71.1519 14.9311 71.2305 15.3092C71.3231 15.7547 71.5417 16.1598 71.8626 16.4806C72.7749 17.393 74.2594 17.3928 75.1717 16.4806L78.5893 13.063C79.5017 12.1506 79.5017 10.6662 78.5893 9.7538C78.1498 9.31423 77.5621 9.07216 76.9347 9.07216C76.3073 9.07216 75.7198 9.31423 75.2802 9.7538L73.9339 11.1001C73.6608 11.3732 73.2182 11.3732 72.9451 11.1001C72.6721 10.8271 72.672 10.3845 72.9451 10.1114L74.2915 8.76507C74.9951 8.0614 75.9339 7.67385 76.9347 7.67385C77.9356 7.67385 78.8743 8.0614 79.5781 8.76507C81.0356 10.2226 81.0356 12.5941 79.5781 14.0517Z" fill="#54C4FC"/>
<path d="M15.2839 0.185547C7.0602 0.185547 0.369629 6.87612 0.369629 15.0998C0.369629 23.3229 7.0602 30.0141 15.2839 30.0141C23.507 30.0141 30.1982 23.3229 30.1982 15.0998C30.1982 6.87612 23.5082 0.185547 15.2839 0.185547ZM21.9372 11.6863C21.9438 11.8341 21.9474 11.9831 21.9474 12.1321C21.9474 16.6684 18.4955 21.8973 12.1798 21.8973C10.2412 21.8973 8.43652 21.3308 6.91782 20.3564C7.18636 20.3882 7.4597 20.4044 7.73665 20.4044C9.34546 20.4044 10.8251 19.8554 12.0002 18.935C10.4983 18.9074 9.23012 17.9149 8.79337 16.5506C9.00243 16.5903 9.2181 16.6125 9.43858 16.6125C9.75157 16.6125 10.0555 16.5716 10.3433 16.493C8.77294 16.1782 7.59006 14.791 7.59006 13.1269C7.59006 13.1125 7.59006 13.0975 7.59066 13.0837C8.05324 13.3402 8.58251 13.4952 9.14481 13.5126C8.22446 12.8981 7.6183 11.8467 7.6183 10.656C7.6183 10.0265 7.78711 9.43652 8.08268 8.92949C9.775 11.0069 12.3054 12.373 15.1577 12.5172C15.0989 12.2655 15.0694 12.0041 15.0694 11.7344C15.0694 9.83903 16.6061 8.3017 18.5015 8.3017C19.4892 8.3017 20.3801 8.71862 21.0073 9.38546C21.79 9.23167 22.5229 8.94691 23.188 8.55222C22.9297 9.35422 22.3872 10.0265 21.6765 10.4518C22.3716 10.3689 23.0348 10.1851 23.6482 9.91172C23.1904 10.599 22.6083 11.2039 21.9372 11.6863Z" fill="#54C4FC"/>
<path d="M128.632 30.016C136.871 30.016 143.546 23.3406 143.546 15.1018C143.546 6.86287 136.871 0.1875 128.632 0.1875C120.393 0.1875 113.718 6.86287 113.718 15.1018C113.718 23.3406 120.393 30.016 128.632 30.016ZM120.542 14.7786L134.922 9.23424C135.59 8.99313 136.172 9.39706 135.956 10.4063L135.957 10.405L133.509 21.94C133.328 22.7578 132.842 22.9566 132.162 22.5713L128.433 19.8234L126.635 21.5559C126.436 21.7548 126.268 21.9226 125.883 21.9226L126.148 18.1281L133.058 11.8853C133.359 11.6205 132.991 11.4714 132.594 11.7349L124.055 17.1115L120.373 15.9631C119.574 15.7095 119.557 15.1639 120.542 14.7786Z" fill="#54C4FC"/>
</svg>
