<svg width="51" height="34" viewBox="0 0 51 34" fill="none" xmlns="http://www.w3.org/2000/svg">
<path d="M45.7505 6.52021C39.1144 -4.38256 29.1176 3.20263 29.1176 3.20263C28.4692 3.69263 27.2737 4.0955 26.4614 4.09738L23.7838 4.09925C22.9715 4.10019 21.776 3.69732 21.1286 3.20732C21.1286 3.20732 11.1308 -4.37975 4.49381 6.52302C-2.14136 17.422 0.53257 29.2917 0.53257 29.2917C1.00102 32.198 2.54504 34.1374 5.45882 33.8938C8.36417 33.6511 14.6705 26.0669 14.6705 26.0669C15.1914 25.442 16.2829 24.9314 17.0933 24.9314L33.1463 24.9285C33.9576 24.9285 35.0482 25.4392 35.5682 26.0641C35.5682 26.0641 41.8754 33.6483 44.7854 33.891C47.6955 34.1346 49.2432 32.1933 49.7089 29.2889C49.7089 29.2889 52.3866 17.4211 45.7505 6.52021ZM19.0889 15.3946H15.6467V18.7122C15.6467 18.7122 14.9178 19.2687 13.7898 19.2546C12.6636 19.2378 12.1539 18.6475 12.1539 18.6475V15.3955H8.90289C8.90289 15.3955 8.49721 14.9795 8.38853 13.8843C8.28172 12.7891 8.8373 11.9037 8.8373 11.9037H12.2804V8.46148C12.2804 8.46148 12.9887 8.08204 14.0071 8.11108C15.0265 8.14293 15.7732 8.52613 15.7732 8.52613L15.7592 11.9027H19.0102C19.0102 11.9027 19.578 12.6317 19.6248 13.5123C19.6717 14.394 19.0889 15.3946 19.0889 15.3946ZM34.8777 19.1759C33.3702 19.1759 32.155 17.957 32.155 16.4514C32.155 14.943 33.3702 13.7269 34.8777 13.7269C36.3786 13.7269 37.6031 14.943 37.6031 16.4514C37.6031 17.958 36.3786 19.1759 34.8777 19.1759ZM34.8777 11.6798C33.3702 11.6798 32.155 10.4618 32.155 8.95617C32.155 7.44775 33.3702 6.23165 34.8777 6.23165C36.3786 6.23165 37.6031 7.44775 37.6031 8.95617C37.6031 10.4627 36.3786 11.6798 34.8777 11.6798ZM41.6627 15.7038C40.1553 15.7038 38.9401 14.4858 38.9401 12.9792C38.9401 11.4718 40.1553 10.2547 41.6627 10.2547C43.1637 10.2547 44.3882 11.4718 44.3882 12.9792C44.3882 14.4858 43.1637 15.7038 41.6627 15.7038Z" fill="url(#paint0_linear_876_16444)"/>
<defs>
<linearGradient id="paint0_linear_876_16444" x1="25.1213" y1="0.634766" x2="25.1213" y2="33.9144" gradientUnits="userSpaceOnUse">
<stop stop-color="#54C4FC"/>
<stop offset="1" stop-color="#2479DF"/>
</linearGradient>
</defs>
</svg>
