<svg width="144" height="30" viewBox="0 0 144 30" fill="none" xmlns="http://www.w3.org/2000/svg">
<path d="M71.9591 0.126953C63.7351 0.126953 57.0444 6.81764 57.0444 15.0416C57.0444 23.2656 63.7351 29.9563 71.9591 29.9563C80.183 29.9563 86.8737 23.2656 86.8737 15.0416C86.8737 6.81764 80.183 0.126953 71.9591 0.126953ZM70.9926 20.0132L69.6372 21.3686C68.9018 22.1039 67.9367 22.4719 66.9734 22.4719C66.0169 22.472 65.0624 22.1092 64.3361 21.383C63.6318 20.6787 63.2458 19.7376 63.2492 18.7332C63.2525 17.7305 63.6437 16.7889 64.3506 16.082L67.7911 12.6415C68.498 11.9346 69.4395 11.5434 70.4422 11.5401C70.4465 11.5401 70.4509 11.5401 70.4552 11.5401C71.4549 11.5401 72.3908 11.9258 73.0921 12.6271C73.6067 13.1417 73.9561 13.7918 74.1025 14.5071C74.1799 14.8853 73.9361 15.2547 73.5578 15.3322C73.1794 15.41 72.8101 15.1658 72.7326 14.7874C72.6413 14.3413 72.4237 13.9362 72.1034 13.6158C71.6663 13.1787 71.0812 12.9384 70.4551 12.9384C70.4523 12.9384 70.4496 12.9384 70.4469 12.9384C69.8159 12.9405 69.2238 13.1861 68.7798 13.6302L65.3393 17.0708C64.8952 17.5148 64.6495 18.1069 64.6474 18.7378C64.6453 19.3671 64.8859 19.9554 65.3249 20.3944C65.7619 20.8314 66.347 21.0718 66.9732 21.0718H66.9814C67.6124 21.0697 68.2045 20.824 68.6485 20.38L70.0038 19.0246C70.2768 18.7516 70.7196 18.7515 70.9926 19.0246C71.2656 19.2975 71.2656 19.7402 70.9926 20.0132ZM79.5778 13.9911L76.1602 17.4087C75.4314 18.1375 74.4742 18.5019 73.5169 18.5019C72.5596 18.5019 71.6024 18.1375 70.8736 17.4087C70.3595 16.8947 70.0094 16.2461 69.8613 15.5332C69.7827 15.1552 70.0254 14.785 70.4035 14.7064C70.7813 14.6278 71.1517 14.8706 71.2303 15.2487C71.3228 15.6941 71.5414 16.0992 71.8623 16.4201C72.7746 17.3324 74.2592 17.3322 75.1715 16.4201L78.5891 13.0024C79.5014 12.0901 79.5014 10.6056 78.5891 9.69326C78.1495 9.25368 77.5619 9.01161 76.9345 9.01161C76.3071 9.01161 75.7195 9.25368 75.2799 9.69326L73.9336 11.0396C73.6605 11.3126 73.2179 11.3126 72.9449 11.0396C72.6719 10.7665 72.6718 10.3239 72.9449 10.0509L74.2912 8.70452C74.9949 8.00085 75.9336 7.6133 76.9345 7.6133C77.9354 7.6133 78.8741 8.00085 79.5778 8.70452C81.0353 10.162 81.0353 12.5336 79.5778 13.9911Z" fill="#54C4FC"/>
<path d="M15.2839 0.126953C7.0602 0.126953 0.369629 6.81752 0.369629 15.0412C0.369629 23.2643 7.0602 29.9555 15.2839 29.9555C23.507 29.9555 30.1982 23.2643 30.1982 15.0412C30.1982 6.81752 23.5082 0.126953 15.2839 0.126953ZM21.9372 11.6277C21.9438 11.7755 21.9474 11.9245 21.9474 12.0735C21.9474 16.6098 18.4955 21.8387 12.1798 21.8387C10.2412 21.8387 8.43652 21.2722 6.91782 20.2978C7.18636 20.3296 7.4597 20.3459 7.73665 20.3459C9.34546 20.3459 10.8251 19.7968 12.0002 18.8764C10.4983 18.8488 9.23012 17.8563 8.79337 16.492C9.00243 16.5317 9.2181 16.5539 9.43858 16.5539C9.75157 16.5539 10.0555 16.5131 10.3433 16.4344C8.77294 16.1196 7.59006 14.7324 7.59006 13.0683C7.59006 13.0539 7.59006 13.0389 7.59066 13.0251C8.05324 13.2816 8.58251 13.4366 9.14481 13.454C8.22446 12.8395 7.6183 11.7881 7.6183 10.5975C7.6183 9.96787 7.78711 9.37793 8.08268 8.87089C9.775 10.9483 12.3054 12.3144 15.1577 12.4586C15.0989 12.2069 15.0694 11.9455 15.0694 11.6758C15.0694 9.78043 16.6061 8.24311 18.5015 8.24311C19.4892 8.24311 20.3801 8.66003 21.0073 9.32686C21.79 9.17307 22.5229 8.88832 23.188 8.49362C22.9297 9.29563 22.3872 9.96787 21.6765 10.3932C22.3716 10.3103 23.0348 10.1265 23.6482 9.85312C23.1904 10.5404 22.6083 11.1453 21.9372 11.6277Z" fill="#54C4FC"/>
<path d="M128.632 29.9555C136.87 29.9555 143.546 23.2801 143.546 15.0412C143.546 6.80233 136.87 0.126953 128.632 0.126953C120.393 0.126953 113.717 6.80233 113.717 15.0412C113.717 23.2801 120.393 29.9555 128.632 29.9555ZM120.542 14.7181L134.922 9.1737C135.589 8.93258 136.172 9.33651 135.956 10.3457L135.957 10.3445L133.509 21.8794C133.327 22.6972 132.841 22.8961 132.161 22.5108L128.433 19.7628L126.634 21.4954C126.435 21.6942 126.268 21.862 125.882 21.862L126.147 18.0676L133.057 11.8247C133.358 11.56 132.99 11.4108 132.594 11.6743L124.054 17.0509L120.373 15.9025C119.574 15.649 119.556 15.1034 120.542 14.7181Z" fill="#54C4FC"/>
</svg>
