<svg width="145" height="31" viewBox="0 0 145 31" fill="none" xmlns="http://www.w3.org/2000/svg">
<path d="M72.4858 0.177734C64.1946 0.177734 57.4492 6.92311 57.4492 15.2143C57.4492 23.5055 64.1946 30.2509 72.4858 30.2509C80.7769 30.2509 87.5223 23.5055 87.5223 15.2143C87.5223 6.92311 80.7769 0.177734 72.4858 0.177734ZM71.5114 20.2265L70.1449 21.593C69.4035 22.3343 68.4305 22.7053 67.4594 22.7053C66.4951 22.7054 65.5327 22.3397 64.8005 21.6076C64.0905 20.8975 63.7013 19.9487 63.7047 18.936C63.7081 17.9251 64.1024 16.9759 64.8151 16.2632L68.2837 12.7945C68.9964 12.0819 69.9456 11.6875 70.9565 11.6842C70.9608 11.6842 70.9653 11.6841 70.9696 11.6841C71.9774 11.6841 72.921 12.073 73.628 12.78C74.1469 13.2989 74.4991 13.9542 74.6467 14.6754C74.7248 15.0567 74.4789 15.4292 74.0975 15.5072C73.7161 15.5857 73.3438 15.3395 73.2656 14.958C73.1736 14.5083 72.9542 14.0998 72.6312 13.7769C72.1906 13.3362 71.6008 13.0939 70.9695 13.0939C70.9667 13.0939 70.964 13.0939 70.9612 13.0939C70.3251 13.096 69.7282 13.3437 69.2805 13.7914L65.8118 17.2601C65.3642 17.7077 65.1165 18.3046 65.1143 18.9407C65.1122 19.5752 65.3548 20.1682 65.7973 20.6108C66.238 21.0514 66.8278 21.2938 67.4591 21.2938H67.4674C68.1036 21.2917 68.7005 21.044 69.1481 20.5963L70.5145 19.2298C70.7898 18.9546 71.2361 18.9545 71.5114 19.2298C71.7866 19.505 71.7866 19.9512 71.5114 20.2265ZM80.1668 14.1552L76.7212 17.6008C75.9865 18.3355 75.0215 18.7029 74.0563 18.7029C73.0912 18.7029 72.1262 18.3355 71.3914 17.6008C70.8731 17.0825 70.5202 16.4286 70.3708 15.7099C70.2916 15.3288 70.5363 14.9556 70.9175 14.8764C71.2984 14.7971 71.6718 15.0419 71.751 15.4231C71.8443 15.8722 72.0647 16.2806 72.3882 16.604C73.308 17.5238 74.8047 17.5237 75.7244 16.604L79.17 13.1585C80.0898 12.2387 80.0898 10.742 79.17 9.82223C78.7268 9.37906 78.1344 9.13501 77.5018 9.13501C76.8693 9.13501 76.277 9.37906 75.8338 9.82223L74.4764 11.1796C74.2011 11.4548 73.7549 11.4548 73.4796 11.1796C73.2044 10.9043 73.2043 10.4581 73.4796 10.1828L74.837 8.82541C75.5464 8.11599 76.4928 7.72528 77.5018 7.72528C78.5109 7.72528 79.4573 8.11599 80.1668 8.82541C81.6362 10.2948 81.6362 12.6858 80.1668 14.1552Z" fill="#54C4FC"/>
<path d="M15.3467 0.177734C7.05581 0.177734 0.310547 6.92299 0.310547 15.2139C0.310547 23.5042 7.05581 30.2501 15.3467 30.2501C23.637 30.2501 30.3829 23.5042 30.3829 15.2139C30.3829 6.92299 23.6382 0.177734 15.3467 0.177734ZM22.0544 11.7725C22.0611 11.9215 22.0647 12.0717 22.0647 12.2219C22.0647 16.7953 18.5846 22.067 12.2173 22.067C10.2628 22.067 8.44338 21.4958 6.91226 20.5134C7.183 20.5455 7.45857 20.5619 7.73778 20.5619C9.35975 20.5619 10.8515 20.0083 12.0362 19.0805C10.522 19.0526 9.24346 18.052 8.80314 16.6766C9.01391 16.7166 9.23135 16.739 9.45362 16.739C9.76917 16.739 10.0756 16.6978 10.3657 16.6184C8.78255 16.3011 7.59 14.9026 7.59 13.2249C7.59 13.2104 7.59 13.1952 7.59061 13.1813C8.05697 13.4399 8.59055 13.5962 9.15745 13.6137C8.22958 12.9942 7.61847 11.9342 7.61847 10.7338C7.61847 10.0991 7.78866 9.50433 8.08664 8.99315C9.79279 11.0875 12.3438 12.4648 15.2195 12.6102C15.1602 12.3564 15.1305 12.0929 15.1305 11.821C15.1305 9.91012 16.6798 8.36023 18.5906 8.36023C19.5864 8.36023 20.4845 8.78056 21.1169 9.45284C21.906 9.2978 22.6449 9.01071 23.3154 8.61279C23.055 9.42135 22.5081 10.0991 21.7916 10.5279C22.4923 10.4443 23.161 10.259 23.7794 9.98341C23.3178 10.6763 22.7309 11.2862 22.0544 11.7725Z" fill="#54C4FC"/>
<path d="M129.622 30.2501C137.928 30.2501 144.658 23.5201 144.658 15.2139C144.658 6.90767 137.928 0.177734 129.622 0.177734C121.316 0.177734 114.586 6.90767 114.586 15.2139C114.586 23.5201 121.316 30.2501 129.622 30.2501ZM121.466 14.8881L135.964 9.29842C136.636 9.05534 137.224 9.46257 137.006 10.48L137.007 10.4788L134.539 22.108C134.356 22.9325 133.866 23.133 133.181 22.7445L129.422 19.9741L127.609 21.7208C127.408 21.9213 127.239 22.0904 126.85 22.0904L127.117 18.265L134.084 11.9711C134.387 11.7042 134.016 11.5539 133.617 11.8195L125.007 17.24L121.296 16.0822C120.49 15.8266 120.473 15.2766 121.466 14.8881Z" fill="#54C4FC"/>
</svg>
