<svg width="145" height="31" viewBox="0 0 145 31" fill="none" xmlns="http://www.w3.org/2000/svg">
<path d="M72.4987 0.576172C64.2075 0.576172 57.4621 7.32155 57.4621 15.6128C57.4621 23.904 64.2075 30.6493 72.4987 30.6493C80.7898 30.6493 87.5352 23.904 87.5352 15.6128C87.5352 7.32155 80.7898 0.576172 72.4987 0.576172ZM71.5242 20.625L70.1578 21.9914C69.4164 22.7327 68.4434 23.1038 67.4722 23.1038C66.5079 23.1038 65.5456 22.7381 64.8134 22.006C64.1033 21.2959 63.7141 20.3472 63.7175 19.3345C63.721 18.3236 64.1153 17.3743 64.828 16.6617L68.2966 13.193C69.0092 12.4803 69.9585 12.086 70.9694 12.0826C70.9737 12.0826 70.9782 12.0826 70.9825 12.0826C71.9903 12.0826 72.9339 12.4715 73.6409 13.1785C74.1597 13.6973 74.512 14.3527 74.6596 15.0738C74.7377 15.4552 74.4918 15.8276 74.1104 15.9057C73.729 15.9841 73.3566 15.7379 73.2785 15.3565C73.1865 14.9067 72.9671 14.4983 72.6441 14.1753C72.2035 13.7346 71.6136 13.4923 70.9823 13.4923C70.9796 13.4923 70.9769 13.4923 70.9741 13.4923C70.3379 13.4944 69.741 13.7421 69.2934 14.1898L65.8247 17.6585C65.377 18.1062 65.1293 18.7031 65.1272 19.3392C65.1251 19.9736 65.3676 20.5667 65.8102 21.0092C66.2509 21.4499 66.8407 21.6922 67.472 21.6922H67.4803C68.1165 21.6901 68.7133 21.4424 69.161 20.9947L70.5274 19.6283C70.8027 19.353 71.249 19.353 71.5242 19.6283C71.7995 19.9035 71.7995 20.3497 71.5242 20.625ZM80.1797 14.5537L76.7341 17.9992C75.9994 18.7339 75.0343 19.1013 74.0692 19.1013C73.1041 19.1013 72.139 18.734 71.4043 17.9992C70.886 17.4809 70.5331 16.8271 70.3837 16.1084C70.3045 15.7273 70.5492 15.354 70.9303 15.2748C71.3113 15.1955 71.6846 15.4403 71.7639 15.8215C71.8572 16.2706 72.0776 16.679 72.4011 17.0025C73.3209 17.9223 74.8175 17.9221 75.7373 17.0025L79.1828 13.5569C80.1027 12.6371 80.1027 11.1405 79.1828 10.2207C78.7397 9.7775 78.1473 9.53345 77.5147 9.53345C76.8822 9.53345 76.2898 9.7775 75.8467 10.2207L74.4893 11.578C74.214 11.8533 73.7678 11.8533 73.4925 11.578C73.2173 11.3027 73.2172 10.8565 73.4925 10.5812L74.8498 9.22385C75.5593 8.51443 76.5057 8.12371 77.5147 8.12371C78.5238 8.12371 79.4702 8.51443 80.1797 9.22385C81.6491 10.6933 81.6491 13.0842 80.1797 14.5537Z" fill="#54C4FC"/>
<path d="M15.3596 0.574219C7.06869 0.574219 0.323425 7.31948 0.323425 15.6104C0.323425 23.9007 7.06869 30.6466 15.3596 30.6466C23.6499 30.6466 30.3958 23.9007 30.3958 15.6104C30.3958 7.31948 23.6511 0.574219 15.3596 0.574219ZM22.0673 12.169C22.074 12.318 22.0776 12.4682 22.0776 12.6184C22.0776 17.1918 18.5975 22.4635 12.2301 22.4635C10.2757 22.4635 8.45626 21.8923 6.92514 20.9099C7.19587 20.942 7.47145 20.9584 7.75066 20.9584C9.37262 20.9584 10.8644 20.4048 12.049 19.4769C10.5349 19.4491 9.25634 18.4485 8.81602 17.0731C9.02679 17.113 9.24422 17.1354 9.4665 17.1354C9.78205 17.1354 10.0885 17.0943 10.3786 17.0149C8.79543 16.6976 7.60288 15.2991 7.60288 13.6214C7.60288 13.6069 7.60288 13.5917 7.60348 13.5778C8.06984 13.8364 8.60343 13.9927 9.17033 14.0102C8.24246 13.3906 7.63134 12.3307 7.63134 11.1303C7.63134 10.4956 7.80154 9.90081 8.09952 9.38963C9.80567 11.484 12.3567 12.8613 15.2324 13.0066C15.173 12.7529 15.1434 12.4894 15.1434 12.2175C15.1434 10.3066 16.6927 8.75671 18.6035 8.75671C19.5992 8.75671 20.4974 9.17704 21.1297 9.84933C21.9189 9.69428 22.6578 9.4072 23.3283 9.00928C23.0679 9.81783 22.5209 10.4956 21.8044 10.9244C22.5052 10.8408 23.1738 10.6555 23.7922 10.3799C23.3307 11.0728 22.7438 11.6827 22.0673 12.169Z" fill="#54C4FC"/>
<path d="M129.634 30.6485C137.94 30.6485 144.67 23.9186 144.67 15.6123C144.67 7.30611 137.94 0.576172 129.634 0.576172C121.328 0.576172 114.598 7.30611 114.598 15.6123C114.598 23.9186 121.328 30.6485 129.634 30.6485ZM121.478 15.2866L135.976 9.69686C136.648 9.45378 137.236 9.86101 137.018 10.8785L137.019 10.8772L134.551 22.5064C134.368 23.3309 133.878 23.5314 133.193 23.143L129.434 20.3725L127.62 22.1192C127.42 22.3197 127.251 22.4889 126.862 22.4889L127.129 18.6634L134.096 12.3695C134.399 12.1026 134.028 11.9523 133.629 12.2179L125.019 17.6385L121.308 16.4807C120.502 16.2251 120.484 15.675 121.478 15.2866Z" fill="#54C4FC"/>
</svg>
