<svg width="140" height="30" viewBox="0 0 140 30" fill="none" xmlns="http://www.w3.org/2000/svg">
<path d="M69.8664 0.722656C61.8405 0.722656 55.311 7.25215 55.311 15.278C55.311 23.3039 61.8405 29.8334 69.8664 29.8334C77.8922 29.8334 84.4217 23.3039 84.4217 15.278C84.4217 7.25215 77.8922 0.722656 69.8664 0.722656ZM68.9231 20.1298L67.6004 21.4525C66.8828 22.1701 65.9409 22.5293 65.0008 22.5293C64.0674 22.5294 63.1358 22.1753 62.4271 21.4666C61.7397 20.7793 61.363 19.8609 61.3663 18.8806C61.3696 17.9021 61.7513 16.9832 62.4412 16.2934L65.7988 12.9357C66.4886 12.2458 67.4075 11.8641 68.3861 11.8609C68.3902 11.8609 68.3945 11.8608 68.3987 11.8608C69.3743 11.8608 70.2877 12.2372 70.9721 12.9216C71.4743 13.4238 71.8153 14.0583 71.9581 14.7563C72.0337 15.1255 71.7957 15.486 71.4265 15.5615C71.0573 15.6375 70.6969 15.3992 70.6213 15.0299C70.5322 14.5946 70.3198 14.1992 70.0072 13.8865C69.5807 13.46 69.0097 13.2254 68.3986 13.2254C68.3959 13.2254 68.3933 13.2254 68.3906 13.2254C67.7748 13.2275 67.197 13.4672 66.7636 13.9006L63.406 17.2583C62.9727 17.6916 62.7329 18.2694 62.7309 18.8852C62.7288 19.4993 62.9636 20.0734 63.392 20.5018C63.8185 20.9283 64.3895 21.1629 65.0006 21.1629H65.0086C65.6244 21.1609 66.2022 20.9211 66.6355 20.4877L67.9582 19.165C68.2246 18.8986 68.6567 18.8985 68.9231 19.165C69.1896 19.4314 69.1896 19.8633 68.9231 20.1298ZM77.3015 14.2528L73.9663 17.5881C73.2551 18.2993 72.3209 18.6549 71.3866 18.6549C70.4524 18.6549 69.5182 18.2993 68.807 17.5881C68.3053 17.0864 67.9637 16.4535 67.8191 15.7578C67.7424 15.3889 67.9793 15.0275 68.3482 14.9509C68.717 14.8741 69.0784 15.1111 69.1551 15.4801C69.2454 15.9148 69.4588 16.3101 69.7719 16.6232C70.6623 17.5136 72.111 17.5134 73.0014 16.6232L76.3366 13.288C77.227 12.3976 77.227 10.9489 76.3366 10.0585C75.9076 9.62951 75.3342 9.39326 74.7219 9.39326C74.1096 9.39326 73.5362 9.62951 73.1072 10.0585L71.7933 11.3724C71.5268 11.6388 71.0949 11.6388 70.8284 11.3724C70.562 11.1059 70.5619 10.674 70.8284 10.4075L72.1423 9.09357C72.829 8.40686 73.7452 8.02864 74.7219 8.02864C75.6987 8.02864 76.6148 8.40686 77.3015 9.09357C78.7239 10.516 78.7239 12.8304 77.3015 14.2528Z" fill="#54C4FC"/>
<path d="M14.5564 0.720703C6.53085 0.720703 0.00146484 7.25009 0.00146484 15.2757C0.00146484 23.3006 6.53085 29.8306 14.5564 29.8306C22.5814 29.8306 29.1114 23.3006 29.1114 15.2757C29.1114 7.25009 22.5826 0.720703 14.5564 0.720703ZM21.0494 11.9444C21.0559 12.0886 21.0594 12.234 21.0594 12.3794C21.0594 16.8064 17.6907 21.9094 11.5271 21.9094C9.63519 21.9094 7.87401 21.3565 6.3919 20.4056C6.65397 20.4367 6.92072 20.4525 7.191 20.4525C8.76105 20.4525 10.2051 19.9166 11.3518 19.0185C9.88612 18.9915 8.64849 18.023 8.22226 16.6915C8.42629 16.7302 8.63676 16.7519 8.85192 16.7519C9.15738 16.7519 9.45403 16.712 9.73486 16.6352C8.20233 16.328 7.04795 14.9743 7.04795 13.3503C7.04795 13.3362 7.04795 13.3216 7.04853 13.3081C7.49997 13.5584 8.01648 13.7097 8.56524 13.7267C7.66706 13.1269 7.0755 12.101 7.0755 10.939C7.0755 10.3245 7.24025 9.74881 7.52869 9.25399C9.18024 11.2813 11.6496 12.6145 14.4333 12.7552C14.3758 12.5096 14.3471 12.2546 14.3471 11.9913C14.3471 10.1416 15.8468 8.64133 17.6965 8.64133C18.6604 8.64133 19.5298 9.0482 20.1419 9.69897C20.9058 9.54888 21.6211 9.27099 22.2701 8.8858C22.018 9.66849 21.4886 10.3245 20.795 10.7396C21.4733 10.6587 22.1206 10.4793 22.7192 10.2126C22.2724 10.8833 21.7043 11.4736 21.0494 11.9444Z" fill="#54C4FC"/>
<path d="M125.174 29.8326C133.214 29.8326 139.729 23.318 139.729 15.2776C139.729 7.23721 133.214 0.722656 125.174 0.722656C117.133 0.722656 110.619 7.23721 110.619 15.2776C110.619 23.318 117.133 29.8326 125.174 29.8326ZM117.279 14.9622L131.312 9.55145C131.963 9.31614 132.532 9.71034 132.321 10.6952L132.323 10.694L129.933 21.9511C129.756 22.7491 129.282 22.9432 128.618 22.5672L124.98 19.8855L123.224 21.5763C123.03 21.7703 122.867 21.9341 122.491 21.9341L122.749 18.231L129.493 12.1386C129.786 11.8802 129.427 11.7347 129.04 11.9918L120.706 17.2389L117.114 16.1182C116.334 15.8707 116.317 15.3383 117.279 14.9622Z" fill="#54C4FC"/>
</svg>
