<svg width="141" height="30" viewBox="0 0 141 30" fill="none" xmlns="http://www.w3.org/2000/svg">
<path d="M70.652 0.207031C62.6262 0.207031 56.0967 6.73653 56.0967 14.7624C56.0967 22.7882 62.6262 29.3177 70.652 29.3177C78.6778 29.3177 85.2073 22.7882 85.2073 14.7624C85.2073 6.73653 78.6778 0.207031 70.652 0.207031ZM69.7088 19.6142L68.3861 20.9369C67.6684 21.6545 66.7265 22.0137 65.7864 22.0137C64.853 22.0137 63.9214 21.6597 63.2127 20.951C62.5254 20.2637 62.1486 19.3453 62.1519 18.365C62.1552 17.3864 62.5369 16.4676 63.2268 15.7777L66.5844 12.42C67.2743 11.7302 68.1931 11.3485 69.1717 11.3452C69.1759 11.3452 69.1802 11.3452 69.1844 11.3452C70.1599 11.3452 71.0733 11.7216 71.7577 12.406C72.2599 12.9082 72.6009 13.5426 72.7438 14.2407C72.8194 14.6098 72.5814 14.9704 72.2122 15.0459C71.843 15.1219 71.4825 14.8835 71.4069 14.5143C71.3178 14.079 71.1055 13.6836 70.7928 13.3709C70.3663 12.9444 69.7953 12.7098 69.1842 12.7098C69.1815 12.7098 69.1789 12.7098 69.1763 12.7098C68.5604 12.7118 67.9827 12.9516 67.5493 13.385L64.1917 16.7426C63.7583 17.176 63.5185 17.7538 63.5165 18.3695C63.5144 18.9837 63.7492 19.5577 64.1776 19.9862C64.6042 20.4127 65.1751 20.6473 65.7862 20.6473H65.7942C66.4101 20.6452 66.9878 20.4055 67.4211 19.9721L68.7439 18.6494C69.0103 18.383 69.4423 18.3829 69.7088 18.6494C69.9752 18.9158 69.9752 19.3477 69.7088 19.6142ZM78.0872 13.7372L74.7519 17.0725C74.0407 17.7836 73.1065 18.1393 72.1723 18.1393C71.2381 18.1393 70.3039 17.7837 69.5927 17.0725C69.091 16.5708 68.7493 15.9378 68.6047 15.2421C68.528 14.8732 68.7649 14.5119 69.1339 14.4353C69.5026 14.3585 69.864 14.5954 69.9407 14.9644C70.0311 15.3992 70.2444 15.7945 70.5576 16.1076C71.4479 16.998 72.8967 16.9978 73.787 16.1076L77.1223 12.7723C78.0127 11.882 78.0127 10.4332 77.1223 9.54287C76.6933 9.11388 76.1198 8.87764 75.5075 8.87764C74.8953 8.87764 74.3219 9.11388 73.8929 9.54287L72.579 10.8568C72.3125 11.1232 71.8805 11.1232 71.614 10.8568C71.3476 10.5903 71.3476 10.1583 71.614 9.89185L72.9279 8.57795C73.6147 7.89123 74.5308 7.51302 75.5075 7.51302C76.4843 7.51302 77.4004 7.89123 78.0872 8.57795C79.5096 10.0003 79.5096 12.3147 78.0872 13.7372Z" fill="#54C4FC"/>
<path d="M15.3416 0.205078C7.316 0.205078 0.786621 6.73446 0.786621 14.76C0.786621 22.785 7.316 29.315 15.3416 29.315C23.3666 29.315 29.8965 22.785 29.8965 14.76C29.8965 6.73446 23.3677 0.205078 15.3416 0.205078ZM21.8346 11.4288C21.8411 11.573 21.8446 11.7184 21.8446 11.8638C21.8446 16.2908 18.4758 21.3938 12.3123 21.3938C10.4204 21.3938 8.65917 20.8409 7.17706 19.89C7.43912 19.921 7.70588 19.9369 7.97615 19.9369C9.54621 19.9369 10.9902 19.401 12.137 18.5028C10.6713 18.4759 9.43364 17.5073 9.00742 16.1759C9.21144 16.2146 9.42192 16.2363 9.63708 16.2363C9.94253 16.2363 10.2392 16.1964 10.52 16.1196C8.98748 15.8124 7.8331 14.4587 7.8331 12.8347C7.8331 12.8206 7.8331 12.806 7.83369 12.7925C8.28512 13.0428 8.80163 13.1941 9.35039 13.2111C8.45221 12.6113 7.86066 11.5853 7.86066 10.4233C7.86066 9.80891 8.0254 9.23318 8.31385 8.73836C9.9654 10.7657 12.4348 12.0989 15.2185 12.2396C15.161 11.994 15.1323 11.7389 15.1323 11.4757C15.1323 9.62599 16.632 8.1257 18.4817 8.1257C19.4455 8.1257 20.315 8.53258 20.927 9.18335C21.691 9.03326 22.4062 8.75536 23.0552 8.37018C22.8031 9.15286 22.2737 9.80891 21.5802 10.224C22.2585 10.1431 22.9057 9.96368 23.5043 9.69693C23.0576 10.3676 22.4895 10.958 21.8346 11.4288Z" fill="#54C4FC"/>
<path d="M125.959 29.3169C134 29.3169 140.514 22.8024 140.514 14.762C140.514 6.72158 134 0.207031 125.959 0.207031C117.919 0.207031 111.404 6.72158 111.404 14.762C111.404 22.8024 117.919 29.3169 125.959 29.3169ZM118.064 14.4466L132.098 9.03582C132.749 8.80052 133.318 9.19471 133.107 10.1796L133.108 10.1784L130.719 21.4354C130.542 22.2335 130.067 22.4276 129.404 22.0516L125.765 19.3698L124.01 21.0606C123.816 21.2547 123.652 21.4184 123.276 21.4184L123.535 17.7154L130.278 11.623C130.572 11.3646 130.213 11.2191 129.826 11.4762L121.492 16.7233L117.899 15.6025C117.12 15.3551 117.103 14.8226 118.064 14.4466Z" fill="#54C4FC"/>
</svg>
