<svg width="145" height="31" viewBox="0 0 145 31" fill="none" xmlns="http://www.w3.org/2000/svg">
<path d="M72.4987 0.0839844C64.2075 0.0839844 57.4622 6.82936 57.4622 15.1206C57.4622 23.4118 64.2075 30.1571 72.4987 30.1571C80.7899 30.1571 87.5353 23.4118 87.5353 15.1206C87.5353 6.82936 80.7899 0.0839844 72.4987 0.0839844ZM71.5243 20.1328L70.1578 21.4992C69.4165 22.2406 68.4434 22.6116 67.4723 22.6116C66.508 22.6117 65.5456 22.2459 64.8135 21.5138C64.1034 20.8037 63.7142 19.855 63.7176 18.8423C63.721 17.8314 64.1153 16.8821 64.828 16.1695L68.2967 12.7008C69.0093 11.9881 69.9586 11.5938 70.9695 11.5904C70.9738 11.5904 70.9782 11.5904 70.9826 11.5904C71.9904 11.5904 72.934 11.9793 73.641 12.6863C74.1598 13.2051 74.5121 13.8605 74.6597 14.5817C74.7377 14.963 74.4918 15.3354 74.1105 15.4135C73.729 15.492 73.3567 15.2457 73.2786 14.8643C73.1865 14.4145 72.9672 14.0061 72.6442 13.6831C72.2036 13.2425 71.6137 13.0001 70.9824 13.0001C70.9796 13.0001 70.9769 13.0001 70.9742 13.0001C70.338 13.0022 69.7411 13.2499 69.2934 13.6976L65.8248 17.1663C65.3771 17.614 65.1294 18.2109 65.1273 18.847C65.1252 19.4814 65.3677 20.0745 65.8103 20.5171C66.2509 20.9577 66.8408 21.2 67.4721 21.2H67.4803C68.1165 21.1979 68.7134 20.9502 69.161 20.5025L70.5275 19.1361C70.8027 18.8609 71.2491 18.8608 71.5243 19.1361C71.7995 19.4113 71.7995 19.8575 71.5243 20.1328ZM80.1797 14.0615L76.7342 17.507C75.9994 18.2417 75.0344 18.6091 74.0692 18.6091C73.1041 18.6091 72.1391 18.2418 71.4044 17.507C70.8861 16.9887 70.5331 16.3349 70.3837 15.6162C70.3045 15.2351 70.5493 14.8618 70.9304 14.7827C71.3113 14.7034 71.6847 14.9481 71.7639 15.3293C71.8573 15.7784 72.0777 16.1868 72.4012 16.5103C73.3209 17.4301 74.8176 17.4299 75.7374 16.5103L79.1829 13.0647C80.1027 12.1449 80.1027 10.6483 79.1829 9.72848C78.7397 9.28531 78.1473 9.04126 77.5148 9.04126C76.8823 9.04126 76.2899 9.28531 75.8467 9.72848L74.4894 11.0858C74.2141 11.3611 73.7679 11.3611 73.4926 11.0858C73.2173 10.8105 73.2173 10.3643 73.4926 10.089L74.8499 8.73166C75.5593 8.02224 76.5058 7.63153 77.5148 7.63153C78.5239 7.63153 79.4702 8.02224 80.1797 8.73166C81.6491 10.2011 81.6491 12.592 80.1797 14.0615Z" fill="#54C4FC"/>
<path d="M15.3604 0.0839844C7.06948 0.0839844 0.324219 6.82924 0.324219 15.1202C0.324219 23.4105 7.06948 30.1563 15.3604 30.1563C23.6507 30.1563 30.3966 23.4105 30.3966 15.1202C30.3966 6.82924 23.6519 0.0839844 15.3604 0.0839844ZM22.0681 11.6788C22.0748 11.8278 22.0784 11.978 22.0784 12.1282C22.0784 16.7015 18.5983 21.9732 12.2309 21.9732C10.2765 21.9732 8.45705 21.4021 6.92594 20.4197C7.19667 20.4518 7.47224 20.4681 7.75145 20.4681C9.37342 20.4681 10.8652 19.9146 12.0498 18.9867C10.5357 18.9588 9.25713 17.9583 8.81681 16.5828C9.02758 16.6228 9.24502 16.6452 9.46729 16.6452C9.78284 16.6452 10.0893 16.604 10.3794 16.5247C8.79622 16.2073 7.60367 14.8088 7.60367 13.1312C7.60367 13.1166 7.60367 13.1015 7.60428 13.0876C8.07064 13.3462 8.60423 13.5024 9.17113 13.52C8.24325 12.9004 7.63214 11.8405 7.63214 10.6401C7.63214 10.0053 7.80233 9.41058 8.10032 8.8994C9.80647 10.9938 12.3575 12.3711 15.2332 12.5164C15.1738 12.2626 15.1442 11.9992 15.1442 11.7272C15.1442 9.81637 16.6934 8.26648 18.6043 8.26648C19.6 8.26648 20.4982 8.68681 21.1305 9.35909C21.9197 9.20405 22.6586 8.91696 23.3291 8.51904C23.0687 9.3276 22.5217 10.0053 21.8052 10.4341C22.506 10.3506 23.1746 10.1652 23.793 9.88966C23.3315 10.5825 22.7446 11.1924 22.0681 11.6788Z" fill="#54C4FC"/>
<path d="M129.635 30.1563C137.941 30.1563 144.671 23.4264 144.671 15.1202C144.671 6.81392 137.941 0.0839844 129.635 0.0839844C121.329 0.0839844 114.599 6.81392 114.599 15.1202C114.599 23.4264 121.329 30.1563 129.635 30.1563ZM121.479 14.7944L135.976 9.20467C136.649 8.96159 137.237 9.36882 137.019 10.3863L137.02 10.385L134.552 22.0142C134.369 22.8387 133.879 23.0392 133.193 22.6508L129.434 19.8804L127.621 21.6271C127.421 21.8275 127.252 21.9967 126.863 21.9967L127.13 18.1712L134.097 11.8774C134.4 11.6105 134.029 11.4601 133.629 11.7257L125.02 17.1463L121.309 15.9885C120.503 15.7329 120.485 15.1828 121.479 14.7944Z" fill="#54C4FC"/>
</svg>
