<svg width="145" height="31" viewBox="0 0 145 31" fill="none" xmlns="http://www.w3.org/2000/svg">
<path d="M72.4995 0.177734C64.2083 0.177734 57.4629 6.92311 57.4629 15.2143C57.4629 23.5055 64.2083 30.2509 72.4995 30.2509C80.7906 30.2509 87.536 23.5055 87.536 15.2143C87.536 6.92311 80.7906 0.177734 72.4995 0.177734ZM71.525 20.2265L70.1586 21.593C69.4172 22.3343 68.4442 22.7053 67.473 22.7053C66.5087 22.7054 65.5463 22.3397 64.8142 21.6076C64.1041 20.8975 63.7149 19.9487 63.7183 18.936C63.7217 17.9251 64.116 16.9759 64.8288 16.2632L68.2974 12.7945C69.01 12.0819 69.9593 11.6875 70.9702 11.6842C70.9745 11.6842 70.979 11.6841 70.9833 11.6841C71.9911 11.6841 72.9347 12.073 73.6417 12.78C74.1605 13.2989 74.5128 13.9542 74.6604 14.6754C74.7385 15.0567 74.4926 15.4292 74.1112 15.5072C73.7298 15.5857 73.3574 15.3395 73.2793 14.958C73.1873 14.5083 72.9679 14.0998 72.6449 13.7769C72.2043 13.3362 71.6144 13.0939 70.9831 13.0939C70.9804 13.0939 70.9777 13.0939 70.9749 13.0939C70.3387 13.096 69.7418 13.3437 69.2942 13.7914L65.8255 17.2601C65.3778 17.7077 65.1301 18.3046 65.128 18.9407C65.1259 19.5752 65.3684 20.1682 65.811 20.6108C66.2517 21.0514 66.8415 21.2938 67.4728 21.2938H67.4811C68.1172 21.2917 68.7141 21.044 69.1618 20.5963L70.5282 19.2298C70.8034 18.9546 71.2498 18.9545 71.525 19.2298C71.8003 19.505 71.8003 19.9512 71.525 20.2265ZM80.1805 14.1552L76.7349 17.6008C76.0002 18.3355 75.0351 18.7029 74.07 18.7029C73.1049 18.7029 72.1398 18.3355 71.4051 17.6008C70.8868 17.0825 70.5338 16.4286 70.3845 15.7099C70.3052 15.3288 70.55 14.9556 70.9311 14.8764C71.312 14.7971 71.6854 15.0419 71.7647 15.4231C71.858 15.8722 72.0784 16.2806 72.4019 16.604C73.3217 17.5238 74.8183 17.5237 75.7381 16.604L79.1836 13.1585C80.1035 12.2387 80.1035 10.742 79.1836 9.82223C78.7405 9.37906 78.1481 9.13501 77.5155 9.13501C76.883 9.13501 76.2906 9.37906 75.8475 9.82223L74.4901 11.1796C74.2148 11.4548 73.7686 11.4548 73.4933 11.1796C73.2181 10.9043 73.218 10.4581 73.4933 10.1828L74.8506 8.82541C75.5601 8.11599 76.5065 7.72528 77.5155 7.72528C78.5246 7.72528 79.471 8.11599 80.1805 8.82541C81.6499 10.2948 81.6499 12.6858 80.1805 14.1552Z" fill="#54C4FC"/>
<path d="M15.3604 0.177734C7.06948 0.177734 0.324219 6.92299 0.324219 15.2139C0.324219 23.5042 7.06948 30.2501 15.3604 30.2501C23.6507 30.2501 30.3966 23.5042 30.3966 15.2139C30.3966 6.92299 23.6519 0.177734 15.3604 0.177734ZM22.0681 11.7725C22.0748 11.9215 22.0784 12.0717 22.0784 12.2219C22.0784 16.7953 18.5983 22.067 12.2309 22.067C10.2765 22.067 8.45705 21.4958 6.92594 20.5134C7.19667 20.5455 7.47224 20.5619 7.75145 20.5619C9.37342 20.5619 10.8652 20.0083 12.0498 19.0805C10.5357 19.0526 9.25713 18.052 8.81681 16.6766C9.02758 16.7166 9.24502 16.739 9.46729 16.739C9.78284 16.739 10.0893 16.6978 10.3794 16.6184C8.79622 16.3011 7.60367 14.9026 7.60367 13.2249C7.60367 13.2104 7.60367 13.1952 7.60428 13.1813C8.07064 13.4399 8.60423 13.5962 9.17113 13.6137C8.24325 12.9942 7.63214 11.9342 7.63214 10.7338C7.63214 10.0991 7.80233 9.50433 8.10032 8.99315C9.80647 11.0875 12.3575 12.4648 15.2332 12.6102C15.1738 12.3564 15.1442 12.0929 15.1442 11.821C15.1442 9.91012 16.6934 8.36023 18.6043 8.36023C19.6 8.36023 20.4982 8.78056 21.1305 9.45284C21.9197 9.2978 22.6586 9.01071 23.3291 8.61279C23.0687 9.42135 22.5217 10.0991 21.8052 10.5279C22.506 10.4443 23.1746 10.259 23.793 9.98341C23.3315 10.6763 22.7446 11.2862 22.0681 11.7725Z" fill="#54C4FC"/>
<path d="M129.634 30.2501C137.94 30.2501 144.67 23.5201 144.67 15.2139C144.67 6.90767 137.94 0.177734 129.634 0.177734C121.328 0.177734 114.598 6.90767 114.598 15.2139C114.598 23.5201 121.328 30.2501 129.634 30.2501ZM121.478 14.8881L135.975 9.29842C136.648 9.05534 137.236 9.46257 137.018 10.48L137.019 10.4788L134.551 22.108C134.368 22.9325 133.878 23.133 133.192 22.7445L129.433 19.9741L127.62 21.7208C127.42 21.9213 127.251 22.0904 126.862 22.0904L127.129 18.265L134.096 11.9711C134.399 11.7042 134.028 11.5539 133.628 11.8195L125.019 17.24L121.308 16.0822C120.502 15.8266 120.484 15.2766 121.478 14.8881Z" fill="#54C4FC"/>
</svg>
