<svg width="141" height="30" viewBox="0 0 141 30" fill="none" xmlns="http://www.w3.org/2000/svg">
<path d="M70.1994 0.404297C62.1735 0.404297 55.644 6.93379 55.644 14.9596C55.644 22.9855 62.1735 29.515 70.1994 29.515C78.2252 29.515 84.7547 22.9855 84.7547 14.9596C84.7547 6.93379 78.2252 0.404297 70.1994 0.404297ZM69.2561 19.8115L67.9334 21.1342C67.2158 21.8518 66.2739 22.2109 65.3338 22.2109C64.4004 22.211 63.4688 21.8569 62.7601 21.1483C62.0727 20.4609 61.696 19.5425 61.6993 18.5623C61.7026 17.5837 62.0843 16.6648 62.7742 15.975L66.1318 12.6173C66.8216 11.9275 67.7405 11.5457 68.7191 11.5425C68.7232 11.5425 68.7275 11.5424 68.7317 11.5424C69.7073 11.5424 70.6207 11.9189 71.3051 12.6033C71.8073 13.1055 72.1483 13.7399 72.2912 14.438C72.3667 14.8071 72.1287 15.1676 71.7595 15.2432C71.3903 15.3191 71.0299 15.0808 70.9543 14.7116C70.8652 14.2762 70.6528 13.8808 70.3402 13.5682C69.9137 13.1416 69.3427 12.9071 68.7316 12.9071C68.7289 12.9071 68.7263 12.9071 68.7236 12.9071C68.1078 12.9091 67.53 13.1489 67.0967 13.5822L63.739 16.9399C63.3057 17.3733 63.0659 17.9511 63.0639 18.5668C63.0618 19.1809 63.2966 19.755 63.725 20.1834C64.1515 20.61 64.7225 20.8446 65.3336 20.8446H65.3416C65.9574 20.8425 66.5352 20.6027 66.9685 20.1694L68.2912 18.8467C68.5576 18.5802 68.9897 18.5802 69.2561 18.8467C69.5226 19.113 69.5226 19.545 69.2561 19.8115ZM77.6346 13.9345L74.2993 17.2697C73.5881 17.9809 72.6539 18.3365 71.7196 18.3365C70.7854 18.3365 69.8513 17.981 69.14 17.2697C68.6383 16.768 68.2967 16.1351 68.1521 15.4394C68.0754 15.0705 68.3123 14.7092 68.6813 14.6325C69.05 14.5558 69.4114 14.7927 69.4881 15.1617C69.5785 15.5964 69.7918 15.9918 70.105 16.3049C70.9953 17.1953 72.444 17.1951 73.3344 16.3049L76.6696 12.9696C77.56 12.0792 77.56 10.6305 76.6696 9.74013C76.2407 9.31115 75.6672 9.07491 75.0549 9.07491C74.4426 9.07491 73.8692 9.31115 73.4402 9.74013L72.1263 11.054C71.8598 11.3205 71.4279 11.3205 71.1614 11.054C70.895 10.7875 70.8949 10.3556 71.1614 10.0891L72.4753 8.77521C73.162 8.0885 74.0782 7.71029 75.0549 7.71029C76.0317 7.71029 76.9478 8.0885 77.6346 8.77521C79.0569 10.1976 79.0569 12.512 77.6346 13.9345Z" fill="#54C4FC"/>
<path d="M14.8889 0.402344C6.86337 0.402344 0.333984 6.93173 0.333984 14.9573C0.333984 22.9823 6.86337 29.5122 14.8889 29.5122C22.9139 29.5122 29.4439 22.9823 29.4439 14.9573C29.4439 6.93173 22.9151 0.402344 14.8889 0.402344ZM21.382 11.6261C21.3884 11.7703 21.3919 11.9157 21.3919 12.0611C21.3919 16.4881 18.0232 21.591 11.8596 21.591C9.96771 21.591 8.20653 21.0382 6.72442 20.0872C6.98649 20.1183 7.25324 20.1341 7.52352 20.1341C9.09357 20.1341 10.5376 19.5983 11.6843 18.7001C10.2186 18.6731 8.98101 17.7046 8.55478 16.3732C8.75881 16.4118 8.96928 16.4335 9.18444 16.4335C9.4899 16.4335 9.78655 16.3937 10.0674 16.3169C8.53485 16.0097 7.38047 14.6559 7.38047 13.032C7.38047 13.0179 7.38047 13.0032 7.38105 12.9897C7.83249 13.2401 8.349 13.3913 8.89775 13.4083C7.99958 12.8086 7.40802 11.7826 7.40802 10.6206C7.40802 10.0062 7.57276 9.43045 7.86121 8.93563C9.51276 10.963 11.9822 12.2962 14.7658 12.4369C14.7084 12.1912 14.6796 11.9362 14.6796 11.673C14.6796 9.82325 16.1793 8.32297 18.029 8.32297C18.9929 8.32297 19.8623 8.72984 20.4744 9.38061C21.2383 9.23053 21.9536 8.95263 22.6026 8.56744C22.3505 9.35013 21.8211 10.0062 21.1275 10.4213C21.8058 10.3404 22.4531 10.1609 23.0517 9.89419C22.6049 10.5649 22.0368 11.1553 21.382 11.6261Z" fill="#54C4FC"/>
<path d="M125.507 29.5142C133.547 29.5142 140.062 22.9996 140.062 14.9592C140.062 6.91885 133.547 0.404297 125.507 0.404297C117.466 0.404297 110.952 6.91885 110.952 14.9592C110.952 22.9996 117.466 29.5142 125.507 29.5142ZM117.612 14.6439L131.645 9.23309C132.296 8.99778 132.865 9.39198 132.654 10.3769L132.656 10.3756L130.266 21.6327C130.089 22.4308 129.615 22.6249 128.951 22.2488L125.313 19.5671L123.557 21.2579C123.363 21.452 123.2 21.6157 122.824 21.6157L123.082 17.9127L129.826 11.8202C130.119 11.5619 129.76 11.4163 129.373 11.6735L121.039 16.9205L117.447 15.7998C116.667 15.5524 116.65 15.0199 117.612 14.6439Z" fill="#54C4FC"/>
</svg>
