<svg width="141" height="31" viewBox="0 0 141 31" fill="none" xmlns="http://www.w3.org/2000/svg">
<path d="M70.1989 0.964844C62.173 0.964844 55.6436 7.49434 55.6436 15.5202C55.6436 23.546 62.173 30.0755 70.1989 30.0755C78.2247 30.0755 84.7542 23.546 84.7542 15.5202C84.7542 7.49434 78.2247 0.964844 70.1989 0.964844ZM69.2556 20.372L67.9329 21.6947C67.2153 22.4123 66.2734 22.7715 65.3333 22.7715C64.3999 22.7715 63.4683 22.4175 62.7596 21.7088C62.0722 21.0215 61.6955 20.1031 61.6988 19.1228C61.7021 18.1442 62.0838 17.2254 62.7737 16.5355L66.1313 13.1779C66.8212 12.488 67.74 12.1063 68.7186 12.103C68.7227 12.103 68.727 12.103 68.7313 12.103C69.7068 12.103 70.6202 12.4794 71.3046 13.1638C71.8068 13.666 72.1478 14.3004 72.2907 14.9985C72.3662 15.3676 72.1282 15.7282 71.7591 15.8037C71.3898 15.8797 71.0294 15.6414 70.9538 15.2721C70.8647 14.8368 70.6523 14.4414 70.3397 14.1287C69.9132 13.7022 69.3422 13.4676 68.7311 13.4676C68.7284 13.4676 68.7258 13.4676 68.7231 13.4676C68.1073 13.4697 67.5295 13.7094 67.0962 14.1428L63.7385 17.5005C63.3052 17.9338 63.0654 18.5116 63.0634 19.1274C63.0613 19.7415 63.2961 20.3156 63.7245 20.744C64.151 21.1705 64.722 21.4051 65.3331 21.4051H65.3411C65.9569 21.4031 66.5347 21.1633 66.968 20.7299L68.2907 19.4072C68.5572 19.1408 68.9892 19.1407 69.2556 19.4072C69.5221 19.6736 69.5221 20.1055 69.2556 20.372ZM77.6341 14.495L74.2988 17.8303C73.5876 18.5414 72.6534 18.8971 71.7191 18.8971C70.7849 18.8971 69.8508 18.5415 69.1395 17.8303C68.6378 17.3286 68.2962 16.6956 68.1516 15.9999C68.0749 15.6311 68.3118 15.2697 68.6808 15.1931C69.0495 15.1163 69.4109 15.3533 69.4876 15.7223C69.578 16.157 69.7913 16.5523 70.1045 16.8654C70.9948 17.7558 72.4436 17.7556 73.3339 16.8654L76.6692 13.5301C77.5595 12.6398 77.5595 11.1911 76.6692 10.3007C76.2402 9.87169 75.6667 9.63545 75.0544 9.63545C74.4421 9.63545 73.8687 9.87169 73.4397 10.3007L72.1258 11.6146C71.8593 11.881 71.4274 11.881 71.1609 11.6146C70.8945 11.3481 70.8944 10.9162 71.1609 10.6497L72.4748 9.33576C73.1615 8.64904 74.0777 8.27083 75.0544 8.27083C76.0312 8.27083 76.9473 8.64904 77.6341 9.33576C79.0565 10.7581 79.0565 13.0726 77.6341 14.495Z" fill="#54C4FC"/>
<path d="M14.8884 0.962891C6.86288 0.962891 0.333496 7.49227 0.333496 15.5178C0.333496 23.5428 6.86288 30.0728 14.8884 30.0728C22.9134 30.0728 29.4434 23.5428 29.4434 15.5178C29.4434 7.49227 22.9146 0.962891 14.8884 0.962891ZM21.3815 12.1866C21.3879 12.3308 21.3914 12.4762 21.3914 12.6216C21.3914 17.0486 18.0227 22.1516 11.8591 22.1516C9.96723 22.1516 8.20604 21.5987 6.72393 20.6478C6.986 20.6789 7.25275 20.6947 7.52303 20.6947C9.09308 20.6947 10.5371 20.1588 11.6838 19.2606C10.2182 19.2337 8.98052 18.2651 8.55429 16.9337C8.75832 16.9724 8.96879 16.9941 9.18396 16.9941C9.48941 16.9941 9.78606 16.9542 10.0669 16.8774C8.53436 16.5702 7.37998 15.2165 7.37998 13.5925C7.37998 13.5784 7.37998 13.5638 7.38056 13.5503C7.832 13.8006 8.34851 13.9519 8.89727 13.9689C7.99909 13.3691 7.40753 12.3431 7.40753 11.1811C7.40753 10.5667 7.57228 9.99099 7.86073 9.49617C9.51227 11.5235 11.9817 12.8567 14.7653 12.9974C14.7079 12.7518 14.6791 12.4967 14.6791 12.2335C14.6791 10.3838 16.1788 8.88351 18.0286 8.88351C18.9924 8.88351 19.8618 9.29039 20.4739 9.94116C21.2378 9.79107 21.9531 9.51318 22.6021 9.12799C22.35 9.91067 21.8206 10.5667 21.127 10.9818C21.8054 10.9009 22.4526 10.7215 23.0512 10.4547C22.6045 11.1254 22.0364 11.7158 21.3815 12.1866Z" fill="#54C4FC"/>
<path d="M125.506 30.0747C133.547 30.0747 140.061 23.5602 140.061 15.5198C140.061 7.4794 133.547 0.964844 125.506 0.964844C117.466 0.964844 110.951 7.4794 110.951 15.5198C110.951 23.5602 117.466 30.0747 125.506 30.0747ZM117.611 15.2044L131.645 9.79363C132.296 9.55833 132.865 9.95253 132.654 10.9374L132.655 10.9362L130.266 22.1932C130.089 22.9913 129.614 23.1854 128.951 22.8094L125.312 20.1276L123.557 21.8184C123.363 22.0125 123.199 22.1763 122.823 22.1763L123.082 18.4732L129.825 12.3808C130.119 12.1224 129.76 11.9769 129.373 12.234L121.039 17.4811L117.446 16.3603C116.666 16.1129 116.649 15.5804 117.611 15.2044Z" fill="#54C4FC"/>
</svg>
