<svg width="141" height="31" viewBox="0 0 141 31" fill="none" xmlns="http://www.w3.org/2000/svg">
<path d="M70.1994 0.964844C62.1735 0.964844 55.644 7.49434 55.644 15.5202C55.644 23.546 62.1735 30.0755 70.1994 30.0755C78.2252 30.0755 84.7547 23.546 84.7547 15.5202C84.7547 7.49434 78.2252 0.964844 70.1994 0.964844ZM69.2561 20.372L67.9334 21.6947C67.2158 22.4123 66.2739 22.7715 65.3338 22.7715C64.4004 22.7715 63.4688 22.4175 62.7601 21.7088C62.0727 21.0215 61.696 20.1031 61.6993 19.1228C61.7026 18.1442 62.0843 17.2254 62.7742 16.5355L66.1318 13.1779C66.8216 12.488 67.7405 12.1063 68.7191 12.103C68.7232 12.103 68.7275 12.103 68.7317 12.103C69.7073 12.103 70.6207 12.4794 71.3051 13.1638C71.8073 13.666 72.1483 14.3004 72.2912 14.9985C72.3667 15.3676 72.1287 15.7282 71.7595 15.8037C71.3903 15.8797 71.0299 15.6414 70.9543 15.2721C70.8652 14.8368 70.6528 14.4414 70.3402 14.1287C69.9137 13.7022 69.3427 13.4676 68.7316 13.4676C68.7289 13.4676 68.7263 13.4676 68.7236 13.4676C68.1078 13.4697 67.53 13.7094 67.0967 14.1428L63.739 17.5005C63.3057 17.9338 63.0659 18.5116 63.0639 19.1274C63.0618 19.7415 63.2966 20.3156 63.725 20.744C64.1515 21.1705 64.7225 21.4051 65.3336 21.4051H65.3416C65.9574 21.4031 66.5352 21.1633 66.9685 20.7299L68.2912 19.4072C68.5576 19.1408 68.9897 19.1407 69.2561 19.4072C69.5226 19.6736 69.5226 20.1055 69.2561 20.372ZM77.6346 14.495L74.2993 17.8303C73.5881 18.5414 72.6539 18.8971 71.7196 18.8971C70.7854 18.8971 69.8513 18.5415 69.14 17.8303C68.6383 17.3286 68.2967 16.6956 68.1521 15.9999C68.0754 15.6311 68.3123 15.2697 68.6813 15.1931C69.05 15.1163 69.4114 15.3533 69.4881 15.7223C69.5785 16.157 69.7918 16.5523 70.105 16.8654C70.9953 17.7558 72.444 17.7556 73.3344 16.8654L76.6696 13.5301C77.56 12.6398 77.56 11.1911 76.6696 10.3007C76.2407 9.87169 75.6672 9.63545 75.0549 9.63545C74.4426 9.63545 73.8692 9.87169 73.4402 10.3007L72.1263 11.6146C71.8598 11.881 71.4279 11.881 71.1614 11.6146C70.895 11.3481 70.8949 10.9162 71.1614 10.6497L72.4753 9.33576C73.162 8.64904 74.0782 8.27083 75.0549 8.27083C76.0317 8.27083 76.9478 8.64904 77.6346 9.33576C79.0569 10.7581 79.0569 13.0726 77.6346 14.495Z" fill="#54C4FC"/>
<path d="M14.8889 0.962891C6.86337 0.962891 0.333984 7.49227 0.333984 15.5178C0.333984 23.5428 6.86337 30.0728 14.8889 30.0728C22.9139 30.0728 29.4439 23.5428 29.4439 15.5178C29.4439 7.49227 22.9151 0.962891 14.8889 0.962891ZM21.382 12.1866C21.3884 12.3308 21.3919 12.4762 21.3919 12.6216C21.3919 17.0486 18.0232 22.1516 11.8596 22.1516C9.96771 22.1516 8.20653 21.5987 6.72442 20.6478C6.98649 20.6789 7.25324 20.6947 7.52352 20.6947C9.09357 20.6947 10.5376 20.1588 11.6843 19.2606C10.2186 19.2337 8.98101 18.2651 8.55478 16.9337C8.75881 16.9724 8.96928 16.9941 9.18444 16.9941C9.4899 16.9941 9.78655 16.9542 10.0674 16.8774C8.53485 16.5702 7.38047 15.2165 7.38047 13.5925C7.38047 13.5784 7.38047 13.5638 7.38105 13.5503C7.83249 13.8006 8.349 13.9519 8.89775 13.9689C7.99958 13.3691 7.40802 12.3431 7.40802 11.1811C7.40802 10.5667 7.57276 9.99099 7.86121 9.49617C9.51276 11.5235 11.9822 12.8567 14.7658 12.9974C14.7084 12.7518 14.6796 12.4967 14.6796 12.2335C14.6796 10.3838 16.1793 8.88351 18.029 8.88351C18.9929 8.88351 19.8623 9.29039 20.4744 9.94116C21.2383 9.79107 21.9536 9.51318 22.6026 9.12799C22.3505 9.91067 21.8211 10.5667 21.1275 10.9818C21.8058 10.9009 22.4531 10.7215 23.0517 10.4547C22.6049 11.1254 22.0368 11.7158 21.382 12.1866Z" fill="#54C4FC"/>
<path d="M125.507 30.0747C133.547 30.0747 140.062 23.5602 140.062 15.5198C140.062 7.4794 133.547 0.964844 125.507 0.964844C117.466 0.964844 110.952 7.4794 110.952 15.5198C110.952 23.5602 117.466 30.0747 125.507 30.0747ZM117.612 15.2044L131.645 9.79363C132.296 9.55833 132.865 9.95253 132.654 10.9374L132.656 10.9362L130.266 22.1932C130.089 22.9913 129.615 23.1854 128.951 22.8094L125.313 20.1276L123.557 21.8184C123.363 22.0125 123.2 22.1763 122.824 22.1763L123.082 18.4732L129.826 12.3808C130.119 12.1224 129.76 11.9769 129.373 12.234L121.039 17.4811L117.447 16.3603C116.667 16.1129 116.65 15.5804 117.612 15.2044Z" fill="#54C4FC"/>
</svg>
