<svg width="145" height="31" viewBox="0 0 145 31" fill="none" xmlns="http://www.w3.org/2000/svg">
<path d="M72.5787 0.28125C64.3547 0.28125 57.6641 6.97194 57.6641 15.1959C57.6641 23.4199 64.3547 30.1106 72.5787 30.1106C80.8027 30.1106 87.4933 23.4199 87.4933 15.1959C87.4933 6.97194 80.8027 0.28125 72.5787 0.28125ZM71.6122 20.1675L70.2568 21.5229C69.5215 22.2582 68.5563 22.6262 67.593 22.6262C66.6366 22.6263 65.682 22.2635 64.9558 21.5373C64.2515 20.833 63.8654 19.8919 63.8688 18.8875C63.8722 17.8848 64.2633 16.9432 64.9702 16.2363L68.4107 12.7958C69.1176 12.0889 70.0591 11.6977 71.0619 11.6944C71.0661 11.6944 71.0705 11.6944 71.0749 11.6944C72.0745 11.6944 73.0104 12.0801 73.7117 12.7814C74.2263 13.296 74.5757 13.9461 74.7221 14.6614C74.7996 15.0396 74.5557 15.409 74.1774 15.4865C73.7991 15.5643 73.4297 15.3201 73.3523 14.9417C73.261 14.4956 73.0434 14.0905 72.723 13.7701C72.286 13.333 71.7009 13.0927 71.0747 13.0927C71.0719 13.0927 71.0693 13.0927 71.0665 13.0927C70.4355 13.0948 69.8435 13.3404 69.3994 13.7845L65.9589 17.2251C65.5148 17.6691 65.2691 18.2612 65.267 18.8921C65.265 19.5214 65.5055 20.1097 65.9445 20.5487C66.3816 20.9857 66.9666 21.2261 67.5928 21.2261H67.601C68.232 21.224 68.8241 20.9783 69.2681 20.5343L70.6235 19.1789C70.8965 18.9059 71.3392 18.9058 71.6122 19.1789C71.8852 19.4518 71.8852 19.8944 71.6122 20.1675ZM80.1974 14.1454L76.7798 17.563C76.0511 18.2918 75.0938 18.6562 74.1365 18.6562C73.1792 18.6562 72.222 18.2918 71.4932 17.563C70.9791 17.049 70.629 16.4004 70.4809 15.6875C70.4023 15.3095 70.6451 14.9393 71.0231 14.8607C71.4009 14.7821 71.7713 15.0249 71.8499 15.403C71.9425 15.8484 72.1611 16.2535 72.482 16.5744C73.3943 17.4867 74.8788 17.4865 75.7911 16.5744L79.2087 13.1567C80.1211 12.2444 80.1211 10.7599 79.2087 9.84755C78.7691 9.40798 78.1815 9.16591 77.5541 9.16591C76.9267 9.16591 76.3392 9.40798 75.8996 9.84755L74.5532 11.1939C74.2802 11.4669 73.8376 11.4669 73.5645 11.1939C73.2915 10.9208 73.2914 10.4782 73.5645 10.2052L74.9108 8.85882C75.6145 8.15515 76.5533 7.7676 77.5541 7.7676C78.555 7.7676 79.4937 8.15515 80.1974 8.85882C81.6549 10.3163 81.6549 12.6879 80.1974 14.1454Z" fill="#54C4FC"/>
<path d="M15.9045 0.279297C7.68081 0.279297 0.990234 6.96987 0.990234 15.1936C0.990234 23.4166 7.68081 30.1078 15.9045 30.1078C24.1276 30.1078 30.8188 23.4166 30.8188 15.1936C30.8188 6.96987 24.1288 0.279297 15.9045 0.279297ZM22.5578 11.7801C22.5644 11.9279 22.568 12.0769 22.568 12.2258C22.568 16.7621 19.1161 21.9911 12.8004 21.9911C10.8618 21.9911 9.05713 21.4246 7.53843 20.4501C7.80696 20.482 8.08031 20.4982 8.35725 20.4982C9.96607 20.4982 11.4457 19.9491 12.6208 19.0288C11.1189 19.0011 9.85072 18.0087 9.41397 16.6444C9.62304 16.684 9.83871 16.7063 10.0592 16.7063C10.3722 16.7063 10.6762 16.6654 10.9639 16.5867C9.39355 16.2719 8.21067 14.8848 8.21067 13.2207C8.21067 13.2063 8.21067 13.1913 8.21127 13.1774C8.67385 13.434 9.20311 13.589 9.76541 13.6064C8.84506 12.9918 8.2389 11.9405 8.2389 10.7498C8.2389 10.1202 8.40772 9.53027 8.70329 9.02324C10.3956 11.1006 12.926 12.4667 15.7783 12.6109C15.7195 12.3592 15.69 12.0979 15.69 11.8281C15.69 9.93278 17.2267 8.39545 19.1221 8.39545C20.1098 8.39545 21.0007 8.81237 21.6279 9.47921C22.4106 9.32542 23.1436 9.04066 23.8086 8.64597C23.5503 9.44797 23.0078 10.1202 22.2971 10.5455C22.9922 10.4626 23.6554 10.2788 24.2688 10.0055C23.811 10.6927 23.2289 11.2977 22.5578 11.7801Z" fill="#54C4FC"/>
<path d="M129.252 30.1098C137.491 30.1098 144.166 23.4344 144.166 15.1955C144.166 6.95662 137.491 0.28125 129.252 0.28125C121.013 0.28125 114.338 6.95662 114.338 15.1955C114.338 23.4344 121.013 30.1098 129.252 30.1098ZM121.162 14.8724L135.542 9.32799C136.21 9.08688 136.793 9.49081 136.576 10.5L136.578 10.4988L134.129 22.0337C133.948 22.8515 133.462 23.0504 132.782 22.6651L129.053 19.9171L127.255 21.6497C127.056 21.8485 126.888 22.0163 126.503 22.0163L126.768 18.2219L133.678 11.979C133.979 11.7143 133.611 11.5651 133.214 11.8286L124.675 17.2052L120.993 16.0568C120.194 15.8033 120.177 15.2577 121.162 14.8724Z" fill="#54C4FC"/>
</svg>
