<svg width="141" height="30" viewBox="0 0 141 30" fill="none" xmlns="http://www.w3.org/2000/svg">
<path d="M70.1994 0.722656C62.1735 0.722656 55.644 7.25215 55.644 15.278C55.644 23.3039 62.1735 29.8334 70.1994 29.8334C78.2252 29.8334 84.7547 23.3039 84.7547 15.278C84.7547 7.25215 78.2252 0.722656 70.1994 0.722656ZM69.2561 20.1298L67.9334 21.4525C67.2158 22.1701 66.2739 22.5293 65.3338 22.5293C64.4004 22.5294 63.4688 22.1753 62.7601 21.4666C62.0727 20.7793 61.696 19.8609 61.6993 18.8806C61.7026 17.9021 62.0843 16.9832 62.7742 16.2934L66.1318 12.9357C66.8216 12.2458 67.7405 11.8641 68.7191 11.8609C68.7232 11.8609 68.7275 11.8608 68.7317 11.8608C69.7073 11.8608 70.6207 12.2372 71.3051 12.9216C71.8073 13.4238 72.1483 14.0583 72.2912 14.7563C72.3667 15.1255 72.1287 15.486 71.7595 15.5615C71.3903 15.6375 71.0299 15.3992 70.9543 15.0299C70.8652 14.5946 70.6528 14.1992 70.3402 13.8865C69.9137 13.46 69.3427 13.2254 68.7316 13.2254C68.7289 13.2254 68.7263 13.2254 68.7236 13.2254C68.1078 13.2275 67.53 13.4672 67.0967 13.9006L63.739 17.2583C63.3057 17.6916 63.0659 18.2694 63.0639 18.8852C63.0618 19.4993 63.2966 20.0734 63.725 20.5018C64.1515 20.9283 64.7225 21.1629 65.3336 21.1629H65.3416C65.9574 21.1609 66.5352 20.9211 66.9685 20.4877L68.2912 19.165C68.5576 18.8986 68.9897 18.8985 69.2561 19.165C69.5226 19.4314 69.5226 19.8633 69.2561 20.1298ZM77.6346 14.2528L74.2993 17.5881C73.5881 18.2993 72.6539 18.6549 71.7196 18.6549C70.7854 18.6549 69.8513 18.2993 69.14 17.5881C68.6383 17.0864 68.2967 16.4535 68.1521 15.7578C68.0754 15.3889 68.3123 15.0275 68.6813 14.9509C69.05 14.8741 69.4114 15.1111 69.4881 15.4801C69.5785 15.9148 69.7918 16.3101 70.105 16.6232C70.9953 17.5136 72.444 17.5134 73.3344 16.6232L76.6696 13.288C77.56 12.3976 77.56 10.9489 76.6696 10.0585C76.2407 9.62951 75.6672 9.39326 75.0549 9.39326C74.4426 9.39326 73.8692 9.62951 73.4402 10.0585L72.1263 11.3724C71.8598 11.6388 71.4279 11.6388 71.1614 11.3724C70.895 11.1059 70.8949 10.674 71.1614 10.4075L72.4753 9.09357C73.162 8.40686 74.0782 8.02864 75.0549 8.02864C76.0317 8.02864 76.9478 8.40686 77.6346 9.09357C79.0569 10.516 79.0569 12.8304 77.6346 14.2528Z" fill="#54C4FC"/>
<path d="M14.8889 0.720703C6.86337 0.720703 0.333984 7.25009 0.333984 15.2757C0.333984 23.3006 6.86337 29.8306 14.8889 29.8306C22.9139 29.8306 29.4439 23.3006 29.4439 15.2757C29.4439 7.25009 22.9151 0.720703 14.8889 0.720703ZM21.382 11.9444C21.3884 12.0886 21.3919 12.234 21.3919 12.3794C21.3919 16.8064 18.0232 21.9094 11.8596 21.9094C9.96771 21.9094 8.20653 21.3565 6.72442 20.4056C6.98649 20.4367 7.25324 20.4525 7.52352 20.4525C9.09357 20.4525 10.5376 19.9166 11.6843 19.0185C10.2186 18.9915 8.98101 18.023 8.55478 16.6915C8.75881 16.7302 8.96928 16.7519 9.18444 16.7519C9.4899 16.7519 9.78655 16.712 10.0674 16.6352C8.53485 16.328 7.38047 14.9743 7.38047 13.3503C7.38047 13.3362 7.38047 13.3216 7.38105 13.3081C7.83249 13.5584 8.349 13.7097 8.89775 13.7267C7.99958 13.1269 7.40802 12.101 7.40802 10.939C7.40802 10.3245 7.57276 9.74881 7.86121 9.25399C9.51276 11.2813 11.9822 12.6145 14.7658 12.7552C14.7084 12.5096 14.6796 12.2546 14.6796 11.9913C14.6796 10.1416 16.1793 8.64133 18.029 8.64133C18.9929 8.64133 19.8623 9.0482 20.4744 9.69897C21.2383 9.54888 21.9536 9.27099 22.6026 8.8858C22.3505 9.66849 21.8211 10.3245 21.1275 10.7396C21.8058 10.6587 22.4531 10.4793 23.0517 10.2126C22.6049 10.8833 22.0368 11.4736 21.382 11.9444Z" fill="#54C4FC"/>
<path d="M125.507 29.8326C133.547 29.8326 140.062 23.318 140.062 15.2776C140.062 7.23721 133.547 0.722656 125.507 0.722656C117.466 0.722656 110.952 7.23721 110.952 15.2776C110.952 23.318 117.466 29.8326 125.507 29.8326ZM117.612 14.9622L131.645 9.55145C132.296 9.31614 132.865 9.71034 132.654 10.6952L132.656 10.694L130.266 21.9511C130.089 22.7491 129.615 22.9432 128.951 22.5672L125.313 19.8855L123.557 21.5763C123.363 21.7703 123.2 21.9341 122.824 21.9341L123.082 18.231L129.826 12.1386C130.119 11.8802 129.76 11.7347 129.373 11.9918L121.039 17.2389L117.447 16.1182C116.667 15.8707 116.65 15.3383 117.612 14.9622Z" fill="#54C4FC"/>
</svg>
