<svg width="71" height="26" viewBox="0 0 71 26" fill="none" xmlns="http://www.w3.org/2000/svg">
<path d="M57.8277 0.710938C51.1116 0.710938 45.6479 6.17457 45.6479 12.8907C45.6479 19.6069 51.1116 25.0705 57.8277 25.0705C64.5439 25.0705 70.0075 19.6069 70.0075 12.8907C70.0075 6.17457 64.5439 0.710938 57.8277 0.710938ZM61.5903 13.6083L56.5154 18.6832C56.3174 18.8811 56.0576 18.9806 55.7977 18.9806C55.5379 18.9806 55.2781 18.8811 55.0801 18.6832C54.6833 18.2864 54.6833 17.6449 55.0801 17.248L59.4375 12.8907L55.0802 8.5334C54.6833 8.13656 54.6833 7.49507 55.0802 7.09823C55.477 6.70139 56.1185 6.70139 56.5154 7.09823L61.5903 12.1732C61.9871 12.57 61.9871 13.2114 61.5903 13.6083Z" fill="url(#paint0_linear_876_16421)"/>
<path d="M12.8568 25.0664C19.573 25.0664 25.0366 19.6028 25.0366 12.8866C25.0366 6.17048 19.573 0.706855 12.8568 0.706855C6.1407 0.706854 0.677072 6.17048 0.677072 12.8866C0.677071 19.6028 6.1407 25.0664 12.8568 25.0664ZM9.09429 12.169L14.1692 7.09415C14.3671 6.89623 14.627 6.79674 14.8868 6.79674C15.1466 6.79674 15.4065 6.89623 15.6044 7.09415C16.0013 7.49099 16.0013 8.13247 15.6044 8.52932L11.2471 12.8866L15.6044 17.2439C16.0012 17.6408 16.0012 18.2823 15.6044 18.6791C15.2075 19.076 14.5661 19.076 14.1692 18.6791L9.09429 13.6042C8.69745 13.2073 8.69745 12.5659 9.09429 12.169Z" fill="url(#paint1_linear_876_16421)"/>
<defs>
<linearGradient id="paint0_linear_876_16421" x1="57.8277" y1="0.710937" x2="57.8277" y2="25.0705" gradientUnits="userSpaceOnUse">
<stop stop-color="#54C4FC"/>
<stop offset="1" stop-color="#2378DE"/>
</linearGradient>
<linearGradient id="paint1_linear_876_16421" x1="12.8568" y1="25.0664" x2="12.8568" y2="0.706855" gradientUnits="userSpaceOnUse">
<stop stop-color="#54C4FC"/>
<stop offset="1" stop-color="#2378DE"/>
</linearGradient>
</defs>
</svg>
