<svg width="24" height="13" viewBox="0 0 24 13" fill="none" xmlns="http://www.w3.org/2000/svg">
<path d="M23.8206 5.85908C23.6063 5.62011 18.4537 0 11.9999 0C5.54612 0 0.393488 5.62011 0.179225 5.85908C-0.0597415 6.12617 -0.0597415 6.52995 0.179225 6.79704C0.393488 7.036 5.54621 12.6561 11.9999 12.6561C18.4536 12.6561 23.6063 7.036 23.8206 6.79704C24.0595 6.52995 24.0595 6.12617 23.8206 5.85908ZM11.9999 11.2499C9.28628 11.2499 7.07807 9.04167 7.07807 6.32806C7.07807 3.61445 9.28628 1.40623 11.9999 1.40623C14.7135 1.40623 16.9217 3.61445 16.9217 6.32806C16.9217 9.04167 14.7135 11.2499 11.9999 11.2499Z" fill="#54C4FC"/>
<path d="M12.7031 4.92185C12.7031 4.21452 13.0542 3.59226 13.5884 3.20953C13.1091 2.96414 12.5744 2.8125 12 2.8125C10.0616 2.8125 8.48438 4.38969 8.48438 6.32809C8.48438 8.26649 10.0616 9.84367 12 9.84367C13.7354 9.84367 15.1719 8.57647 15.4556 6.92067C14.0398 7.37653 12.7031 6.30568 12.7031 4.92185Z" fill="#54C4FC"/>
</svg>
