<svg width="32" height="33" viewBox="0 0 32 33" fill="none" xmlns="http://www.w3.org/2000/svg">
<path d="M31.9621 2.47414C31.894 1.20337 30.8995 0.192837 29.649 0.123482C27.1259 -0.0166041 22.1885 0.119671 17.4673 2.60129C15.0605 3.86644 12.5151 6.0114 10.4838 8.48621C10.4588 8.5167 10.4344 8.54738 10.4096 8.57794L5.79955 8.93983C5.04073 8.99944 4.36484 9.40364 3.94515 10.0487L0.800034 14.8831C0.481734 15.3724 0.431134 15.9846 0.664586 16.5209C0.8981 17.0573 1.37792 17.431 1.94817 17.5208L5.83214 18.1321C5.81843 18.2089 5.80466 18.2855 5.79205 18.3623C5.66275 19.1483 5.91902 19.9564 6.47765 20.5241L11.8877 26.0221C12.3509 26.4928 12.9767 26.7523 13.618 26.7523C13.75 26.7523 13.8828 26.7412 14.015 26.7188C14.0905 26.706 14.166 26.692 14.2415 26.6781L14.843 30.6252C14.9314 31.2048 15.2992 31.6924 15.8268 31.9297C16.0464 32.0284 16.2787 32.0771 16.51 32.0771C16.8348 32.0771 17.1574 31.981 17.4385 31.7921L22.1956 28.5958C22.8304 28.1692 23.2281 27.4823 23.2866 26.7113L23.6427 22.0264C23.6728 22.0011 23.703 21.9764 23.733 21.951C26.1683 19.8866 28.279 17.2998 29.5239 14.8539C31.966 10.0558 32.0998 5.03811 31.9621 2.47414ZM21.1783 27.0321L16.6279 30.0896L16.0416 26.2428C17.9648 25.6682 19.8673 24.7478 21.6797 23.5148L21.4477 26.5668C21.4333 26.7572 21.335 26.9268 21.1783 27.0321ZM13.1919 24.6967L7.78184 19.1987C7.64381 19.0583 7.57999 18.8612 7.61128 18.6713C7.77212 17.6939 8.02205 16.7635 8.33144 15.887L16.449 24.1364C15.4131 24.5135 14.4852 24.7384 13.7109 24.87C13.5237 24.9016 13.33 24.837 13.1919 24.6967ZM5.94164 10.8088L8.94473 10.573C7.73142 12.4149 6.82577 14.3483 6.26031 16.3028L2.47515 15.707L5.48377 11.0825C5.58744 10.9232 5.75436 10.8234 5.94164 10.8088ZM22.5517 20.5114C21.0618 21.7744 19.6155 22.6879 18.2824 23.3489L9.10779 14.0252C9.95982 12.2567 10.9997 10.784 11.9002 9.68694C13.78 7.39664 16.1181 5.42088 18.3148 4.2662C22.6478 1.98852 27.213 1.86587 29.5486 1.99508C29.8577 2.0122 30.1036 2.26207 30.1205 2.5763C30.2478 4.94989 30.1269 9.58922 27.8856 13.9927C26.7495 16.2251 24.8053 18.601 22.5517 20.5114Z" fill="url(#paint0_linear_876_9432)"/>
<path d="M22.0838 14.8481C23.2644 14.848 24.4455 14.3913 25.3443 13.4778C26.2153 12.5928 26.6949 11.416 26.6949 10.1643C26.6949 8.91267 26.2152 7.73587 25.3443 6.85081C23.5464 5.02363 20.621 5.02375 18.8233 6.85081C17.9523 7.73587 17.4727 8.91267 17.4727 10.1643C17.4727 11.416 17.9524 12.5928 18.8233 13.4778C19.7223 14.3915 20.9028 14.8483 22.0838 14.8481ZM20.1274 8.17619C20.6667 7.62803 21.3752 7.35398 22.0837 7.35398C22.7922 7.35398 23.5007 7.62803 24.04 8.17619C24.5625 8.70722 24.8503 9.41328 24.8503 10.1643C24.8503 10.9152 24.5625 11.6213 24.04 12.1524C22.9613 13.2486 21.206 13.2486 20.1273 12.1524C19.6048 11.6213 19.317 10.9153 19.317 10.1643C19.317 9.41334 19.6048 8.70722 20.1274 8.17619Z" fill="url(#paint1_linear_876_9432)"/>
<path d="M1.45933 26.4501C1.69536 26.4501 1.9314 26.3586 2.11142 26.1755L5.12245 23.1156C5.48262 22.7496 5.48262 22.1562 5.12245 21.7901C4.76234 21.4241 4.17837 21.4241 3.8182 21.7901L0.807237 24.8501C0.447067 25.2161 0.447067 25.8095 0.807237 26.1755C0.98726 26.3586 1.22329 26.4501 1.45933 26.4501Z" fill="url(#paint2_linear_876_9432)"/>
<path d="M7.88281 24.5948C7.5227 24.2288 6.93873 24.2288 6.57856 24.5948L0.789658 30.4779C0.429489 30.8439 0.429489 31.4373 0.789658 31.8033C0.969743 31.9863 1.20572 32.0778 1.44175 32.0778C1.67779 32.0778 1.91382 31.9863 2.09384 31.8033L7.88275 25.9203C8.24298 25.5542 8.24298 24.9609 7.88281 24.5948Z" fill="url(#paint3_linear_876_9432)"/>
<path d="M9.33779 27.3995L6.32677 30.4595C5.9666 30.8255 5.9666 31.4189 6.32677 31.7849C6.50685 31.9679 6.74289 32.0595 6.97886 32.0595C7.21483 32.0595 7.45093 31.968 7.63095 31.7849L10.642 28.725C11.0021 28.3589 11.0021 27.7655 10.642 27.3995C10.2819 27.0335 9.6979 27.0335 9.33779 27.3995Z" fill="url(#paint4_linear_876_9432)"/>
<defs>
<linearGradient id="paint0_linear_876_9432" x1="16.2593" y1="0.0859375" x2="16.2593" y2="32.0771" gradientUnits="userSpaceOnUse">
<stop stop-color="#54C4FC"/>
<stop offset="1" stop-color="#2479DF"/>
</linearGradient>
<linearGradient id="paint1_linear_876_9432" x1="22.0838" y1="5.48047" x2="22.0838" y2="14.8481" gradientUnits="userSpaceOnUse">
<stop stop-color="#54C4FC"/>
<stop offset="1" stop-color="#2479DF"/>
</linearGradient>
<linearGradient id="paint2_linear_876_9432" x1="2.96484" y1="21.5156" x2="2.96484" y2="26.4501" gradientUnits="userSpaceOnUse">
<stop stop-color="#54C4FC"/>
<stop offset="1" stop-color="#2479DF"/>
</linearGradient>
<linearGradient id="paint3_linear_876_9432" x1="4.33623" y1="24.3203" x2="4.33623" y2="32.0778" gradientUnits="userSpaceOnUse">
<stop stop-color="#54C4FC"/>
<stop offset="1" stop-color="#2479DF"/>
</linearGradient>
<linearGradient id="paint4_linear_876_9432" x1="8.48437" y1="27.125" x2="8.48437" y2="32.0595" gradientUnits="userSpaceOnUse">
<stop stop-color="#54C4FC"/>
<stop offset="1" stop-color="#2479DF"/>
</linearGradient>
</defs>
</svg>
