<svg width="145" height="30" viewBox="0 0 145 30" fill="none" xmlns="http://www.w3.org/2000/svg">
<path d="M72.5787 0.0664062C64.3547 0.0664062 57.6641 6.75709 57.6641 14.9811C57.6641 23.2051 64.3547 29.8957 72.5787 29.8957C80.8027 29.8957 87.4933 23.2051 87.4933 14.9811C87.4933 6.75709 80.8027 0.0664062 72.5787 0.0664062ZM71.6122 19.9527L70.2568 21.308C69.5215 22.0433 68.5563 22.4114 67.593 22.4114C66.6366 22.4114 65.682 22.0486 64.9558 21.3225C64.2515 20.6182 63.8654 19.6771 63.8688 18.6726C63.8722 17.6699 64.2633 16.7284 64.9702 16.0215L68.4107 12.5809C69.1176 11.874 70.0591 11.4829 71.0619 11.4796C71.0661 11.4796 71.0705 11.4795 71.0749 11.4795C72.0745 11.4795 73.0104 11.8652 73.7117 12.5665C74.2263 13.0811 74.5757 13.7312 74.7221 14.4465C74.7996 14.8248 74.5557 15.1942 74.1774 15.2716C73.7991 15.3495 73.4297 15.1052 73.3523 14.7269C73.261 14.2808 73.0434 13.8756 72.723 13.5553C72.286 13.1182 71.7009 12.8778 71.0747 12.8778C71.0719 12.8778 71.0693 12.8778 71.0665 12.8778C70.4355 12.8799 69.8435 13.1256 69.3994 13.5697L65.9589 17.0102C65.5148 17.4543 65.2691 18.0463 65.267 18.6773C65.265 19.3066 65.5055 19.8948 65.9445 20.3338C66.3816 20.7709 66.9666 21.0113 67.5928 21.0113H67.601C68.232 21.0092 68.8241 20.7635 69.2681 20.3194L70.6235 18.964C70.8965 18.691 71.3392 18.691 71.6122 18.964C71.8852 19.237 71.8852 19.6796 71.6122 19.9527ZM80.1974 13.9306L76.7798 17.3482C76.0511 18.0769 75.0938 18.4413 74.1365 18.4413C73.1792 18.4413 72.222 18.077 71.4932 17.3482C70.9791 16.8341 70.629 16.1856 70.4809 15.4727C70.4023 15.0947 70.6451 14.7244 71.0231 14.6459C71.4009 14.5673 71.7713 14.81 71.8499 15.1881C71.9425 15.6336 72.1611 16.0387 72.482 16.3595C73.3943 17.2719 74.8788 17.2717 75.7911 16.3595L79.2087 12.9419C80.1211 12.0295 80.1211 10.5451 79.2087 9.63271C78.7691 9.19314 78.1815 8.95106 77.5541 8.95106C76.9267 8.95106 76.3392 9.19314 75.8996 9.63271L74.5532 10.979C74.2802 11.2521 73.8376 11.2521 73.5645 10.979C73.2915 10.706 73.2914 10.2634 73.5645 9.99031L74.9108 8.64397C75.6145 7.9403 76.5533 7.55275 77.5541 7.55275C78.555 7.55275 79.4937 7.9403 80.1974 8.64397C81.6549 10.1015 81.6549 12.473 80.1974 13.9306Z" fill="#54C4FC"/>
<path d="M15.904 0.0683594C7.68032 0.0683594 0.989746 6.75893 0.989746 14.9826C0.989746 23.2057 7.68032 29.8969 15.904 29.8969C24.1271 29.8969 30.8183 23.2057 30.8183 14.9826C30.8183 6.75893 24.1283 0.0683594 15.904 0.0683594ZM22.5573 11.5691C22.5639 11.7169 22.5675 11.8659 22.5675 12.0149C22.5675 16.5512 19.1156 21.7801 12.7999 21.7801C10.8613 21.7801 9.05664 21.2136 7.53794 20.2392C7.80648 20.271 8.07982 20.2873 8.35676 20.2873C9.96558 20.2873 11.4452 19.7382 12.6203 18.8178C11.1184 18.7902 9.85023 17.7977 9.41349 16.4334C9.62255 16.4731 9.83822 16.4953 10.0587 16.4953C10.3717 16.4953 10.6757 16.4545 10.9634 16.3758C9.39306 16.061 8.21018 14.6738 8.21018 13.0098C8.21018 12.9953 8.21018 12.9803 8.21078 12.9665C8.67336 13.223 9.20262 13.378 9.76493 13.3954C8.84457 12.7809 8.23842 11.7296 8.23842 10.5389C8.23842 9.90927 8.40723 9.31933 8.7028 8.8123C10.3951 10.8897 12.9255 12.2558 15.7778 12.4C15.719 12.1483 15.6895 11.8869 15.6895 11.6172C15.6895 9.72184 17.2263 8.18451 19.1216 8.18451C20.1093 8.18451 21.0002 8.60144 21.6274 9.26827C22.4101 9.11448 23.1431 8.82972 23.8081 8.43503C23.5498 9.23703 23.0073 9.90927 22.2966 10.3346C22.9917 10.2517 23.6549 10.0679 24.2683 9.79453C23.8105 10.4818 23.2284 11.0867 22.5573 11.5691Z" fill="#54C4FC"/>
<path d="M129.251 29.8949C137.49 29.8949 144.166 23.2196 144.166 14.9807C144.166 6.74178 137.49 0.0664062 129.251 0.0664062C121.013 0.0664062 114.337 6.74178 114.337 14.9807C114.337 23.2196 121.013 29.8949 129.251 29.8949ZM121.162 14.6575L135.542 9.11315C136.209 8.87204 136.792 9.27596 136.576 10.2852L136.577 10.2839L134.128 21.8189C133.947 22.6367 133.461 22.8355 132.781 22.4502L129.053 19.7023L127.254 21.4348C127.055 21.6337 126.888 21.8015 126.502 21.8015L126.767 18.007L133.677 11.7642C133.978 11.4994 133.61 11.3503 133.214 11.6138L124.674 16.9904L120.993 15.842C120.193 15.5884 120.176 15.0428 121.162 14.6575Z" fill="#54C4FC"/>
</svg>
