<svg width="145" height="31" viewBox="0 0 145 31" fill="none" xmlns="http://www.w3.org/2000/svg">
<path d="M72.4995 0.669922C64.2083 0.669922 57.4629 7.4153 57.4629 15.7065C57.4629 23.9977 64.2083 30.7431 72.4995 30.7431C80.7906 30.7431 87.536 23.9977 87.536 15.7065C87.536 7.4153 80.7906 0.669922 72.4995 0.669922ZM71.525 20.7187L70.1586 22.0852C69.4172 22.8265 68.4442 23.1975 67.473 23.1975C66.5087 23.1976 65.5463 22.8318 64.8142 22.0997C64.1041 21.3897 63.7149 20.4409 63.7183 19.4282C63.7217 18.4173 64.116 17.4681 64.8288 16.7554L68.2974 13.2867C69.01 12.5741 69.9593 12.1797 70.9702 12.1764C70.9745 12.1764 70.979 12.1763 70.9833 12.1763C71.9911 12.1763 72.9347 12.5652 73.6417 13.2722C74.1605 13.791 74.5128 14.4464 74.6604 15.1676C74.7385 15.5489 74.4926 15.9214 74.1112 15.9994C73.7298 16.0779 73.3574 15.8317 73.2793 15.4502C73.1873 15.0005 72.9679 14.592 72.6449 14.269C72.2043 13.8284 71.6144 13.5861 70.9831 13.5861C70.9804 13.5861 70.9777 13.5861 70.9749 13.5861C70.3387 13.5882 69.7418 13.8359 69.2942 14.2835L65.8255 17.7522C65.3778 18.1999 65.1301 18.7968 65.128 19.4329C65.1259 20.0673 65.3684 20.6604 65.811 21.103C66.2517 21.5436 66.8415 21.786 67.4728 21.786H67.4811C68.1172 21.7839 68.7141 21.5362 69.1618 21.0885L70.5282 19.722C70.8034 19.4468 71.2498 19.4467 71.525 19.722C71.8003 19.9972 71.8003 20.4434 71.525 20.7187ZM80.1805 14.6474L76.7349 18.093C76.0002 18.8276 75.0351 19.195 74.07 19.195C73.1049 19.195 72.1398 18.8277 71.4051 18.093C70.8868 17.5747 70.5338 16.9208 70.3845 16.2021C70.3052 15.821 70.55 15.4478 70.9311 15.3686C71.312 15.2893 71.6854 15.534 71.7647 15.9152C71.858 16.3644 72.0784 16.7727 72.4019 17.0962C73.3217 18.016 74.8183 18.0159 75.7381 17.0962L79.1836 13.6507C80.1035 12.7308 80.1035 11.2342 79.1836 10.3144C78.7405 9.87125 78.1481 9.6272 77.5155 9.6272C76.883 9.6272 76.2906 9.87125 75.8475 10.3144L74.4901 11.6718C74.2148 11.947 73.7686 11.947 73.4933 11.6718C73.2181 11.3965 73.218 10.9502 73.4933 10.6749L74.8506 9.3176C75.5601 8.60818 76.5065 8.21746 77.5155 8.21746C78.5246 8.21746 79.471 8.60818 80.1805 9.3176C81.6499 10.787 81.6499 13.1779 80.1805 14.6474Z" fill="#54C4FC"/>
<path d="M15.3604 0.667969C7.06948 0.667969 0.324219 7.41323 0.324219 15.7041C0.324219 23.9944 7.06948 30.7403 15.3604 30.7403C23.6507 30.7403 30.3966 23.9944 30.3966 15.7041C30.3966 7.41323 23.6519 0.667969 15.3604 0.667969ZM22.0681 12.2628C22.0748 12.4118 22.0784 12.562 22.0784 12.7122C22.0784 17.2855 18.5983 22.5572 12.2309 22.5572C10.2765 22.5572 8.45705 21.9861 6.92594 21.0037C7.19667 21.0358 7.47224 21.0521 7.75145 21.0521C9.37342 21.0521 10.8652 20.4986 12.0498 19.5707C10.5357 19.5428 9.25713 18.5423 8.81681 17.1668C9.02758 17.2068 9.24502 17.2292 9.46729 17.2292C9.78284 17.2292 10.0893 17.188 10.3794 17.1087C8.79622 16.7913 7.60367 15.3928 7.60367 13.7151C7.60367 13.7006 7.60367 13.6855 7.60428 13.6715C8.07064 13.9302 8.60423 14.0864 9.17113 14.104C8.24325 13.4844 7.63214 12.4245 7.63214 11.2241C7.63214 10.5893 7.80233 9.99456 8.10032 9.48338C9.80647 11.5778 12.3575 12.955 15.2332 13.1004C15.1738 12.8466 15.1442 12.5832 15.1442 12.3112C15.1442 10.4004 16.6934 8.85046 18.6043 8.85046C19.6 8.85046 20.4982 9.27079 21.1305 9.94308C21.9197 9.78803 22.6586 9.50095 23.3291 9.10303C23.0687 9.91158 22.5217 10.5893 21.8052 11.0181C22.506 10.9345 23.1746 10.7492 23.793 10.4736C23.3315 11.1665 22.7446 11.7764 22.0681 12.2628Z" fill="#54C4FC"/>
<path d="M129.634 30.7423C137.94 30.7423 144.67 24.0123 144.67 15.7061C144.67 7.39986 137.94 0.669922 129.634 0.669922C121.328 0.669922 114.598 7.39986 114.598 15.7061C114.598 24.0123 121.328 30.7423 129.634 30.7423ZM121.478 15.3803L135.975 9.79061C136.648 9.54753 137.236 9.95476 137.018 10.9722L137.019 10.971L134.551 22.6002C134.368 23.4247 133.878 23.6251 133.192 23.2367L129.433 20.4663L127.62 22.213C127.42 22.4135 127.251 22.5826 126.862 22.5826L127.129 18.7572L134.096 12.4633C134.399 12.1964 134.028 12.046 133.628 12.3117L125.019 17.7322L121.308 16.5744C120.502 16.3188 120.484 15.7687 121.478 15.3803Z" fill="#54C4FC"/>
</svg>
