<svg width="145" height="31" viewBox="0 0 145 31" fill="none" xmlns="http://www.w3.org/2000/svg">
<path d="M72.4849 0.0839844C64.1937 0.0839844 57.4484 6.82936 57.4484 15.1206C57.4484 23.4118 64.1937 30.1571 72.4849 30.1571C80.7761 30.1571 87.5215 23.4118 87.5215 15.1206C87.5215 6.82936 80.7761 0.0839844 72.4849 0.0839844ZM71.5105 20.1328L70.1441 21.4992C69.4027 22.2406 68.4296 22.6116 67.4585 22.6116C66.4942 22.6117 65.5318 22.2459 64.7997 21.5138C64.0896 20.8037 63.7004 19.855 63.7038 18.8423C63.7072 17.8314 64.1015 16.8821 64.8142 16.1695L68.2829 12.7008C68.9955 11.9881 69.9448 11.5938 70.9557 11.5904C70.96 11.5904 70.9644 11.5904 70.9688 11.5904C71.9766 11.5904 72.9202 11.9793 73.6272 12.6863C74.146 13.2051 74.4983 13.8605 74.6459 14.5817C74.7239 14.963 74.4781 15.3354 74.0967 15.4135C73.7152 15.492 73.3429 15.2457 73.2648 14.8643C73.1727 14.4145 72.9534 14.0061 72.6304 13.6831C72.1898 13.2425 71.5999 13.0001 70.9686 13.0001C70.9658 13.0001 70.9631 13.0001 70.9604 13.0001C70.3242 13.0022 69.7273 13.2499 69.2796 13.6976L65.811 17.1663C65.3633 17.614 65.1156 18.2109 65.1135 18.847C65.1114 19.4814 65.3539 20.0745 65.7965 20.5171C66.2371 20.9577 66.827 21.2 67.4583 21.2H67.4665C68.1027 21.1979 68.6996 20.9502 69.1472 20.5025L70.5137 19.1361C70.7889 18.8609 71.2353 18.8608 71.5105 19.1361C71.7857 19.4113 71.7857 19.8575 71.5105 20.1328ZM80.1659 14.0615L76.7204 17.507C75.9856 18.2417 75.0206 18.6091 74.0554 18.6091C73.0903 18.6091 72.1253 18.2418 71.3906 17.507C70.8723 16.9887 70.5193 16.3349 70.37 15.6162C70.2907 15.2351 70.5355 14.8618 70.9166 14.7827C71.2975 14.7034 71.6709 14.9481 71.7501 15.3293C71.8435 15.7784 72.0639 16.1868 72.3874 16.5103C73.3071 17.4301 74.8038 17.4299 75.7236 16.5103L79.1691 13.0647C80.0889 12.1449 80.0889 10.6483 79.1691 9.72848C78.7259 9.28531 78.1335 9.04126 77.501 9.04126C76.8685 9.04126 76.2761 9.28531 75.8329 9.72848L74.4756 11.0858C74.2003 11.3611 73.7541 11.3611 73.4788 11.0858C73.2035 10.8105 73.2035 10.3643 73.4788 10.089L74.8361 8.73166C75.5455 8.02224 76.492 7.63153 77.501 7.63153C78.5101 7.63153 79.4565 8.02224 80.1659 8.73166C81.6353 10.2011 81.6353 12.592 80.1659 14.0615Z" fill="#54C4FC"/>
<path d="M15.3463 0.0839844C7.05544 0.0839844 0.310181 6.82924 0.310181 15.1202C0.310181 23.4105 7.05544 30.1563 15.3463 30.1563C23.6367 30.1563 30.3825 23.4105 30.3825 15.1202C30.3825 6.82924 23.6379 0.0839844 15.3463 0.0839844ZM22.0541 11.6788C22.0607 11.8278 22.0644 11.978 22.0644 12.1282C22.0644 16.7015 18.5842 21.9732 12.2169 21.9732C10.2624 21.9732 8.44301 21.4021 6.9119 20.4197C7.18263 20.4518 7.45821 20.4681 7.73742 20.4681C9.35938 20.4681 10.8511 19.9146 12.0358 18.9867C10.5216 18.9588 9.24309 17.9583 8.80278 16.5828C9.01355 16.6228 9.23098 16.6452 9.45326 16.6452C9.76881 16.6452 10.0753 16.604 10.3654 16.5247C8.78218 16.2073 7.58963 14.8088 7.58963 13.1312C7.58963 13.1166 7.58963 13.1015 7.59024 13.0876C8.0566 13.3462 8.59019 13.5024 9.15709 13.52C8.22921 12.9004 7.6181 11.8405 7.6181 10.6401C7.6181 10.0053 7.78829 9.41058 8.08628 8.8994C9.79243 10.9938 12.3435 12.3711 15.2192 12.5164C15.1598 12.2626 15.1301 11.9992 15.1301 11.7272C15.1301 9.81637 16.6794 8.26648 18.5903 8.26648C19.586 8.26648 20.4842 8.68681 21.1165 9.35909C21.9057 9.20405 22.6446 8.91696 23.315 8.51904C23.0546 9.3276 22.5077 10.0053 21.7912 10.4341C22.492 10.3506 23.1606 10.1652 23.779 9.88966C23.3175 10.5825 22.7306 11.1924 22.0541 11.6788Z" fill="#54C4FC"/>
<path d="M129.621 30.1563C137.927 30.1563 144.657 23.4264 144.657 15.1202C144.657 6.81392 137.927 0.0839844 129.621 0.0839844C121.315 0.0839844 114.585 6.81392 114.585 15.1202C114.585 23.4264 121.315 30.1563 129.621 30.1563ZM121.465 14.7944L135.962 9.20467C136.635 8.96159 137.223 9.36882 137.005 10.3863L137.006 10.385L134.538 22.0142C134.355 22.8387 133.865 23.0392 133.179 22.6508L129.42 19.8804L127.607 21.6271C127.407 21.8275 127.238 21.9967 126.849 21.9967L127.116 18.1712L134.083 11.8774C134.386 11.6105 134.015 11.4601 133.615 11.7257L125.006 17.1463L121.294 15.9885C120.489 15.7329 120.471 15.1828 121.465 14.7944Z" fill="#54C4FC"/>
</svg>
