<svg width="144" height="30" viewBox="0 0 144 30" fill="none" xmlns="http://www.w3.org/2000/svg">
<path d="M71.9593 0.0664062C63.7354 0.0664062 57.0447 6.75709 57.0447 14.9811C57.0447 23.2051 63.7354 29.8957 71.9593 29.8957C80.1833 29.8957 86.874 23.2051 86.874 14.9811C86.874 6.75709 80.1833 0.0664062 71.9593 0.0664062ZM70.9928 19.9527L69.6374 21.308C68.9021 22.0433 67.9369 22.4114 66.9737 22.4114C66.0172 22.4114 65.0626 22.0486 64.3364 21.3225C63.6321 20.6182 63.246 19.6771 63.2494 18.6726C63.2528 17.6699 63.6439 16.7284 64.3508 16.0215L67.7913 12.5809C68.4982 11.874 69.4398 11.4829 70.4425 11.4796C70.4467 11.4796 70.4512 11.4795 70.4555 11.4795C71.4551 11.4795 72.3911 11.8652 73.0923 12.5665C73.607 13.0811 73.9563 13.7312 74.1027 14.4465C74.1802 14.8248 73.9363 15.1942 73.558 15.2716C73.1797 15.3495 72.8104 15.1052 72.7329 14.7269C72.6416 14.2808 72.424 13.8756 72.1036 13.5553C71.6666 13.1182 71.0815 12.8778 70.4553 12.8778C70.4526 12.8778 70.4499 12.8778 70.4471 12.8778C69.8161 12.8799 69.2241 13.1256 68.78 13.5697L65.3395 17.0102C64.8954 17.4543 64.6498 18.0463 64.6477 18.6773C64.6456 19.3066 64.8861 19.8948 65.3251 20.3338C65.7622 20.7709 66.3472 21.0113 66.9734 21.0113H66.9816C67.6127 21.0092 68.2047 20.7635 68.6487 20.3194L70.0041 18.964C70.2771 18.691 70.7198 18.691 70.9928 18.964C71.2658 19.237 71.2658 19.6796 70.9928 19.9527ZM79.5781 13.9306L76.1604 17.3482C75.4317 18.0769 74.4744 18.4413 73.5171 18.4413C72.5598 18.4413 71.6026 18.077 70.8738 17.3482C70.3597 16.8341 70.0097 16.1856 69.8615 15.4727C69.7829 15.0947 70.0257 14.7244 70.4037 14.6459C70.7816 14.5673 71.1519 14.81 71.2305 15.1881C71.3231 15.6336 71.5417 16.0387 71.8626 16.3595C72.7749 17.2719 74.2594 17.2717 75.1717 16.3595L78.5893 12.9419C79.5017 12.0295 79.5017 10.5451 78.5893 9.63271C78.1498 9.19314 77.5621 8.95106 76.9347 8.95106C76.3073 8.95106 75.7198 9.19314 75.2802 9.63271L73.9339 10.979C73.6608 11.2521 73.2182 11.2521 72.9451 10.979C72.6721 10.706 72.672 10.2634 72.9451 9.99031L74.2915 8.64397C74.9951 7.9403 75.9339 7.55275 76.9347 7.55275C77.9356 7.55275 78.8743 7.9403 79.5781 8.64397C81.0356 10.1015 81.0356 12.473 79.5781 13.9306Z" fill="#54C4FC"/>
<path d="M15.2839 0.0683594C7.0602 0.0683594 0.369629 6.75893 0.369629 14.9826C0.369629 23.2057 7.0602 29.8969 15.2839 29.8969C23.507 29.8969 30.1982 23.2057 30.1982 14.9826C30.1982 6.75893 23.5082 0.0683594 15.2839 0.0683594ZM21.9372 11.5691C21.9438 11.7169 21.9474 11.8659 21.9474 12.0149C21.9474 16.5512 18.4955 21.7801 12.1798 21.7801C10.2412 21.7801 8.43652 21.2136 6.91782 20.2392C7.18636 20.271 7.4597 20.2873 7.73665 20.2873C9.34546 20.2873 10.8251 19.7382 12.0002 18.8178C10.4983 18.7902 9.23012 17.7977 8.79337 16.4334C9.00243 16.4731 9.2181 16.4953 9.43858 16.4953C9.75157 16.4953 10.0555 16.4545 10.3433 16.3758C8.77294 16.061 7.59006 14.6738 7.59006 13.0098C7.59006 12.9953 7.59006 12.9803 7.59066 12.9665C8.05324 13.223 8.58251 13.378 9.14481 13.3954C8.22446 12.7809 7.6183 11.7296 7.6183 10.5389C7.6183 9.90927 7.78711 9.31933 8.08268 8.8123C9.775 10.8897 12.3054 12.2558 15.1577 12.4C15.0989 12.1483 15.0694 11.8869 15.0694 11.6172C15.0694 9.72184 16.6061 8.18451 18.5015 8.18451C19.4892 8.18451 20.3801 8.60144 21.0073 9.26827C21.79 9.11448 22.5229 8.82972 23.188 8.43503C22.9297 9.23703 22.3872 9.90927 21.6765 10.3346C22.3716 10.2517 23.0348 10.0679 23.6482 9.79453C23.1904 10.4818 22.6083 11.0867 21.9372 11.5691Z" fill="#54C4FC"/>
<path d="M128.632 29.8949C136.871 29.8949 143.546 23.2196 143.546 14.9807C143.546 6.74178 136.871 0.0664062 128.632 0.0664062C120.393 0.0664062 113.718 6.74178 113.718 14.9807C113.718 23.2196 120.393 29.8949 128.632 29.8949ZM120.542 14.6575L134.922 9.11315C135.59 8.87204 136.172 9.27596 135.956 10.2852L135.957 10.2839L133.509 21.8189C133.328 22.6367 132.842 22.8355 132.162 22.4502L128.433 19.7023L126.635 21.4348C126.436 21.6337 126.268 21.8015 125.883 21.8015L126.148 18.007L133.058 11.7642C133.359 11.4994 132.991 11.3503 132.594 11.6138L124.055 16.9904L120.373 15.842C119.574 15.5884 119.557 15.0428 120.542 14.6575Z" fill="#54C4FC"/>
</svg>
