<svg width="24" height="24" viewBox="0 0 24 24" fill="none" xmlns="http://www.w3.org/2000/svg">
<path d="M12.1983 0.90625C5.93311 0.90625 0.835938 5.94319 0.835938 12.1343C0.835938 18.325 5.93311 23.3624 12.1983 23.3624C18.463 23.3624 23.5606 18.325 23.5606 12.1343C23.5606 5.94319 18.4639 0.90625 12.1983 0.90625ZM17.2671 9.56452C17.2721 9.67578 17.2749 9.78794 17.2749 9.9001C17.2749 13.3152 14.645 17.2518 9.83346 17.2518C8.35653 17.2518 6.98166 16.8253 5.82464 16.0917C6.02923 16.1157 6.23747 16.1279 6.44846 16.1279C7.67413 16.1279 8.80139 15.7145 9.69661 15.0216C8.55241 15.0008 7.58625 14.2537 7.25352 13.2266C7.41279 13.2564 7.5771 13.2731 7.74507 13.2731C7.98352 13.2731 8.2151 13.2424 8.43433 13.1831C7.23796 12.9461 6.33679 11.9019 6.33679 10.6491C6.33679 10.6382 6.33679 10.6269 6.33725 10.6165C6.68966 10.8096 7.09287 10.9263 7.52126 10.9394C6.8201 10.4767 6.3583 9.68528 6.3583 8.78887C6.3583 8.3149 6.48691 7.87077 6.71208 7.48905C8.00137 9.053 9.92911 10.0815 12.1022 10.19C12.0573 10.0005 12.0349 9.80377 12.0349 9.6007C12.0349 8.17379 13.2056 7.01643 14.6496 7.01643C15.402 7.01643 16.0808 7.3303 16.5586 7.83232C17.155 7.71654 17.7133 7.50216 18.22 7.20502C18.0232 7.8088 17.6099 8.3149 17.0685 8.6351C17.598 8.57269 18.1033 8.43429 18.5706 8.22851C18.2218 8.74591 17.7783 9.20134 17.2671 9.56452Z" fill="white"/>
</svg>
