<svg width="24" height="23" viewBox="0 0 24 23" fill="none" xmlns="http://www.w3.org/2000/svg">
<path d="M12.1983 0C5.93311 0 0.835938 5.03694 0.835938 11.2281C0.835938 17.4187 5.93311 22.4561 12.1983 22.4561C18.463 22.4561 23.5606 17.4187 23.5606 11.2281C23.5606 5.03694 18.4639 0 12.1983 0ZM17.2671 8.65827C17.2721 8.76953 17.2749 8.88169 17.2749 8.99385C17.2749 12.4089 14.645 16.3455 9.83346 16.3455C8.35653 16.3455 6.98166 15.919 5.82464 15.1854C6.02923 15.2094 6.23747 15.2216 6.44846 15.2216C7.67413 15.2216 8.80139 14.8082 9.69661 14.1154C8.55241 14.0946 7.58625 13.3474 7.25352 12.3203C7.41279 12.3502 7.5771 12.3669 7.74507 12.3669C7.98352 12.3669 8.2151 12.3361 8.43433 12.2769C7.23796 12.0399 6.33679 10.9956 6.33679 9.74281C6.33679 9.73196 6.33679 9.72065 6.33725 9.71025C6.68966 9.90337 7.09287 10.0201 7.52126 10.0332C6.8201 9.5705 6.3583 8.77903 6.3583 7.88262C6.3583 7.40865 6.48691 6.96452 6.71208 6.5828C8.00137 8.14675 9.92911 9.17521 12.1022 9.28376C12.0573 9.09426 12.0349 8.89752 12.0349 8.69445C12.0349 7.26754 13.2056 6.11018 14.6496 6.11018C15.402 6.11018 16.0808 6.42405 16.5586 6.92607C17.155 6.81029 17.7133 6.59591 18.22 6.29877C18.0232 6.90255 17.6099 7.40865 17.0685 7.72885C17.598 7.66644 18.1033 7.52804 18.5706 7.32226C18.2218 7.83966 17.7783 8.29509 17.2671 8.65827Z" fill="white"/>
</svg>
