<svg width="145" height="30" viewBox="0 0 145 30" fill="none" xmlns="http://www.w3.org/2000/svg">
<path d="M72.5787 0.126953C64.3547 0.126953 57.6641 6.81764 57.6641 15.0416C57.6641 23.2656 64.3547 29.9563 72.5787 29.9563C80.8027 29.9563 87.4933 23.2656 87.4933 15.0416C87.4933 6.81764 80.8027 0.126953 72.5787 0.126953ZM71.6122 20.0132L70.2568 21.3686C69.5215 22.1039 68.5563 22.4719 67.593 22.4719C66.6366 22.472 65.682 22.1092 64.9558 21.383C64.2515 20.6787 63.8654 19.7376 63.8688 18.7332C63.8722 17.7305 64.2633 16.7889 64.9702 16.082L68.4107 12.6415C69.1176 11.9346 70.0591 11.5434 71.0619 11.5401C71.0661 11.5401 71.0705 11.5401 71.0749 11.5401C72.0745 11.5401 73.0104 11.9258 73.7117 12.6271C74.2263 13.1417 74.5757 13.7918 74.7221 14.5071C74.7996 14.8853 74.5557 15.2547 74.1774 15.3322C73.7991 15.41 73.4297 15.1658 73.3523 14.7874C73.261 14.3413 73.0434 13.9362 72.723 13.6158C72.286 13.1787 71.7009 12.9384 71.0747 12.9384C71.0719 12.9384 71.0693 12.9384 71.0665 12.9384C70.4355 12.9405 69.8435 13.1861 69.3994 13.6302L65.9589 17.0708C65.5148 17.5148 65.2691 18.1069 65.267 18.7378C65.265 19.3671 65.5055 19.9554 65.9445 20.3944C66.3816 20.8314 66.9666 21.0718 67.5928 21.0718H67.601C68.232 21.0697 68.8241 20.824 69.2681 20.38L70.6235 19.0246C70.8965 18.7516 71.3392 18.7515 71.6122 19.0246C71.8852 19.2975 71.8852 19.7402 71.6122 20.0132ZM80.1974 13.9911L76.7798 17.4087C76.0511 18.1375 75.0938 18.5019 74.1365 18.5019C73.1792 18.5019 72.222 18.1375 71.4932 17.4087C70.9791 16.8947 70.629 16.2461 70.4809 15.5332C70.4023 15.1552 70.6451 14.785 71.0231 14.7064C71.4009 14.6278 71.7713 14.8706 71.8499 15.2487C71.9425 15.6941 72.1611 16.0992 72.482 16.4201C73.3943 17.3324 74.8788 17.3322 75.7911 16.4201L79.2087 13.0024C80.1211 12.0901 80.1211 10.6056 79.2087 9.69326C78.7691 9.25368 78.1815 9.01161 77.5541 9.01161C76.9267 9.01161 76.3392 9.25368 75.8996 9.69326L74.5532 11.0396C74.2802 11.3126 73.8376 11.3126 73.5645 11.0396C73.2915 10.7665 73.2914 10.3239 73.5645 10.0509L74.9108 8.70452C75.6145 8.00085 76.5533 7.6133 77.5541 7.6133C78.555 7.6133 79.4937 8.00085 80.1974 8.70452C81.6549 10.162 81.6549 12.5336 80.1974 13.9911Z" fill="#54C4FC"/>
<path d="M15.9033 0.126953C7.67959 0.126953 0.989014 6.81752 0.989014 15.0412C0.989014 23.2643 7.67959 29.9555 15.9033 29.9555C24.1264 29.9555 30.8175 23.2643 30.8175 15.0412C30.8175 6.81752 24.1276 0.126953 15.9033 0.126953ZM22.5566 11.6277C22.5632 11.7755 22.5668 11.9245 22.5668 12.0735C22.5668 16.6098 19.1149 21.8387 12.7992 21.8387C10.8606 21.8387 9.05591 21.2722 7.53721 20.2978C7.80574 20.3296 8.07908 20.3459 8.35603 20.3459C9.96484 20.3459 11.4445 19.7968 12.6196 18.8764C11.1177 18.8488 9.8495 17.8563 9.41275 16.492C9.62182 16.5317 9.83749 16.5539 10.058 16.5539C10.371 16.5539 10.6749 16.5131 10.9627 16.4344C9.39233 16.1196 8.20945 14.7324 8.20945 13.0683C8.20945 13.0539 8.20945 13.0389 8.21005 13.0251C8.67263 13.2816 9.20189 13.4366 9.76419 13.454C8.84384 12.8395 8.23768 11.7881 8.23768 10.5975C8.23768 9.96787 8.40649 9.37793 8.70206 8.87089C10.3944 10.9483 12.9247 12.3144 15.7771 12.4586C15.7182 12.2069 15.6888 11.9455 15.6888 11.6758C15.6888 9.78043 17.2255 8.24311 19.1209 8.24311C20.1085 8.24311 20.9995 8.66003 21.6266 9.32686C22.4094 9.17307 23.1423 8.88832 23.8074 8.49362C23.549 9.29563 23.0066 9.96787 22.2959 10.3932C22.9909 10.3103 23.6542 10.1265 24.2675 9.85312C23.8098 10.5404 23.2276 11.1453 22.5566 11.6277Z" fill="#54C4FC"/>
<path d="M129.251 29.9555C137.49 29.9555 144.166 23.2801 144.166 15.0412C144.166 6.80233 137.49 0.126953 129.251 0.126953C121.013 0.126953 114.337 6.80233 114.337 15.0412C114.337 23.2801 121.013 29.9555 129.251 29.9555ZM121.162 14.7181L135.542 9.1737C136.209 8.93258 136.792 9.33651 136.576 10.3457L136.577 10.3445L134.128 21.8794C133.947 22.6972 133.461 22.8961 132.781 22.5108L129.053 19.7628L127.254 21.4954C127.055 21.6942 126.888 21.862 126.502 21.862L126.767 18.0676L133.677 11.8247C133.978 11.56 133.61 11.4108 133.214 11.6743L124.674 17.0509L120.993 15.9025C120.193 15.649 120.176 15.1034 121.162 14.7181Z" fill="#54C4FC"/>
</svg>
