<svg width="140" height="31" viewBox="0 0 140 31" fill="none" xmlns="http://www.w3.org/2000/svg">
<path d="M69.8664 0.964844C61.8405 0.964844 55.311 7.49434 55.311 15.5202C55.311 23.546 61.8405 30.0755 69.8664 30.0755C77.8922 30.0755 84.4217 23.546 84.4217 15.5202C84.4217 7.49434 77.8922 0.964844 69.8664 0.964844ZM68.9231 20.372L67.6004 21.6947C66.8828 22.4123 65.9409 22.7715 65.0008 22.7715C64.0674 22.7715 63.1358 22.4175 62.4271 21.7088C61.7397 21.0215 61.363 20.1031 61.3663 19.1228C61.3696 18.1442 61.7513 17.2254 62.4412 16.5355L65.7988 13.1779C66.4886 12.488 67.4075 12.1063 68.3861 12.103C68.3902 12.103 68.3945 12.103 68.3987 12.103C69.3743 12.103 70.2877 12.4794 70.9721 13.1638C71.4743 13.666 71.8153 14.3004 71.9581 14.9985C72.0337 15.3676 71.7957 15.7282 71.4265 15.8037C71.0573 15.8797 70.6969 15.6414 70.6213 15.2721C70.5322 14.8368 70.3198 14.4414 70.0072 14.1287C69.5807 13.7022 69.0097 13.4676 68.3986 13.4676C68.3959 13.4676 68.3933 13.4676 68.3906 13.4676C67.7748 13.4697 67.197 13.7094 66.7636 14.1428L63.406 17.5005C62.9727 17.9338 62.7329 18.5116 62.7309 19.1274C62.7288 19.7415 62.9636 20.3156 63.392 20.744C63.8185 21.1705 64.3895 21.4051 65.0006 21.4051H65.0086C65.6244 21.4031 66.2022 21.1633 66.6355 20.7299L67.9582 19.4072C68.2246 19.1408 68.6567 19.1407 68.9231 19.4072C69.1896 19.6736 69.1896 20.1055 68.9231 20.372ZM77.3015 14.495L73.9663 17.8303C73.2551 18.5414 72.3209 18.8971 71.3866 18.8971C70.4524 18.8971 69.5182 18.5415 68.807 17.8303C68.3053 17.3286 67.9637 16.6956 67.8191 15.9999C67.7424 15.6311 67.9793 15.2697 68.3482 15.1931C68.717 15.1163 69.0784 15.3533 69.1551 15.7223C69.2454 16.157 69.4588 16.5523 69.7719 16.8654C70.6623 17.7558 72.111 17.7556 73.0014 16.8654L76.3366 13.5301C77.227 12.6398 77.227 11.1911 76.3366 10.3007C75.9076 9.87169 75.3342 9.63545 74.7219 9.63545C74.1096 9.63545 73.5362 9.87169 73.1072 10.3007L71.7933 11.6146C71.5268 11.881 71.0949 11.881 70.8284 11.6146C70.562 11.3481 70.5619 10.9162 70.8284 10.6497L72.1423 9.33576C72.829 8.64904 73.7452 8.27083 74.7219 8.27083C75.6987 8.27083 76.6148 8.64904 77.3015 9.33576C78.7239 10.7581 78.7239 13.0726 77.3015 14.495Z" fill="#54C4FC"/>
<path d="M14.5564 0.962891C6.53085 0.962891 0.00146484 7.49227 0.00146484 15.5178C0.00146484 23.5428 6.53085 30.0728 14.5564 30.0728C22.5814 30.0728 29.1114 23.5428 29.1114 15.5178C29.1114 7.49227 22.5826 0.962891 14.5564 0.962891ZM21.0494 12.1866C21.0559 12.3308 21.0594 12.4762 21.0594 12.6216C21.0594 17.0486 17.6907 22.1516 11.5271 22.1516C9.63519 22.1516 7.87401 21.5987 6.3919 20.6478C6.65397 20.6789 6.92072 20.6947 7.191 20.6947C8.76105 20.6947 10.2051 20.1588 11.3518 19.2606C9.88612 19.2337 8.64849 18.2651 8.22226 16.9337C8.42629 16.9724 8.63676 16.9941 8.85192 16.9941C9.15738 16.9941 9.45403 16.9542 9.73486 16.8774C8.20233 16.5702 7.04795 15.2165 7.04795 13.5925C7.04795 13.5784 7.04795 13.5638 7.04853 13.5503C7.49997 13.8006 8.01648 13.9519 8.56524 13.9689C7.66706 13.3691 7.0755 12.3431 7.0755 11.1811C7.0755 10.5667 7.24025 9.99099 7.52869 9.49617C9.18024 11.5235 11.6496 12.8567 14.4333 12.9974C14.3758 12.7518 14.3471 12.4967 14.3471 12.2335C14.3471 10.3838 15.8468 8.88351 17.6965 8.88351C18.6604 8.88351 19.5298 9.29039 20.1419 9.94116C20.9058 9.79107 21.6211 9.51318 22.2701 9.12799C22.018 9.91067 21.4886 10.5667 20.795 10.9818C21.4733 10.9009 22.1206 10.7215 22.7192 10.4547C22.2724 11.1254 21.7043 11.7158 21.0494 12.1866Z" fill="#54C4FC"/>
<path d="M125.174 30.0747C133.214 30.0747 139.729 23.5602 139.729 15.5198C139.729 7.4794 133.214 0.964844 125.174 0.964844C117.133 0.964844 110.619 7.4794 110.619 15.5198C110.619 23.5602 117.133 30.0747 125.174 30.0747ZM117.279 15.2044L131.312 9.79363C131.963 9.55833 132.532 9.95253 132.321 10.9374L132.323 10.9362L129.933 22.1932C129.756 22.9913 129.282 23.1854 128.618 22.8094L124.98 20.1276L123.224 21.8184C123.03 22.0125 122.867 22.1763 122.491 22.1763L122.749 18.4732L129.493 12.3808C129.786 12.1224 129.427 11.9769 129.04 12.234L120.706 17.4811L117.114 16.3603C116.334 16.1129 116.317 15.5804 117.279 15.2044Z" fill="#54C4FC"/>
</svg>
