<svg width="201" height="43" viewBox="0 0 201 43" fill="none" xmlns="http://www.w3.org/2000/svg">
<path d="M100.225 0.5625C88.7111 0.5625 79.3438 9.92981 79.3438 21.4438C79.3438 32.9578 88.7111 42.3251 100.225 42.3251C111.739 42.3251 121.106 32.9578 121.106 21.4438C121.106 9.92981 111.739 0.5625 100.225 0.5625ZM98.8719 28.4043L96.9743 30.3019C95.9447 31.3314 94.5935 31.8466 93.2448 31.8466C91.9057 31.8467 90.5693 31.3388 89.5525 30.3221C88.5664 29.3361 88.026 28.0185 88.0307 26.6122C88.0354 25.2083 88.583 23.8901 89.5727 22.9005L94.3896 18.0835C95.3793 17.0938 96.6975 16.5462 98.1014 16.5415C98.1073 16.5415 98.1135 16.5414 98.1196 16.5414C99.5191 16.5414 100.829 17.0815 101.811 18.0633C102.532 18.7838 103.021 19.694 103.226 20.6954C103.334 21.225 102.993 21.7422 102.463 21.8506C101.934 21.9596 101.417 21.6176 101.308 21.0879C101.18 20.4634 100.876 19.8962 100.427 19.4476C99.8152 18.8357 98.996 18.4992 98.1193 18.4992C98.1155 18.4992 98.1117 18.4992 98.1079 18.4992C97.2244 18.5021 96.3956 18.8461 95.7738 19.4678L90.9569 24.2847C90.3352 24.9065 89.9913 25.7353 89.9883 26.6187C89.9854 27.4997 90.3222 28.3233 90.9368 28.9379C91.5487 29.5499 92.3678 29.8864 93.2445 29.8864H93.256C94.1395 29.8835 94.9684 29.5395 95.59 28.9178L97.4876 27.0202C97.8698 26.638 98.4896 26.6379 98.8719 27.0202C99.2541 27.4023 99.2541 28.022 98.8719 28.4043ZM110.892 19.9731L106.107 24.7579C105.087 25.7782 103.746 26.2884 102.406 26.2884C101.066 26.2884 99.7256 25.7782 98.7053 24.7579C97.9856 24.0382 97.4954 23.1302 97.288 22.1321C97.178 21.6029 97.5178 21.0845 98.0471 20.9746C98.5761 20.8644 99.0946 21.2043 99.2047 21.7337C99.3343 22.3574 99.6403 22.9245 100.09 23.3737C101.367 24.6511 103.445 24.6508 104.723 23.3737L109.507 18.5889C110.785 17.3115 110.785 15.2332 109.507 13.9558C108.892 13.3404 108.069 13.0015 107.191 13.0015C106.312 13.0015 105.49 13.3404 104.874 13.9558L102.989 15.8408C102.607 16.223 101.988 16.223 101.605 15.8408C101.223 15.4585 101.223 14.8388 101.605 14.4565L103.49 12.5715C104.475 11.5864 105.79 11.0438 107.191 11.0438C108.592 11.0438 109.906 11.5864 110.892 12.5715C112.932 14.6121 112.932 17.9324 110.892 19.9731Z" fill="#2479DF"/>
<path d="M20.8808 0.5625C9.36716 0.5625 0 9.92966 0 21.4433C0 32.956 9.36716 42.324 20.8808 42.324C32.3935 42.324 41.7615 32.956 41.7615 21.4433C41.7615 9.92966 32.3952 0.5625 20.8808 0.5625ZM30.1958 16.6642C30.205 16.8711 30.2101 17.0797 30.2101 17.2883C30.2101 23.6393 25.3772 30.9601 16.5349 30.9601C13.8207 30.9601 11.2941 30.167 9.16782 28.8027C9.54378 28.8473 9.92648 28.87 10.3142 28.87C12.5666 28.87 14.6382 28.1013 16.2834 26.8127C14.1807 26.774 12.4052 25.3846 11.7937 23.4745C12.0864 23.53 12.3883 23.5611 12.697 23.5611C13.1352 23.5611 13.5608 23.5039 13.9637 23.3937C11.7651 22.953 10.109 21.0109 10.109 18.6811C10.109 18.6609 10.109 18.6399 10.1098 18.6206C10.7575 18.9797 11.4985 19.1967 12.2857 19.2211C10.9972 18.3607 10.1485 16.8888 10.1485 15.2218C10.1485 14.3403 10.3849 13.5144 10.7987 12.8045C13.168 15.713 16.7107 17.6256 20.7041 17.8274C20.6217 17.475 20.5805 17.1092 20.5805 16.7315C20.5805 14.0779 22.732 11.9255 25.3856 11.9255C26.7683 11.9255 28.0157 12.5093 28.8938 13.4429C29.9897 13.2275 31.0158 12.8289 31.9469 12.2763C31.5852 13.3991 30.8257 14.3403 29.8307 14.9358C30.8039 14.8197 31.7324 14.5623 32.5912 14.1797C31.9503 15.1419 31.1353 15.9888 30.1958 16.6642Z" fill="#2479DF"/>
<path d="M179.576 42.324C191.111 42.324 200.457 32.9781 200.457 21.4433C200.457 9.90838 191.111 0.5625 179.576 0.5625C168.041 0.5625 158.695 9.90838 158.695 21.4433C158.695 32.9781 168.041 42.324 179.576 42.324ZM168.25 20.9908L188.383 13.2284C189.317 12.8908 190.133 13.4564 189.83 14.8693L189.832 14.8676L186.404 31.0171C186.15 32.162 185.47 32.4405 184.518 31.901L179.298 28.0538L176.78 30.4794C176.501 30.7578 176.266 30.9927 175.727 30.9927L176.098 25.6803L185.772 16.94C186.194 16.5693 185.678 16.3605 185.123 16.7294L173.167 24.2569L168.013 22.6491C166.894 22.2941 166.87 21.5303 168.25 20.9908Z" fill="#2479DF"/>
</svg>
