<svg width="27" height="26" viewBox="0 0 27 26" fill="none" xmlns="http://www.w3.org/2000/svg">
<path d="M13.1724 25.999C6.04949 25.999 0.22168 20.1712 0.22168 13.0483C0.22168 5.92546 6.04949 0.0976562 13.1724 0.0976562C20.2952 0.0976562 26.123 5.92546 26.123 13.0483C26.123 20.1712 20.2952 25.999 13.1724 25.999ZM13.1724 2.68779C7.47406 2.68779 2.81182 7.35004 2.81182 13.0483C2.81182 18.7466 7.47406 23.4089 13.1724 23.4089C18.8707 23.4089 23.5329 18.7466 23.5329 13.0483C23.5329 7.35004 18.8707 2.68779 13.1724 2.68779Z" fill="url(#paint0_linear_876_8849)"/>
<path d="M13.171 19.5225C12.394 19.5225 11.876 19.0045 11.876 18.2274V11.7521C11.876 10.9751 12.394 10.457 13.171 10.457C13.9481 10.457 14.4661 10.9751 14.4661 11.7521V18.2274C14.4661 19.0045 13.9481 19.5225 13.171 19.5225Z" fill="url(#paint1_linear_876_8849)"/>
<path d="M13.171 9.16436C13.8863 9.16436 14.4661 8.58453 14.4661 7.86929C14.4661 7.15404 13.8863 6.57422 13.171 6.57422C12.4558 6.57422 11.876 7.15404 11.876 7.86929C11.876 8.58453 12.4558 9.16436 13.171 9.16436Z" fill="url(#paint2_linear_876_8849)"/>
<defs>
<linearGradient id="paint0_linear_876_8849" x1="13.1724" y1="0.0976562" x2="13.1724" y2="25.999" gradientUnits="userSpaceOnUse">
<stop stop-color="#54C4FC"/>
<stop offset="1" stop-color="#2479DF"/>
</linearGradient>
<linearGradient id="paint1_linear_876_8849" x1="13.171" y1="10.457" x2="13.171" y2="19.5225" gradientUnits="userSpaceOnUse">
<stop stop-color="#54C4FC"/>
<stop offset="1" stop-color="#2479DF"/>
</linearGradient>
<linearGradient id="paint2_linear_876_8849" x1="13.171" y1="6.57422" x2="13.171" y2="9.16436" gradientUnits="userSpaceOnUse">
<stop stop-color="#54C4FC"/>
<stop offset="1" stop-color="#2479DF"/>
</linearGradient>
</defs>
</svg>
