<svg width="32" height="33" viewBox="0 0 32 33" fill="none" xmlns="http://www.w3.org/2000/svg">
<path d="M31.9631 2.47414C31.8949 1.20337 30.9004 0.192837 29.65 0.123482C27.1268 -0.0166041 22.1895 0.119671 17.4683 2.60129C15.0615 3.86644 12.5161 6.0114 10.4848 8.48621C10.4597 8.5167 10.4354 8.54738 10.4106 8.57794L5.80053 8.93983C5.0417 8.99944 4.36582 9.40364 3.94613 10.0487L0.80101 14.8831C0.482711 15.3724 0.43211 15.9846 0.665562 16.5209C0.899076 17.0573 1.37889 17.431 1.94915 17.5208L5.83312 18.1321C5.81941 18.2089 5.80563 18.2855 5.79303 18.3623C5.66373 19.1483 5.91999 19.9564 6.47863 20.5241L11.8887 26.0221C12.3518 26.4928 12.9777 26.7523 13.6189 26.7523C13.751 26.7523 13.8838 26.7412 14.016 26.7188C14.0915 26.706 14.1669 26.692 14.2424 26.6781L14.844 30.6252C14.9323 31.2048 15.3001 31.6924 15.8278 31.9297C16.0473 32.0284 16.2797 32.0771 16.511 32.0771C16.8358 32.0771 17.1583 31.981 17.4395 31.7921L22.1965 28.5958C22.8314 28.1692 23.229 27.4823 23.2876 26.7113L23.6437 22.0264C23.6737 22.0011 23.704 21.9764 23.734 21.951C26.1693 19.8866 28.28 17.2998 29.5249 14.8539C31.9669 10.0558 32.1008 5.03811 31.9631 2.47414ZM21.1793 27.0321L16.6289 30.0896L16.0426 26.2428C17.9657 25.6682 19.8682 24.7478 21.6807 23.5148L21.4487 26.5668C21.4343 26.7572 21.336 26.9268 21.1793 27.0321ZM13.1929 24.6967L7.78281 19.1987C7.64478 19.0583 7.58097 18.8612 7.61226 18.6713C7.7731 17.6939 8.02303 16.7635 8.33241 15.887L16.4499 24.1364C15.4141 24.5135 14.4862 24.7384 13.7118 24.87C13.5247 24.9016 13.3309 24.837 13.1929 24.6967ZM5.94262 10.8088L8.94571 10.573C7.7324 12.4149 6.82675 14.3483 6.26129 16.3028L2.47612 15.707L5.48475 11.0825C5.58841 10.9232 5.75534 10.8234 5.94262 10.8088ZM22.5527 20.5114C21.0627 21.7744 19.6165 22.6879 18.2834 23.3489L9.10876 14.0252C9.9608 12.2567 11.0007 10.784 11.9012 9.68694C13.781 7.39664 16.119 5.42088 18.3158 4.2662C22.6488 1.98852 27.214 1.86587 29.5496 1.99508C29.8587 2.0122 30.1046 2.26207 30.1214 2.5763C30.2488 4.94989 30.1278 9.58922 27.8866 13.9927C26.7504 16.2251 24.8063 18.601 22.5527 20.5114Z" fill="url(#paint0_linear_876_8865)"/>
<path d="M22.0838 14.8481C23.2644 14.848 24.4455 14.3913 25.3443 13.4778C26.2153 12.5928 26.6949 11.416 26.6949 10.1643C26.6949 8.91267 26.2152 7.73587 25.3443 6.85081C23.5464 5.02363 20.621 5.02375 18.8233 6.85081C17.9523 7.73587 17.4727 8.91267 17.4727 10.1643C17.4727 11.416 17.9524 12.5928 18.8233 13.4778C19.7223 14.3915 20.9028 14.8483 22.0838 14.8481ZM20.1274 8.17619C20.6667 7.62803 21.3752 7.35398 22.0837 7.35398C22.7922 7.35398 23.5007 7.62803 24.04 8.17619C24.5625 8.70722 24.8503 9.41328 24.8503 10.1643C24.8503 10.9152 24.5625 11.6213 24.04 12.1524C22.9613 13.2486 21.206 13.2486 20.1273 12.1524C19.6048 11.6213 19.317 10.9153 19.317 10.1643C19.317 9.41334 19.6048 8.70722 20.1274 8.17619Z" fill="url(#paint1_linear_876_8865)"/>
<path d="M1.46128 26.4501C1.69732 26.4501 1.93335 26.3586 2.11337 26.1755L5.1244 23.1156C5.48457 22.7496 5.48457 22.1562 5.1244 21.7901C4.76429 21.4241 4.18032 21.4241 3.82015 21.7901L0.80919 24.8501C0.44902 25.2161 0.44902 25.8095 0.80919 26.1755C0.989213 26.3586 1.22525 26.4501 1.46128 26.4501Z" fill="url(#paint2_linear_876_8865)"/>
<path d="M7.88379 24.5948C7.52368 24.2288 6.93971 24.2288 6.57954 24.5948L0.790635 30.4779C0.430465 30.8439 0.430465 31.4373 0.790635 31.8033C0.97072 31.9863 1.20669 32.0778 1.44273 32.0778C1.67876 32.0778 1.9148 31.9863 2.09482 31.8033L7.88372 25.9203C8.24396 25.5542 8.24396 24.9609 7.88379 24.5948Z" fill="url(#paint3_linear_876_8865)"/>
<path d="M9.33975 27.3995L6.32872 30.4595C5.96855 30.8255 5.96855 31.4189 6.32872 31.7849C6.50881 31.9679 6.74484 32.0595 6.98081 32.0595C7.21679 32.0595 7.45288 31.968 7.63291 31.7849L10.6439 28.725C11.0041 28.3589 11.0041 27.7655 10.6439 27.3995C10.2838 27.0335 9.69985 27.0335 9.33975 27.3995Z" fill="url(#paint4_linear_876_8865)"/>
<defs>
<linearGradient id="paint0_linear_876_8865" x1="16.2603" y1="0.0859375" x2="16.2603" y2="32.0771" gradientUnits="userSpaceOnUse">
<stop stop-color="#54C4FC"/>
<stop offset="1" stop-color="#2479DF"/>
</linearGradient>
<linearGradient id="paint1_linear_876_8865" x1="22.0838" y1="5.48047" x2="22.0838" y2="14.8481" gradientUnits="userSpaceOnUse">
<stop stop-color="#54C4FC"/>
<stop offset="1" stop-color="#2479DF"/>
</linearGradient>
<linearGradient id="paint2_linear_876_8865" x1="2.96679" y1="21.5156" x2="2.96679" y2="26.4501" gradientUnits="userSpaceOnUse">
<stop stop-color="#54C4FC"/>
<stop offset="1" stop-color="#2479DF"/>
</linearGradient>
<linearGradient id="paint3_linear_876_8865" x1="4.33721" y1="24.3203" x2="4.33721" y2="32.0778" gradientUnits="userSpaceOnUse">
<stop stop-color="#54C4FC"/>
<stop offset="1" stop-color="#2479DF"/>
</linearGradient>
<linearGradient id="paint4_linear_876_8865" x1="8.48633" y1="27.125" x2="8.48633" y2="32.0595" gradientUnits="userSpaceOnUse">
<stop stop-color="#54C4FC"/>
<stop offset="1" stop-color="#2479DF"/>
</linearGradient>
</defs>
</svg>
