<svg width="25" height="25" viewBox="0 0 25 25" fill="none" xmlns="http://www.w3.org/2000/svg">
<path d="M12.4433 0C5.58207 0 0 5.58207 0 12.4433C0 19.3039 5.58207 24.8865 12.4433 24.8865C19.3039 24.8865 24.8865 19.3039 24.8865 12.4433C24.8865 5.58207 19.3049 0 12.4433 0ZM17.9942 9.59533C17.9998 9.71863 18.0028 9.84293 18.0028 9.96723C18.0028 13.7519 15.1228 18.1145 9.85345 18.1145C8.23602 18.1145 6.73036 17.6419 5.46328 16.8289C5.68733 16.8555 5.91538 16.869 6.14644 16.869C7.48871 16.869 8.72321 16.4109 9.70359 15.643C8.45054 15.62 7.39247 14.792 7.02809 13.6537C7.20251 13.6868 7.38245 13.7053 7.56639 13.7053C7.82753 13.7053 8.08115 13.6712 8.32123 13.6056C7.01104 13.3429 6.02415 12.1856 6.02415 10.7972C6.02415 10.7852 6.02415 10.7727 6.02465 10.7612C6.41058 10.9752 6.85216 11.1045 7.3213 11.119C6.55343 10.6063 6.0477 9.72915 6.0477 8.73574C6.0477 8.21046 6.18854 7.71826 6.43514 7.29524C7.84708 9.02845 9.95821 10.1682 12.338 10.2885C12.2889 10.0785 12.2643 9.86047 12.2643 9.63542C12.2643 8.05408 13.5464 6.77146 15.1278 6.77146C15.9518 6.77146 16.6951 7.11931 17.2184 7.67566C17.8714 7.54735 18.4829 7.30977 19.0378 6.98047C18.8223 7.6496 18.3697 8.21046 17.7767 8.56532C18.3566 8.49615 18.91 8.34278 19.4217 8.11473C19.0398 8.68812 18.5541 9.19285 17.9942 9.59533Z" fill="#54C4FC"/>
</svg>
