<svg width="144" height="30" viewBox="0 0 144 30" fill="none" xmlns="http://www.w3.org/2000/svg">
<path d="M71.5895 0.0957031C63.3655 0.0957031 56.6748 6.78639 56.6748 15.0104C56.6748 23.2344 63.3655 29.925 71.5895 29.925C79.8134 29.925 86.5041 23.2344 86.5041 15.0104C86.5041 6.78639 79.8134 0.0957031 71.5895 0.0957031ZM70.6229 19.982L69.2676 21.3373C68.5322 22.0726 67.5671 22.4407 66.6038 22.4407C65.6473 22.4407 64.6927 22.0779 63.9665 21.3518C63.2622 20.6475 62.8762 19.7064 62.8795 18.7019C62.8829 17.6992 63.274 16.7577 63.981 16.0508L67.4215 12.6102C68.1283 11.9033 69.0699 11.5122 70.0726 11.5089C70.0769 11.5089 70.0813 11.5088 70.0856 11.5088C71.0852 11.5088 72.0212 11.8945 72.7225 12.5958C73.2371 13.1104 73.5865 13.7605 73.7329 14.4758C73.8103 14.8541 73.5664 15.2235 73.1881 15.3009C72.8098 15.3788 72.4405 15.1345 72.363 14.7562C72.2717 14.3101 72.0541 13.9049 71.7337 13.5846C71.2967 13.1475 70.7116 12.9071 70.0854 12.9071C70.0827 12.9071 70.08 12.9071 70.0773 12.9071C69.4462 12.9092 68.8542 13.1549 68.4101 13.599L64.9696 17.0395C64.5256 17.4836 64.2799 18.0756 64.2778 18.7066C64.2757 19.3359 64.5163 19.9241 64.9552 20.3631C65.3923 20.8002 65.9774 21.0406 66.6035 21.0406H66.6118C67.2428 21.0385 67.8348 20.7928 68.2788 20.3487L69.6342 18.9933C69.9072 18.7203 70.3499 18.7203 70.6229 18.9933C70.8959 19.2663 70.8959 19.7089 70.6229 19.982ZM79.2082 13.9599L75.7906 17.3775C75.0618 18.1062 74.1046 18.4706 73.1472 18.4706C72.19 18.4706 71.2327 18.1063 70.504 17.3775C69.9899 16.8634 69.6398 16.2148 69.4916 15.502C69.413 15.124 69.6558 14.7537 70.0339 14.6752C70.4117 14.5965 70.782 14.8393 70.8606 15.2174C70.9532 15.6629 71.1718 16.068 71.4927 16.3888C72.405 17.3012 73.8895 17.301 74.8018 16.3888L78.2195 12.9712C79.1318 12.0588 79.1318 10.5744 78.2195 9.66201C77.7799 9.22243 77.1923 8.98036 76.5649 8.98036C75.9374 8.98036 75.3499 9.22243 74.9103 9.66201L73.564 11.0083C73.2909 11.2814 72.8483 11.2814 72.5752 11.0083C72.3022 10.7353 72.3022 10.2927 72.5752 10.0196L73.9216 8.67327C74.6252 7.9696 75.564 7.58205 76.5649 7.58205C77.5658 7.58205 78.5045 7.9696 79.2082 8.67327C80.6657 10.1308 80.6657 12.5023 79.2082 13.9599Z" fill="#54C4FC"/>
<path d="M14.9143 0.09375C6.69057 0.09375 0 6.78432 0 15.008C0 23.2311 6.69057 29.9223 14.9143 29.9223C23.1374 29.9223 29.8285 23.2311 29.8285 15.008C29.8285 6.78432 23.1386 0.09375 14.9143 0.09375ZM21.5676 11.5945C21.5742 11.7423 21.5778 11.8913 21.5778 12.0403C21.5778 16.5766 18.1259 21.8055 11.8102 21.8055C9.87155 21.8055 8.06689 21.239 6.54819 20.2646C6.81673 20.2964 7.09007 20.3126 7.36702 20.3126C8.97583 20.3126 10.4555 19.7636 11.6306 18.8432C10.1287 18.8156 8.86049 17.8231 8.42374 16.4588C8.6328 16.4985 8.84847 16.5207 9.06895 16.5207C9.38194 16.5207 9.68592 16.4799 9.97368 16.4012C8.40331 16.0864 7.22043 14.6992 7.22043 13.0351C7.22043 13.0207 7.22044 13.0057 7.22104 12.9919C7.68361 13.2484 8.21288 13.4034 8.77518 13.4208C7.85483 12.8063 7.24867 11.7549 7.24867 10.5643C7.24867 9.93466 7.41748 9.34473 7.71305 8.83769C9.40537 10.9151 11.9357 12.2812 14.7881 12.4254C14.7292 12.1737 14.6998 11.9123 14.6998 11.6426C14.6998 9.74723 16.2365 8.20991 18.1319 8.20991C19.1195 8.20991 20.0104 8.62683 20.6376 9.29366C21.4204 9.13987 22.1533 8.85511 22.8184 8.46042C22.56 9.26242 22.0175 9.93466 21.3069 10.36C22.0019 10.2771 22.6652 10.0933 23.2785 9.81992C22.8208 10.5072 22.2386 11.1121 21.5676 11.5945Z" fill="#54C4FC"/>
<path d="M128.262 29.9242C136.501 29.9242 143.176 23.2489 143.176 15.01C143.176 6.77108 136.501 0.0957031 128.262 0.0957031C120.023 0.0957031 113.348 6.77108 113.348 15.01C113.348 23.2489 120.023 29.9242 128.262 29.9242ZM120.172 14.6868L134.552 9.14245C135.219 8.90133 135.802 9.30526 135.586 10.3145L135.587 10.3132L133.139 21.8482C132.957 22.666 132.471 22.8648 131.792 22.4795L128.063 19.7316L126.265 21.4641C126.066 21.663 125.898 21.8308 125.513 21.8308L125.777 18.0363L132.688 11.7935C132.988 11.5287 132.621 11.3796 132.224 11.6431L123.684 17.0197L120.003 15.8713C119.204 15.6177 119.187 15.0721 120.172 14.6868Z" fill="#54C4FC"/>
</svg>
