<svg width="145" height="31" viewBox="0 0 145 31" fill="none" xmlns="http://www.w3.org/2000/svg">
<path d="M72.5787 0.1875C64.3547 0.1875 57.6641 6.87819 57.6641 15.1022C57.6641 23.3262 64.3547 30.0168 72.5787 30.0168C80.8027 30.0168 87.4933 23.3262 87.4933 15.1022C87.4933 6.87819 80.8027 0.1875 72.5787 0.1875ZM71.6122 20.0738L70.2568 21.4291C69.5215 22.1644 68.5563 22.5325 67.593 22.5325C66.6366 22.5325 65.682 22.1697 64.9558 21.4436C64.2515 20.7393 63.8654 19.7982 63.8688 18.7937C63.8722 17.791 64.2633 16.8495 64.9702 16.1426L68.4107 12.702C69.1176 11.9951 70.0591 11.604 71.0619 11.6007C71.0661 11.6007 71.0705 11.6006 71.0749 11.6006C72.0745 11.6006 73.0104 11.9863 73.7117 12.6876C74.2263 13.2022 74.5757 13.8523 74.7221 14.5676C74.7996 14.9459 74.5557 15.3153 74.1774 15.3927C73.7991 15.4705 73.4297 15.2263 73.3523 14.848C73.261 14.4019 73.0434 13.9967 72.723 13.6764C72.286 13.2393 71.7009 12.9989 71.0747 12.9989C71.0719 12.9989 71.0693 12.9989 71.0665 12.9989C70.4355 13.001 69.8435 13.2467 69.3994 13.6908L65.9589 17.1313C65.5148 17.5754 65.2691 18.1674 65.267 18.7984C65.265 19.4277 65.5055 20.0159 65.9445 20.4549C66.3816 20.892 66.9666 21.1324 67.5928 21.1324H67.601C68.232 21.1303 68.8241 20.8846 69.2681 20.4405L70.6235 19.0851C70.8965 18.8121 71.3392 18.8121 71.6122 19.0851C71.8852 19.3581 71.8852 19.8007 71.6122 20.0738ZM80.1974 14.0517L76.7798 17.4693C76.0511 18.198 75.0938 18.5624 74.1365 18.5624C73.1792 18.5624 72.222 18.1981 71.4932 17.4693C70.9791 16.9552 70.629 16.3066 70.4809 15.5938C70.4023 15.2158 70.6451 14.8455 71.0231 14.767C71.4009 14.6883 71.7713 14.9311 71.8499 15.3092C71.9425 15.7547 72.1611 16.1598 72.482 16.4806C73.3943 17.393 74.8788 17.3928 75.7911 16.4806L79.2087 13.063C80.1211 12.1506 80.1211 10.6662 79.2087 9.7538C78.7691 9.31423 78.1815 9.07216 77.5541 9.07216C76.9267 9.07216 76.3392 9.31423 75.8996 9.7538L74.5532 11.1001C74.2802 11.3732 73.8376 11.3732 73.5645 11.1001C73.2915 10.8271 73.2914 10.3845 73.5645 10.1114L74.9108 8.76507C75.6145 8.0614 76.5533 7.67385 77.5541 7.67385C78.555 7.67385 79.4937 8.0614 80.1974 8.76507C81.6549 10.2226 81.6549 12.5941 80.1974 14.0517Z" fill="#54C4FC"/>
<path d="M15.9045 0.185547C7.68081 0.185547 0.990234 6.87612 0.990234 15.0998C0.990234 23.3229 7.68081 30.0141 15.9045 30.0141C24.1276 30.0141 30.8188 23.3229 30.8188 15.0998C30.8188 6.87612 24.1288 0.185547 15.9045 0.185547ZM22.5578 11.6863C22.5644 11.8341 22.568 11.9831 22.568 12.1321C22.568 16.6684 19.1161 21.8973 12.8004 21.8973C10.8618 21.8973 9.05713 21.3308 7.53843 20.3564C7.80696 20.3882 8.08031 20.4044 8.35725 20.4044C9.96607 20.4044 11.4457 19.8554 12.6208 18.935C11.1189 18.9074 9.85072 17.9149 9.41397 16.5506C9.62304 16.5903 9.83871 16.6125 10.0592 16.6125C10.3722 16.6125 10.6762 16.5716 10.9639 16.493C9.39355 16.1782 8.21067 14.791 8.21067 13.1269C8.21067 13.1125 8.21067 13.0975 8.21127 13.0837C8.67385 13.3402 9.20311 13.4952 9.76541 13.5126C8.84506 12.8981 8.2389 11.8467 8.2389 10.656C8.2389 10.0265 8.40772 9.43652 8.70329 8.92949C10.3956 11.0069 12.926 12.373 15.7783 12.5172C15.7195 12.2655 15.69 12.0041 15.69 11.7344C15.69 9.83903 17.2267 8.3017 19.1221 8.3017C20.1098 8.3017 21.0007 8.71862 21.6279 9.38546C22.4106 9.23167 23.1436 8.94691 23.8086 8.55222C23.5503 9.35422 23.0078 10.0265 22.2971 10.4518C22.9922 10.3689 23.6554 10.1851 24.2688 9.91172C23.811 10.599 23.2289 11.2039 22.5578 11.6863Z" fill="#54C4FC"/>
<path d="M129.252 30.016C137.491 30.016 144.166 23.3406 144.166 15.1018C144.166 6.86287 137.491 0.1875 129.252 0.1875C121.013 0.1875 114.338 6.86287 114.338 15.1018C114.338 23.3406 121.013 30.016 129.252 30.016ZM121.162 14.7786L135.542 9.23424C136.21 8.99313 136.793 9.39706 136.576 10.4063L136.578 10.405L134.129 21.94C133.948 22.7578 133.462 22.9566 132.782 22.5713L129.053 19.8234L127.255 21.5559C127.056 21.7548 126.888 21.9226 126.503 21.9226L126.768 18.1281L133.678 11.8853C133.979 11.6205 133.611 11.4714 133.214 11.7349L124.675 17.1115L120.993 15.9631C120.194 15.7095 120.177 15.1639 121.162 14.7786Z" fill="#54C4FC"/>
</svg>
