<svg width="144" height="30" viewBox="0 0 144 30" fill="none" xmlns="http://www.w3.org/2000/svg">
<path d="M71.5885 0.00195312C63.3645 0.00195312 56.6738 6.69264 56.6738 14.9166C56.6738 23.1406 63.3645 29.8313 71.5885 29.8313C79.8124 29.8313 86.5031 23.1406 86.5031 14.9166C86.5031 6.69264 79.8124 0.00195312 71.5885 0.00195312ZM70.622 19.8882L69.2666 21.2436C68.5312 21.9789 67.5661 22.3469 66.6028 22.3469C65.6463 22.347 64.6917 21.9842 63.9655 21.258C63.2612 20.5537 62.8752 19.6126 62.8786 18.6082C62.8819 17.6055 63.273 16.6639 63.98 15.957L67.4205 12.5165C68.1274 11.8096 69.0689 11.4184 70.0716 11.4151C70.0759 11.4151 70.0803 11.4151 70.0846 11.4151C71.0843 11.4151 72.0202 11.8008 72.7215 12.5021C73.2361 13.0167 73.5855 13.6668 73.7319 14.3821C73.8093 14.7603 73.5654 15.1297 73.1872 15.2072C72.8088 15.285 72.4395 15.0408 72.362 14.6624C72.2707 14.2163 72.0531 13.8112 71.7328 13.4908C71.2957 13.0537 70.7106 12.8134 70.0844 12.8134C70.0817 12.8134 70.079 12.8134 70.0763 12.8134C69.4453 12.8155 68.8532 13.0611 68.4092 13.5052L64.9687 16.9458C64.5246 17.3898 64.2789 17.9819 64.2768 18.6128C64.2747 19.2421 64.5153 19.8304 64.9543 20.2694C65.3913 20.7064 65.9764 20.9468 66.6026 20.9468H66.6108C67.2418 20.9447 67.8338 20.699 68.2778 20.255L69.6332 18.8996C69.9062 18.6266 70.3489 18.6265 70.622 18.8996C70.895 19.1725 70.895 19.6152 70.622 19.8882ZM79.2072 13.8661L75.7896 17.2837C75.0608 18.0125 74.1036 18.3769 73.1463 18.3769C72.189 18.3769 71.2318 18.0125 70.503 17.2837C69.9889 16.7697 69.6388 16.1211 69.4907 15.4082C69.4121 15.0302 69.6548 14.66 70.0329 14.5814C70.4107 14.5028 70.7811 14.7456 70.8597 15.1237C70.9522 15.5691 71.1708 15.9742 71.4917 16.2951C72.404 17.2074 73.8886 17.2072 74.8009 16.2951L78.2185 12.8774C79.1308 11.9651 79.1308 10.4806 78.2185 9.56826C77.7789 9.12868 77.1913 8.88661 76.5639 8.88661C75.9365 8.88661 75.3489 9.12868 74.9093 9.56826L73.563 10.9146C73.2899 11.1876 72.8473 11.1876 72.5743 10.9146C72.3013 10.6415 72.3012 10.1989 72.5743 9.92586L73.9206 8.57952C74.6243 7.87585 75.563 7.4883 76.5639 7.4883C77.5648 7.4883 78.5035 7.87585 79.2072 8.57952C80.6647 10.037 80.6647 12.4086 79.2072 13.8661Z" fill="#54C4FC"/>
<path d="M14.9143 0C6.69057 0 0 6.69057 0 14.9143C0 23.1374 6.69057 29.8285 14.9143 29.8285C23.1374 29.8285 29.8285 23.1374 29.8285 14.9143C29.8285 6.69057 23.1386 0 14.9143 0ZM21.5676 11.5008C21.5742 11.6486 21.5778 11.7976 21.5778 11.9465C21.5778 16.4828 18.1259 21.7118 11.8102 21.7118C9.87155 21.7118 8.06689 21.1453 6.54819 20.1708C6.81673 20.2027 7.09007 20.2189 7.36702 20.2189C8.97583 20.2189 10.4555 19.6698 11.6306 18.7495C10.1287 18.7218 8.86049 17.7294 8.42374 16.3651C8.6328 16.4047 8.84847 16.427 9.06895 16.427C9.38194 16.427 9.68592 16.3861 9.97368 16.3074C8.40331 15.9926 7.22043 14.6055 7.22043 12.9414C7.22043 12.927 7.22044 12.912 7.22104 12.8981C7.68361 13.1547 8.21288 13.3097 8.77518 13.3271C7.85483 12.7125 7.24867 11.6612 7.24867 10.4705C7.24867 9.84091 7.41748 9.25098 7.71305 8.74394C9.40537 10.8213 11.9357 12.1875 14.7881 12.3316C14.7292 12.0799 14.6998 11.8186 14.6998 11.5489C14.6998 9.65348 16.2365 8.11616 18.1319 8.11616C19.1195 8.11616 20.0104 8.53308 20.6376 9.19991C21.4204 9.04612 22.1533 8.76136 22.8184 8.36667C22.56 9.16867 22.0175 9.84091 21.3069 10.2662C22.0019 10.1833 22.6652 9.99951 23.2785 9.72617C22.8208 10.4134 22.2386 11.0184 21.5676 11.5008Z" fill="#54C4FC"/>
<path d="M128.262 29.8305C136.501 29.8305 143.176 23.1551 143.176 14.9162C143.176 6.67733 136.501 0.00195312 128.262 0.00195312C120.023 0.00195312 113.348 6.67733 113.348 14.9162C113.348 23.1551 120.023 29.8305 128.262 29.8305ZM120.172 14.5931L134.552 9.0487C135.219 8.80758 135.802 9.21151 135.586 10.2207L135.587 10.2195L133.139 21.7544C132.957 22.5722 132.471 22.7711 131.792 22.3858L128.063 19.6378L126.265 21.3704C126.066 21.5692 125.898 21.737 125.513 21.737L125.777 17.9426L132.688 11.6997C132.988 11.435 132.621 11.2858 132.224 11.5493L123.684 16.9259L120.003 15.7775C119.204 15.524 119.187 14.9784 120.172 14.5931Z" fill="#54C4FC"/>
</svg>
