<svg width="141" height="30" viewBox="0 0 141 30" fill="none" xmlns="http://www.w3.org/2000/svg">
<path d="M70.1994 0.525391C62.1735 0.525391 55.644 7.05489 55.644 15.0807C55.644 23.1066 62.1735 29.6361 70.1994 29.6361C78.2252 29.6361 84.7547 23.1066 84.7547 15.0807C84.7547 7.05489 78.2252 0.525391 70.1994 0.525391ZM69.2561 19.9326L67.9334 21.2553C67.2158 21.9729 66.2739 22.332 65.3338 22.332C64.4004 22.3321 63.4688 21.978 62.7601 21.2694C62.0727 20.582 61.696 19.6636 61.6993 18.6834C61.7026 17.7048 62.0843 16.7859 62.7742 16.0961L66.1318 12.7384C66.8216 12.0486 67.7405 11.6668 68.7191 11.6636C68.7232 11.6636 68.7275 11.6635 68.7317 11.6635C69.7073 11.6635 70.6207 12.04 71.3051 12.7244C71.8073 13.2266 72.1483 13.861 72.2912 14.5591C72.3667 14.9282 72.1287 15.2887 71.7595 15.3643C71.3903 15.4402 71.0299 15.2019 70.9543 14.8327C70.8652 14.3973 70.6528 14.0019 70.3402 13.6893C69.9137 13.2627 69.3427 13.0281 68.7316 13.0281C68.7289 13.0281 68.7263 13.0281 68.7236 13.0281C68.1078 13.0302 67.53 13.27 67.0967 13.7033L63.739 17.061C63.3057 17.4944 63.0659 18.0721 63.0639 18.6879C63.0618 19.302 63.2966 19.8761 63.725 20.3045C64.1515 20.7311 64.7225 20.9656 65.3336 20.9656H65.3416C65.9574 20.9636 66.5352 20.7238 66.9685 20.2905L68.2912 18.9678C68.5576 18.7013 68.9897 18.7013 69.2561 18.9678C69.5226 19.2341 69.5226 19.6661 69.2561 19.9326ZM77.6346 14.0556L74.2993 17.3908C73.5881 18.102 72.6539 18.4576 71.7196 18.4576C70.7854 18.4576 69.8513 18.1021 69.14 17.3908C68.6383 16.8891 68.2967 16.2562 68.1521 15.5605C68.0754 15.1916 68.3123 14.8303 68.6813 14.7536C69.05 14.6769 69.4114 14.9138 69.4881 15.2828C69.5785 15.7175 69.7918 16.1129 70.105 16.426C70.9953 17.3163 72.444 17.3162 73.3344 16.426L76.6696 13.0907C77.56 12.2003 77.56 10.7516 76.6696 9.86123C76.2407 9.43224 75.6672 9.196 75.0549 9.196C74.4426 9.196 73.8692 9.43224 73.4402 9.86123L72.1263 11.1751C71.8598 11.4416 71.4279 11.4416 71.1614 11.1751C70.895 10.9086 70.8949 10.4767 71.1614 10.2102L72.4753 8.89631C73.162 8.20959 74.0782 7.83138 75.0549 7.83138C76.0317 7.83138 76.9478 8.20959 77.6346 8.89631C79.0569 10.3187 79.0569 12.6331 77.6346 14.0556Z" fill="#54C4FC"/>
<path d="M14.8889 0.523438C6.86337 0.523438 0.333984 7.05282 0.333984 15.0784C0.333984 23.1034 6.86337 29.6333 14.8889 29.6333C22.9139 29.6333 29.4439 23.1034 29.4439 15.0784C29.4439 7.05282 22.9151 0.523438 14.8889 0.523438ZM21.382 11.7472C21.3884 11.8914 21.3919 12.0368 21.3919 12.1822C21.3919 16.6092 18.0232 21.7121 11.8596 21.7121C9.96771 21.7121 8.20653 21.1593 6.72442 20.2083C6.98649 20.2394 7.25324 20.2552 7.52352 20.2552C9.09357 20.2552 10.5376 19.7194 11.6843 18.8212C10.2186 18.7942 8.98101 17.8257 8.55478 16.4942C8.75881 16.5329 8.96928 16.5546 9.18444 16.5546C9.4899 16.5546 9.78655 16.5148 10.0674 16.438C8.53485 16.1308 7.38047 14.777 7.38047 13.153C7.38047 13.139 7.38047 13.1243 7.38105 13.1108C7.83249 13.3612 8.349 13.5124 8.89775 13.5294C7.99958 12.9297 7.40802 11.9037 7.40802 10.7417C7.40802 10.1273 7.57276 9.55154 7.86121 9.05672C9.51276 11.0841 11.9822 12.4173 14.7658 12.558C14.7084 12.3123 14.6796 12.0573 14.6796 11.7941C14.6796 9.94435 16.1793 8.44406 18.029 8.44406C18.9929 8.44406 19.8623 8.85094 20.4744 9.50171C21.2383 9.35162 21.9536 9.07372 22.6026 8.68854C22.3505 9.47122 21.8211 10.1273 21.1275 10.5424C21.8058 10.4614 22.4531 10.282 23.0517 10.0153C22.6049 10.686 22.0368 11.2764 21.382 11.7472Z" fill="#54C4FC"/>
<path d="M125.507 29.6353C133.547 29.6353 140.062 23.1207 140.062 15.0803C140.062 7.03994 133.547 0.525391 125.507 0.525391C117.466 0.525391 110.952 7.03994 110.952 15.0803C110.952 23.1207 117.466 29.6353 125.507 29.6353ZM117.612 14.765L131.645 9.35418C132.296 9.11887 132.865 9.51307 132.654 10.498L132.656 10.4967L130.266 21.7538C130.089 22.5519 129.615 22.7459 128.951 22.3699L125.313 19.6882L123.557 21.379C123.363 21.5731 123.2 21.7368 122.824 21.7368L123.082 18.0338L129.826 11.9413C130.119 11.683 129.76 11.5374 129.373 11.7946L121.039 17.0416L117.447 15.9209C116.667 15.6735 116.65 15.141 117.612 14.765Z" fill="#54C4FC"/>
</svg>
