<svg width="140" height="30" viewBox="0 0 140 30" fill="none" xmlns="http://www.w3.org/2000/svg">
<path d="M69.8664 0.404297C61.8405 0.404297 55.311 6.93379 55.311 14.9596C55.311 22.9855 61.8405 29.515 69.8664 29.515C77.8922 29.515 84.4217 22.9855 84.4217 14.9596C84.4217 6.93379 77.8922 0.404297 69.8664 0.404297ZM68.9231 19.8115L67.6004 21.1342C66.8828 21.8518 65.9409 22.2109 65.0008 22.2109C64.0674 22.211 63.1358 21.8569 62.4271 21.1483C61.7397 20.4609 61.363 19.5425 61.3663 18.5623C61.3696 17.5837 61.7513 16.6648 62.4412 15.975L65.7988 12.6173C66.4886 11.9275 67.4075 11.5457 68.3861 11.5425C68.3902 11.5425 68.3945 11.5424 68.3987 11.5424C69.3743 11.5424 70.2877 11.9189 70.9721 12.6033C71.4743 13.1055 71.8153 13.7399 71.9581 14.438C72.0337 14.8071 71.7957 15.1676 71.4265 15.2432C71.0573 15.3191 70.6969 15.0808 70.6213 14.7116C70.5322 14.2762 70.3198 13.8808 70.0072 13.5682C69.5807 13.1416 69.0097 12.9071 68.3986 12.9071C68.3959 12.9071 68.3933 12.9071 68.3906 12.9071C67.7748 12.9091 67.197 13.1489 66.7636 13.5822L63.406 16.9399C62.9727 17.3733 62.7329 17.9511 62.7309 18.5668C62.7288 19.1809 62.9636 19.755 63.392 20.1834C63.8185 20.61 64.3895 20.8446 65.0006 20.8446H65.0086C65.6244 20.8425 66.2022 20.6027 66.6355 20.1694L67.9582 18.8467C68.2246 18.5802 68.6567 18.5802 68.9231 18.8467C69.1896 19.113 69.1896 19.545 68.9231 19.8115ZM77.3015 13.9345L73.9663 17.2697C73.2551 17.9809 72.3209 18.3365 71.3866 18.3365C70.4524 18.3365 69.5182 17.981 68.807 17.2697C68.3053 16.768 67.9637 16.1351 67.8191 15.4394C67.7424 15.0705 67.9793 14.7092 68.3482 14.6325C68.717 14.5558 69.0784 14.7927 69.1551 15.1617C69.2454 15.5964 69.4588 15.9918 69.7719 16.3049C70.6623 17.1953 72.111 17.1951 73.0014 16.3049L76.3366 12.9696C77.227 12.0792 77.227 10.6305 76.3366 9.74013C75.9076 9.31115 75.3342 9.07491 74.7219 9.07491C74.1096 9.07491 73.5362 9.31115 73.1072 9.74013L71.7933 11.054C71.5268 11.3205 71.0949 11.3205 70.8284 11.054C70.562 10.7875 70.5619 10.3556 70.8284 10.0891L72.1423 8.77521C72.829 8.0885 73.7452 7.71029 74.7219 7.71029C75.6987 7.71029 76.6148 8.0885 77.3015 8.77521C78.7239 10.1976 78.7239 12.512 77.3015 13.9345Z" fill="#54C4FC"/>
<path d="M14.5564 0.402344C6.53085 0.402344 0.00146484 6.93173 0.00146484 14.9573C0.00146484 22.9823 6.53085 29.5122 14.5564 29.5122C22.5814 29.5122 29.1114 22.9823 29.1114 14.9573C29.1114 6.93173 22.5826 0.402344 14.5564 0.402344ZM21.0494 11.6261C21.0559 11.7703 21.0594 11.9157 21.0594 12.0611C21.0594 16.4881 17.6907 21.591 11.5271 21.591C9.63519 21.591 7.87401 21.0382 6.3919 20.0872C6.65397 20.1183 6.92072 20.1341 7.191 20.1341C8.76105 20.1341 10.2051 19.5983 11.3518 18.7001C9.88612 18.6731 8.64849 17.7046 8.22226 16.3732C8.42629 16.4118 8.63676 16.4335 8.85192 16.4335C9.15738 16.4335 9.45403 16.3937 9.73486 16.3169C8.20233 16.0097 7.04795 14.6559 7.04795 13.032C7.04795 13.0179 7.04795 13.0032 7.04853 12.9897C7.49997 13.2401 8.01648 13.3913 8.56524 13.4083C7.66706 12.8086 7.0755 11.7826 7.0755 10.6206C7.0755 10.0062 7.24025 9.43045 7.52869 8.93563C9.18024 10.963 11.6496 12.2962 14.4333 12.4369C14.3758 12.1912 14.3471 11.9362 14.3471 11.673C14.3471 9.82325 15.8468 8.32297 17.6965 8.32297C18.6604 8.32297 19.5298 8.72984 20.1419 9.38061C20.9058 9.23053 21.6211 8.95263 22.2701 8.56744C22.018 9.35013 21.4886 10.0062 20.795 10.4213C21.4733 10.3404 22.1206 10.1609 22.7192 9.89419C22.2724 10.5649 21.7043 11.1553 21.0494 11.6261Z" fill="#54C4FC"/>
<path d="M125.174 29.5142C133.214 29.5142 139.729 22.9996 139.729 14.9592C139.729 6.91885 133.214 0.404297 125.174 0.404297C117.133 0.404297 110.619 6.91885 110.619 14.9592C110.619 22.9996 117.133 29.5142 125.174 29.5142ZM117.279 14.6439L131.312 9.23309C131.963 8.99778 132.532 9.39198 132.321 10.3769L132.323 10.3756L129.933 21.6327C129.756 22.4308 129.282 22.6249 128.618 22.2488L124.98 19.5671L123.224 21.2579C123.03 21.452 122.867 21.6157 122.491 21.6157L122.749 17.9127L129.493 11.8202C129.786 11.5619 129.427 11.4163 129.04 11.6735L120.706 16.9205L117.114 15.7998C116.334 15.5524 116.317 15.0199 117.279 14.6439Z" fill="#54C4FC"/>
</svg>
