<svg width="27" height="26" viewBox="0 0 27 26" fill="none" xmlns="http://www.w3.org/2000/svg">
<path d="M13.1733 25.999C6.05046 25.999 0.222656 20.1712 0.222656 13.0483C0.222656 5.92546 6.05046 0.0976562 13.1733 0.0976562C20.2962 0.0976562 26.124 5.92546 26.124 13.0483C26.124 20.1712 20.2962 25.999 13.1733 25.999ZM13.1733 2.68779C7.47504 2.68779 2.81279 7.35004 2.81279 13.0483C2.81279 18.7466 7.47504 23.4089 13.1733 23.4089C18.8716 23.4089 23.5339 18.7466 23.5339 13.0483C23.5339 7.35004 18.8716 2.68779 13.1733 2.68779Z" fill="url(#paint0_linear_876_9416)"/>
<path d="M13.172 19.5225C12.395 19.5225 11.877 19.0045 11.877 18.2274V11.7521C11.877 10.9751 12.395 10.457 13.172 10.457C13.9491 10.457 14.4671 10.9751 14.4671 11.7521V18.2274C14.4671 19.0045 13.9491 19.5225 13.172 19.5225Z" fill="url(#paint1_linear_876_9416)"/>
<path d="M13.172 9.16436C13.8873 9.16436 14.4671 8.58453 14.4671 7.86929C14.4671 7.15404 13.8873 6.57422 13.172 6.57422C12.4568 6.57422 11.877 7.15404 11.877 7.86929C11.877 8.58453 12.4568 9.16436 13.172 9.16436Z" fill="url(#paint2_linear_876_9416)"/>
<defs>
<linearGradient id="paint0_linear_876_9416" x1="13.1733" y1="0.0976562" x2="13.1733" y2="25.999" gradientUnits="userSpaceOnUse">
<stop stop-color="#54C4FC"/>
<stop offset="1" stop-color="#2479DF"/>
</linearGradient>
<linearGradient id="paint1_linear_876_9416" x1="13.172" y1="10.457" x2="13.172" y2="19.5225" gradientUnits="userSpaceOnUse">
<stop stop-color="#54C4FC"/>
<stop offset="1" stop-color="#2479DF"/>
</linearGradient>
<linearGradient id="paint2_linear_876_9416" x1="13.172" y1="6.57422" x2="13.172" y2="9.16436" gradientUnits="userSpaceOnUse">
<stop stop-color="#54C4FC"/>
<stop offset="1" stop-color="#2479DF"/>
</linearGradient>
</defs>
</svg>
