<svg width="36" height="36" viewBox="0 0 36 36" fill="none" xmlns="http://www.w3.org/2000/svg">
<path d="M24.4054 13.4365L19.7938 17.9839L24.4054 22.5312C24.5337 22.6514 24.6361 22.7966 24.706 22.9579C24.7759 23.1192 24.812 23.2932 24.812 23.469C24.812 23.6448 24.7759 23.8187 24.706 23.98C24.6361 24.1413 24.5337 24.2866 24.4054 24.4067C24.2854 24.5258 24.143 24.62 23.9865 24.6839C23.83 24.7478 23.6624 24.7802 23.4934 24.7792C23.1564 24.7778 22.8334 24.644 22.5942 24.4067L17.9826 19.7951L13.4352 24.4067C13.196 24.644 12.873 24.7778 12.536 24.7792C12.367 24.7802 12.1994 24.7478 12.0429 24.6839C11.8864 24.62 11.744 24.5258 11.624 24.4067C11.3847 24.166 11.2505 23.8405 11.2505 23.5011C11.2505 23.1617 11.3847 22.8362 11.624 22.5955L16.1714 17.9839L11.624 13.4365C11.4136 13.1908 11.3036 12.8747 11.3161 12.5514C11.3286 12.2281 11.4626 11.9214 11.6914 11.6927C11.9201 11.4639 12.2268 11.3299 12.5501 11.3174C12.8734 11.3049 13.1895 11.4149 13.4352 11.6253L17.9826 16.1727L22.5299 11.6253C22.6489 11.5022 22.7909 11.4036 22.9479 11.3354C23.1049 11.2671 23.2738 11.2305 23.445 11.2275C23.6161 11.2245 23.7862 11.2553 23.9455 11.318C24.1048 11.3808 24.2501 11.4743 24.3733 11.5932C24.4964 11.7121 24.5949 11.8541 24.6632 12.0111C24.7315 12.1681 24.7681 12.337 24.7711 12.5082C24.7741 12.6794 24.7433 12.8495 24.6806 13.0087C24.6178 13.168 24.5243 13.3134 24.4054 13.4365ZM30.6998 30.7011C28.1846 33.216 24.9802 34.9286 21.4917 35.6224C18.0032 36.3161 14.3873 35.9599 11.1013 34.5987C7.81531 33.2374 5.00672 30.9324 3.0307 27.975C1.05469 25.0176 0 21.5407 0 17.9839C0 14.4271 1.05469 10.9502 3.0307 7.99277C5.00672 5.03538 7.81531 2.73034 11.1013 1.36913C14.3873 0.00791386 18.0032 -0.348334 21.4917 0.345429C24.9802 1.03919 28.1846 2.75181 30.6998 5.26672C32.3699 6.9367 33.6948 8.91931 34.5987 11.1013C35.5025 13.2834 35.9678 15.6221 35.9678 17.9839C35.9678 20.3457 35.5025 22.6844 34.5987 24.8665C33.6948 27.0485 32.3699 29.0311 30.6998 30.7011ZM28.8885 7.07795C26.7306 4.92751 23.9839 3.46471 20.9952 2.87427C18.0065 2.28382 14.9098 2.59221 12.0963 3.76048C9.2827 4.92876 6.8784 6.90454 5.18697 9.43832C3.49554 11.9721 2.59283 14.9503 2.59283 17.9967C2.59283 21.0432 3.49554 24.0214 5.18697 26.5552C6.8784 29.0889 9.2827 31.0647 12.0963 32.233C14.9098 33.4013 18.0065 33.7097 20.9952 33.1192C23.9839 32.5288 26.7306 31.066 28.8885 28.9155C30.3256 27.4834 31.4658 25.7818 32.2438 23.9081C33.0219 22.0344 33.4223 20.0255 33.4223 17.9967C33.4223 15.9679 33.0219 13.9591 32.2438 12.0854C31.4658 10.2117 30.3256 8.51004 28.8885 7.07795Z" fill="url(#paint0_linear_876_9879)"/>
<defs>
<linearGradient id="paint0_linear_876_9879" x1="17.9839" y1="0" x2="17.9839" y2="35.9678" gradientUnits="userSpaceOnUse">
<stop stop-color="#54C4FC"/>
<stop offset="1" stop-color="#2378DE"/>
</linearGradient>
</defs>
</svg>
