<svg width="24" height="23" viewBox="0 0 24 23" fill="none" xmlns="http://www.w3.org/2000/svg">
<path fill-rule="evenodd" clip-rule="evenodd" d="M23.131 11.2281C23.131 17.4292 18.0439 22.4561 11.7686 22.4561C5.49335 22.4561 0.40625 17.4292 0.40625 11.2281C0.40625 5.02698 5.49335 0 11.7686 0C18.0439 0 23.131 5.02698 23.131 11.2281ZM8.00407 16.0724C10.6933 16.0724 12.8734 13.9033 12.8734 11.2276C12.8734 8.55189 10.6933 6.38281 8.00411 6.38281C5.31483 6.38281 3.13477 8.55189 3.13477 11.2276C3.13477 13.9033 5.31483 16.0724 8.00407 16.0724ZM18.215 11.2285C18.215 13.7472 17.125 15.789 15.7804 15.789C14.4357 15.789 13.3457 13.7472 13.3457 11.2285C13.3457 8.70977 14.4357 6.66797 15.7804 6.66797C17.125 6.66797 18.215 8.70977 18.215 11.2285ZM19.5438 15.3127C20.0167 15.3127 20.4001 13.4833 20.4001 11.2267C20.4001 8.97001 20.0167 7.14062 19.5438 7.14062C19.0708 7.14062 18.6875 8.97001 18.6875 11.2267C18.6875 13.4833 19.0708 15.3127 19.5438 15.3127Z" fill="white"/>
</svg>
