<svg width="24" height="23" viewBox="0 0 24 23" fill="none" xmlns="http://www.w3.org/2000/svg">
<path fill-rule="evenodd" clip-rule="evenodd" d="M23.129 11.2281C23.129 17.4292 18.0419 22.4561 11.7666 22.4561C5.49139 22.4561 0.404297 17.4292 0.404297 11.2281C0.404297 5.02698 5.49139 0 11.7666 0C18.0419 0 23.129 5.02698 23.129 11.2281ZM8.00211 16.0724C10.6914 16.0724 12.8715 13.9033 12.8715 11.2276C12.8715 8.55189 10.6914 6.38281 8.00216 6.38281C5.31288 6.38281 3.13281 8.55189 3.13281 11.2276C3.13281 13.9033 5.31287 16.0724 8.00211 16.0724ZM18.2132 11.2275C18.2132 13.7462 17.1231 15.788 15.7785 15.788C14.4339 15.788 13.3439 13.7462 13.3439 11.2275C13.3439 8.70879 14.4339 6.66699 15.7785 6.66699C17.1231 6.66699 18.2132 8.70879 18.2132 11.2275ZM19.5418 15.3127C20.0147 15.3127 20.3981 13.4833 20.3981 11.2267C20.3981 8.97001 20.0147 7.14062 19.5418 7.14062C19.0688 7.14062 18.6855 8.97001 18.6855 11.2267C18.6855 13.4833 19.0689 15.3127 19.5418 15.3127Z" fill="white"/>
</svg>
