<svg width="24" height="24" viewBox="0 0 24 24" fill="none" xmlns="http://www.w3.org/2000/svg">
<path fill-rule="evenodd" clip-rule="evenodd" d="M23.129 12.1343C23.129 18.3354 18.0419 23.3624 11.7666 23.3624C5.49139 23.3624 0.404297 18.3354 0.404297 12.1343C0.404297 5.93323 5.49139 0.90625 11.7666 0.90625C18.0419 0.90625 23.129 5.93323 23.129 12.1343ZM8.00211 16.9786C10.6914 16.9786 12.8715 14.8095 12.8715 12.1338C12.8715 9.45814 10.6914 7.28906 8.00216 7.28906C5.31288 7.28906 3.13281 9.45814 3.13281 12.1338C3.13281 14.8095 5.31287 16.9786 8.00211 16.9786ZM18.2132 12.1338C18.2132 14.6525 17.1231 16.6943 15.7785 16.6943C14.4339 16.6943 13.3439 14.6525 13.3439 12.1338C13.3439 9.61504 14.4339 7.57324 15.7785 7.57324C17.1231 7.57324 18.2132 9.61504 18.2132 12.1338ZM19.5418 16.219C20.0147 16.219 20.3981 14.3896 20.3981 12.1329C20.3981 9.87626 20.0147 8.04688 19.5418 8.04688C19.0688 8.04688 18.6855 9.87626 18.6855 12.1329C18.6855 14.3896 19.0689 16.219 19.5418 16.219Z" fill="white"/>
</svg>
