<svg width="25" height="28" viewBox="0 0 25 28" fill="none" xmlns="http://www.w3.org/2000/svg">
<path fill-rule="evenodd" clip-rule="evenodd" d="M11.666 3.4536V0.852275C11.666 0.381817 12.0478 0 12.5183 0C12.9887 0 13.3706 0.381817 13.3706 0.852275V3.45741C17.349 3.89212 20.455 7.2724 20.455 11.3647V14.533C20.455 16.7819 21.4403 18.9045 23.1573 20.3568C23.6107 20.7432 23.8641 21.2942 23.8641 21.8762C23.8641 22.9727 22.9721 23.8648 21.8755 23.8648H16.6754C16.2796 25.8076 14.5578 27.2738 12.4997 27.2738C10.4415 27.2738 8.71973 25.8076 8.32388 23.8648H3.1255C2.02874 23.8648 1.13672 22.9727 1.13672 21.8762C1.13672 21.2942 1.39015 20.7432 1.83231 20.3647C3.56058 18.9045 4.54582 16.7819 4.54582 14.533V11.3647C4.54582 7.26021 7.67036 3.87199 11.666 3.4536ZM0.852275 12.2147C0.381817 12.2147 0 11.8329 0 11.3624C0 7.64432 1.44779 4.14762 4.07723 1.51922C4.41015 1.1863 4.9501 1.1863 5.28302 1.51922C5.61594 1.85214 5.61594 2.3921 5.28302 2.72502C2.97506 5.03173 1.70455 8.09876 1.70455 11.3624C1.70455 11.8329 1.32273 12.2147 0.852275 12.2147ZM24.1479 12.2157C23.6775 12.2157 23.2957 11.8339 23.2957 11.3635C23.2957 8.0998 22.0254 5.03277 19.7184 2.72481C19.3855 2.39189 19.3855 1.85214 19.7184 1.51922C20.0514 1.1863 20.5911 1.1863 20.9242 1.51922C23.5526 4.14866 25.0002 7.64536 25.0002 11.3635C25.0002 11.8339 24.6184 12.2157 24.1479 12.2157ZM9.09056 22.1602L9.09966 22.1602H15.8997L15.9088 22.1602L15.9179 22.1602H21.8755C22.0299 22.1602 22.1596 22.0306 22.1596 21.8762C22.1596 21.7626 22.0971 21.692 22.0595 21.6602C19.9561 19.8818 18.7505 17.284 18.7505 14.533V11.3647C18.7505 7.9181 15.9471 5.11471 12.5005 5.11471C9.05376 5.11471 6.25037 7.9181 6.25037 11.3647V14.533C6.25037 17.284 5.04478 19.8818 2.94364 21.6579C2.9039 21.692 2.84127 21.7626 2.84127 21.8762C2.84127 22.0306 2.9709 22.1602 3.1255 22.1602H9.08145L9.09056 22.1602ZM12.4997 25.5693C13.6111 25.5693 14.5589 24.857 14.9105 23.8648H10.0888C10.4404 24.857 11.3881 25.5693 12.4997 25.5693Z" fill="white"/>
</svg>
