<svg width="30" height="29" viewBox="0 0 30 29" fill="none" xmlns="http://www.w3.org/2000/svg">
<path d="M14.999 28.7089C22.9286 28.7089 29.3534 22.2841 29.3534 14.3544C29.3534 6.4248 22.9286 0 14.999 0C7.06933 0 0.644531 6.4248 0.644531 14.3544C0.644531 22.2841 7.06933 28.7089 14.999 28.7089ZM7.21288 14.0434L21.0529 8.70716C21.6953 8.47509 22.2563 8.86386 22.0482 9.83518L22.0494 9.83398L19.6929 20.9359C19.5182 21.723 19.0505 21.9144 18.3962 21.5436L14.8076 18.8988L13.0767 20.5663C12.8853 20.7577 12.7238 20.9192 12.353 20.9192L12.6078 17.2672L19.2586 11.2587C19.5481 11.0039 19.194 10.8603 18.8125 11.1139L10.5933 16.2887L7.0502 15.1834C6.28104 14.9394 6.26429 14.4142 7.21288 14.0434Z" fill="#54C4FC"/>
</svg>
