<svg width="26" height="25" viewBox="0 0 26 25" fill="none" xmlns="http://www.w3.org/2000/svg">
<path d="M12.7268 0C5.86537 0 0.283203 5.58217 0.283203 12.4436C0.283203 19.305 5.86537 24.8872 12.7268 24.8872C19.5882 24.8872 25.1703 19.305 25.1703 12.4436C25.1703 5.58217 19.5882 0 12.7268 0ZM11.9204 16.5915L10.7896 17.7223C10.1761 18.3358 9.37081 18.6428 8.56713 18.6428C7.76914 18.6429 6.9727 18.3402 6.36681 17.7344C5.77919 17.1467 5.45711 16.3616 5.45993 15.5235C5.46275 14.6869 5.78905 13.9014 6.37886 13.3116L9.24934 10.4411C9.8391 9.85134 10.6247 9.52498 11.4612 9.52221C11.4648 9.52221 11.4685 9.52216 11.4721 9.52216C12.3061 9.52216 13.087 9.844 13.6721 10.4291C14.1014 10.8584 14.3929 11.4008 14.5151 11.9976C14.5797 12.3132 14.3762 12.6214 14.0606 12.686C13.7449 12.7509 13.4368 12.5472 13.3722 12.2315C13.296 11.8593 13.1144 11.5213 12.8471 11.254C12.4825 10.8894 11.9944 10.6888 11.4719 10.6888C11.4697 10.6888 11.4674 10.6888 11.4651 10.6888C10.9387 10.6905 10.4447 10.8955 10.0742 11.266L7.20373 14.1365C6.83325 14.507 6.62827 15.001 6.62652 15.5274C6.62477 16.0524 6.82547 16.5432 7.19173 16.9095C7.55638 17.2741 8.0445 17.4747 8.56694 17.4747H8.57379C9.10026 17.4729 9.59422 17.268 9.96466 16.8975L11.0955 15.7667C11.3232 15.5389 11.6926 15.5388 11.9204 15.7667C12.1482 15.9944 12.1482 16.3637 11.9204 16.5915ZM19.0832 11.5671L16.2319 14.4185C15.6238 15.0265 14.8252 15.3306 14.0265 15.3306C13.2278 15.3306 12.4292 15.0266 11.8211 14.4185C11.3922 13.9896 11.1001 13.4485 10.9765 12.8537C10.911 12.5384 11.1135 12.2295 11.4289 12.1639C11.7441 12.0983 12.0531 12.3009 12.1187 12.6163C12.1959 12.988 12.3783 13.326 12.6461 13.5936C13.4072 14.3548 14.6458 14.3547 15.4069 13.5936L18.2583 10.7423C19.0195 9.98107 19.0195 8.74255 18.2583 7.98135C17.8916 7.6146 17.4013 7.41264 16.8778 7.41264C16.3544 7.41264 15.8642 7.6146 15.4974 7.98135L14.3742 9.10462C14.1463 9.3324 13.7771 9.3324 13.5492 9.10462C13.3215 8.8768 13.3214 8.50753 13.5492 8.2797L14.6725 7.15642C15.2596 6.56934 16.0428 6.246 16.8778 6.246C17.7129 6.246 18.4961 6.56934 19.0832 7.15642C20.2992 8.37245 20.2992 10.3511 19.0832 11.5671Z" fill="#54C4FC"/>
</svg>
