<svg width="29" height="29" viewBox="0 0 29 29" fill="none" xmlns="http://www.w3.org/2000/svg">
<path d="M14.6454 0C6.71892 0 0.291016 6.42791 0.291016 14.3544C0.291016 22.281 6.71892 28.7089 14.6454 28.7089C22.572 28.7089 28.9999 22.281 28.9999 14.3544C28.9999 6.42791 22.572 0 14.6454 0ZM10.4742 21.6999H6.97826V11.1822H10.4742V21.6999ZM8.72635 9.74601H8.70357C7.53044 9.74601 6.77171 8.93845 6.77171 7.92915C6.77171 6.89707 7.55365 6.11185 8.74956 6.11185C9.94547 6.11185 10.6814 6.89707 10.7042 7.92915C10.7042 8.93845 9.94547 9.74601 8.72635 9.74601ZM23.0799 21.6999H19.5844V16.0732C19.5844 14.6591 19.0782 13.6947 17.8133 13.6947C16.8476 13.6947 16.2724 14.3452 16.0196 14.9732C15.9272 15.1979 15.9047 15.512 15.9047 15.8263V21.6999H12.4089C12.4089 21.6999 12.4547 12.1689 12.4089 11.1822H15.9047V12.6714C16.3692 11.9547 17.2004 10.9354 19.0552 10.9354C21.3552 10.9354 23.0799 12.4386 23.0799 15.6691V21.6999Z" fill="#54C4FC"/>
</svg>
