<svg width="30" height="29" viewBox="0 0 30 29" fill="none" xmlns="http://www.w3.org/2000/svg">
<path d="M14.9999 28.7089C22.9296 28.7089 29.3544 22.2841 29.3544 14.3544C29.3544 6.4248 22.9296 0 14.9999 0C7.07031 0 0.645508 6.4248 0.645508 14.3544C0.645508 22.2841 7.07031 28.7089 14.9999 28.7089ZM7.21386 14.0434L21.0539 8.70716C21.6963 8.47509 22.2573 8.86386 22.0492 9.83518L22.0504 9.83398L19.6938 20.9359C19.5192 21.723 19.0515 21.9144 18.3972 21.5436L14.8085 18.8988L13.0776 20.5663C12.8862 20.7577 12.7248 20.9192 12.3539 20.9192L12.6087 17.2672L19.2596 11.2587C19.5491 11.0039 19.195 10.8603 18.8134 11.1139L10.5943 16.2887L7.05117 15.1834C6.28201 14.9394 6.26527 14.4142 7.21386 14.0434Z" fill="#54C4FC"/>
</svg>
