<svg width="12" height="12" viewBox="0 0 12 12" fill="none" xmlns="http://www.w3.org/2000/svg">
<path d="M5.82848 11.5499C7.30426 11.5497 8.78066 10.9879 9.90422 9.86438C10.993 8.77572 11.5924 7.32822 11.5924 5.78864C11.5924 4.24907 10.9929 2.80157 9.90422 1.71291C7.6568 -0.534587 4.00001 -0.534433 1.75274 1.71291C0.664005 2.80157 0.0644531 4.24907 0.0644531 5.78864C0.0644531 7.32822 0.664082 8.77572 1.75274 9.86438C2.87653 10.9882 4.35216 11.5501 5.82848 11.5499ZM3.38293 3.34317C4.05711 2.66891 4.94272 2.33182 5.82833 2.33182C6.71401 2.33182 7.59962 2.66891 8.2738 3.34317C8.927 3.99637 9.28668 4.86484 9.28668 5.78856C9.28668 6.71229 8.927 7.58084 8.2738 8.23404C6.92544 9.58247 4.73129 9.58239 3.38285 8.23404C2.72966 7.58084 2.3699 6.71237 2.3699 5.78864C2.3699 4.86491 2.72973 3.99637 3.38293 3.34317Z" fill="#FFB800"/>
</svg>
