<svg width="16" height="15" viewBox="0 0 16 15" fill="none" xmlns="http://www.w3.org/2000/svg">
<path d="M13.6223 3.83565H3.94631C3.43735 3.83565 2.95935 3.59598 2.65617 3.19885C2.95097 2.81192 3.41993 2.56077 3.94631 2.56077H14.9124C16.1845 2.53909 16.1839 0.669473 14.9124 0.648438H3.94631C1.99046 0.648438 0.398438 2.22101 0.398438 4.15438V11.1663C0.398438 13.0996 1.99046 14.6722 3.94631 14.6722H13.6223C14.8673 14.6722 15.88 13.6714 15.88 12.4411V6.06671C15.88 4.83644 14.8673 3.83565 13.6223 3.83565ZM13.9448 12.4411C13.9448 12.6171 13.7997 12.7599 13.6223 12.7599H3.94631C3.05676 12.7599 2.33364 12.0447 2.33364 11.1663V5.36297C2.82582 5.61157 3.37736 5.74799 3.94631 5.74799H13.6223C13.7997 5.74799 13.9448 5.89077 13.9448 6.06671V12.4411ZM12.6547 9.25392C12.6328 10.511 10.7408 10.5103 10.7195 9.25392C10.7414 7.99689 12.6334 7.99752 12.6547 9.25392Z" fill="white"/>
</svg>
