<svg width="26" height="25" viewBox="0 0 26 25" fill="none" xmlns="http://www.w3.org/2000/svg">
<path d="M12.7248 0C5.86342 0 0.28125 5.58217 0.28125 12.4436C0.28125 19.305 5.86342 24.8872 12.7248 24.8872C19.5862 24.8872 25.1684 19.305 25.1684 12.4436C25.1684 5.58217 19.5862 0 12.7248 0ZM11.9184 16.5915L10.7876 17.7223C10.1741 18.3358 9.36886 18.6428 8.56518 18.6428C7.76719 18.6429 6.97075 18.3402 6.36485 17.7344C5.77723 17.1467 5.45516 16.3616 5.45798 15.5235C5.4608 14.6869 5.7871 13.9014 6.37691 13.3116L9.24739 10.4411C9.83715 9.85134 10.6227 9.52498 11.4593 9.52221C11.4628 9.52221 11.4665 9.52216 11.4701 9.52216C12.3041 9.52216 13.085 9.844 13.6701 10.4291C14.0995 10.8584 14.391 11.4008 14.5131 11.9976C14.5777 12.3132 14.3742 12.6214 14.0586 12.686C13.743 12.7509 13.4349 12.5472 13.3702 12.2315C13.294 11.8593 13.1125 11.5213 12.8452 11.254C12.4806 10.8894 11.9924 10.6888 11.47 10.6888C11.4677 10.6888 11.4655 10.6888 11.4632 10.6888C10.9367 10.6905 10.4428 10.8955 10.0723 11.266L7.20178 14.1365C6.83129 14.507 6.62631 15.001 6.62456 15.5274C6.62281 16.0524 6.82352 16.5432 7.18978 16.9095C7.55443 17.2741 8.04255 17.4747 8.56499 17.4747H8.57184C9.09831 17.4729 9.59226 17.268 9.9627 16.8975L11.0935 15.7667C11.3213 15.5389 11.6907 15.5388 11.9184 15.7667C12.1462 15.9944 12.1462 16.3637 11.9184 16.5915ZM19.0813 11.5671L16.2299 14.4185C15.6219 15.0265 14.8232 15.3306 14.0245 15.3306C13.2258 15.3306 12.4272 15.0266 11.8192 14.4185C11.3903 13.9896 11.0982 13.4485 10.9746 12.8537C10.909 12.5384 11.1115 12.2295 11.427 12.1639C11.7422 12.0983 12.0512 12.3009 12.1168 12.6163C12.194 12.988 12.3764 13.326 12.6441 13.5936C13.4053 14.3548 14.6438 14.3547 15.405 13.5936L18.2564 10.7423C19.0176 9.98107 19.0176 8.74255 18.2564 7.98135C17.8896 7.6146 17.3994 7.41264 16.8759 7.41264C16.3524 7.41264 15.8622 7.6146 15.4955 7.98135L14.3722 9.10462C14.1444 9.3324 13.7751 9.3324 13.5473 9.10462C13.3195 8.8768 13.3195 8.50753 13.5473 8.2797L14.6706 7.15642C15.2576 6.56934 16.0409 6.246 16.8759 6.246C17.711 6.246 18.4941 6.56934 19.0813 7.15642C20.2973 8.37245 20.2973 10.3511 19.0813 11.5671Z" fill="#54C4FC"/>
</svg>
