<svg width="29" height="29" viewBox="0 0 29 29" fill="none" xmlns="http://www.w3.org/2000/svg">
<path fill-rule="evenodd" clip-rule="evenodd" d="M14.1266 0C21.9285 0 28.2532 6.42669 28.2532 14.3544C28.2532 22.2822 21.9285 28.7089 14.1266 28.7089C6.32468 28.7089 0 22.2822 0 14.3544C0 6.42669 6.32468 0 14.1266 0ZM23.0937 19.9191V9.25064L17.8438 14.5848L23.0937 19.9191ZM6.28103 20.1364H21.9725L17.1767 15.2633L15.3489 17.1203C15.2603 17.2101 15.1402 17.2605 15.0151 17.2605H13.2382C13.1762 17.2605 13.1148 17.2482 13.0575 17.2241C13.0002 17.2001 12.9482 17.1648 12.9043 17.1203L11.0766 15.2633L6.28081 20.1364H6.28103ZM5.15951 9.25031V19.9194L10.4094 14.5848L5.15951 9.25031ZM22.4263 8.57245H5.82722L13.4337 16.3016H14.8197L22.4263 8.57245Z" fill="#54C4FC"/>
</svg>
