<svg width="26" height="25" viewBox="0 0 26 25" fill="none" xmlns="http://www.w3.org/2000/svg">
<path d="M13.0116 24.8865C19.8855 24.8865 25.4549 19.3171 25.4549 12.4433C25.4549 5.56939 19.8855 0 13.0116 0C6.13775 0 0.568359 5.56939 0.568359 12.4433C0.568359 19.3171 6.13775 24.8865 13.0116 24.8865ZM6.26218 12.1736L18.2596 7.54787C18.8164 7.3467 19.3027 7.68371 19.1223 8.5257L19.1233 8.52466L17.0806 18.1485C16.9292 18.8308 16.5237 18.9967 15.9565 18.6752L12.8457 16.3826L11.3453 17.8281C11.1793 17.994 11.0394 18.134 10.7179 18.134L10.9388 14.9682L16.7041 9.75966C16.9551 9.53879 16.6481 9.41436 16.3174 9.63419L9.19257 14.12L6.12116 13.1618C5.45441 12.9503 5.43989 12.4951 6.26218 12.1736Z" fill="#54C4FC"/>
</svg>
