<svg width="16" height="15" viewBox="0 0 16 15" fill="none" xmlns="http://www.w3.org/2000/svg">
<path d="M13.6204 3.8337H3.94435C3.43539 3.8337 2.9574 3.59402 2.65422 3.1969C2.94901 2.80997 3.41798 2.55881 3.94435 2.55881H14.9105C16.1826 2.53714 16.1819 0.66752 14.9105 0.646484H3.94435C1.98851 0.646484 0.396484 2.21906 0.396484 4.15242V11.1643C0.396484 13.0977 1.98851 14.6702 3.94435 14.6702H13.6204C14.8653 14.6702 15.8781 13.6695 15.8781 12.4392V6.06475C15.8781 4.83449 14.8653 3.8337 13.6204 3.8337ZM13.9429 12.4392C13.9429 12.6151 13.7977 12.7579 13.6204 12.7579H3.94435C3.05481 12.7579 2.33169 12.0427 2.33169 11.1643V5.36102C2.82387 5.60962 3.3754 5.74603 3.94435 5.74603H13.6204C13.7977 5.74603 13.9429 5.88882 13.9429 6.06475V12.4392ZM12.6528 9.25197C12.6308 10.509 10.7388 10.5084 10.7176 9.25197C10.7395 7.99493 12.6315 7.99557 12.6528 9.25197Z" fill="white"/>
</svg>
