<svg width="41" height="40" viewBox="0 0 41 40" fill="none" xmlns="http://www.w3.org/2000/svg">
<path d="M40.1781 3.33015C40.0928 1.76706 38.8497 0.524069 37.2866 0.438759C34.1326 0.266448 27.9608 0.434071 22.0592 3.48655C19.0507 5.04272 15.8688 7.6811 13.3296 10.7252C13.2983 10.7627 13.2679 10.8004 13.2368 10.838L7.47418 11.2832C6.52563 11.3565 5.68075 11.8537 5.15614 12.6471L1.22466 18.5936C0.826776 19.1954 0.763524 19.9485 1.05535 20.6082C1.34724 21.2679 1.94703 21.7276 2.65986 21.8381L7.51492 22.59C7.49778 22.6844 7.48056 22.7787 7.46481 22.8731C7.30318 23.8399 7.62351 24.834 8.32182 25.5322L15.0845 32.295C15.6635 32.874 16.4458 33.1931 17.2474 33.1931C17.4125 33.1931 17.5785 33.1795 17.7437 33.1519C17.8381 33.1362 17.9324 33.119 18.0268 33.1018L18.7787 37.957C18.8892 38.6698 19.3489 39.2697 20.0085 39.5615C20.283 39.6829 20.5734 39.7429 20.8625 39.7429C21.2686 39.7428 21.6717 39.6246 22.0231 39.3922L27.9696 35.4607C28.7631 34.936 29.2602 34.0911 29.3334 33.1426L29.7786 27.3801C29.8161 27.349 29.854 27.3186 29.8915 27.2873C32.9356 24.7481 35.5741 21.5662 37.1302 18.5576C40.1828 12.6558 40.3501 6.48392 40.1781 3.33015ZM26.698 33.5373L21.0099 37.2981L20.277 32.5665C22.681 31.8596 25.0592 30.7275 27.3248 29.2109L27.0348 32.965C27.0167 33.1991 26.8939 33.4078 26.698 33.5373ZM16.7149 30.6647L9.95209 23.9019C9.77955 23.7293 9.69977 23.4868 9.73889 23.2532C9.93994 22.051 10.2524 20.9065 10.6391 19.8284L20.7862 29.9755C19.4913 30.4393 18.3315 30.716 17.3635 30.8779C17.1296 30.9167 16.8874 30.8372 16.7149 30.6647ZM7.6518 13.582L11.4057 13.292C9.88906 15.5577 8.75698 17.9358 8.05014 20.3399L3.31859 19.607L7.07945 13.9188C7.20903 13.7228 7.41769 13.6001 7.6518 13.582ZM28.4148 25.5166C26.5523 27.0701 24.7444 28.1937 23.078 29.0068L11.6096 17.5383C12.6746 15.363 13.9745 13.5516 15.1001 12.2021C17.45 9.385 20.3726 6.95474 23.1185 5.53445C28.5349 2.73283 34.2415 2.58196 37.1611 2.7409C37.5475 2.76195 37.8549 3.0693 37.8759 3.45581C38.0351 6.3754 37.8839 12.0819 35.0823 17.4983C33.6621 20.2442 31.2318 23.1668 28.4148 25.5166Z" fill="#FFB800"/>
</svg>
