<svg width="26" height="25" viewBox="0 0 26 25" fill="none" xmlns="http://www.w3.org/2000/svg">
<path d="M13.0136 24.8865C19.8874 24.8865 25.4568 19.3171 25.4568 12.4433C25.4568 5.56939 19.8874 0 13.0136 0C6.1397 0 0.570312 5.56939 0.570312 12.4433C0.570312 19.3171 6.1397 24.8865 13.0136 24.8865ZM6.26414 12.1736L18.2615 7.54787C18.8183 7.3467 19.3047 7.68371 19.1242 8.5257L19.1253 8.52466L17.0825 18.1485C16.9311 18.8308 16.5257 18.9967 15.9585 18.6752L12.8477 16.3826L11.3472 17.8281C11.1813 17.994 11.0413 18.134 10.7199 18.134L10.9407 14.9682L16.7061 9.75966C16.957 9.53879 16.6501 9.41436 16.3193 9.63419L9.19452 14.12L6.12311 13.1618C5.45636 12.9503 5.44185 12.4951 6.26414 12.1736Z" fill="#54C4FC"/>
</svg>
