<svg width="16" height="15" viewBox="0 0 16 15" fill="none" xmlns="http://www.w3.org/2000/svg">
<path d="M13.6204 3.73995H3.94435C3.43539 3.73995 2.9574 3.50027 2.65422 3.10315C2.94901 2.71622 3.41798 2.46506 3.94435 2.46506H14.9105C16.1826 2.44339 16.1819 0.57377 14.9105 0.552734H3.94435C1.98851 0.552734 0.396484 2.12531 0.396484 4.05867V11.0706C0.396484 13.0039 1.98851 14.5765 3.94435 14.5765H13.6204C14.8653 14.5765 15.8781 13.5757 15.8781 12.3454V5.971C15.8781 4.74074 14.8653 3.73995 13.6204 3.73995ZM13.9429 12.3454C13.9429 12.5214 13.7977 12.6642 13.6204 12.6642H3.94435C3.05481 12.6642 2.33169 11.9489 2.33169 11.0706V5.26727C2.82387 5.51587 3.3754 5.65228 3.94435 5.65228H13.6204C13.7977 5.65228 13.9429 5.79507 13.9429 5.971V12.3454ZM12.6528 9.15822C12.6308 10.4153 10.7388 10.4146 10.7176 9.15822C10.7395 7.90118 12.6315 7.90182 12.6528 9.15822Z" fill="white"/>
</svg>
