<svg width="16" height="15" viewBox="0 0 16 15" fill="none" xmlns="http://www.w3.org/2000/svg">
<path d="M13.6204 3.83565H3.94435C3.43539 3.83565 2.9574 3.59598 2.65422 3.19885C2.94901 2.81192 3.41798 2.56077 3.94435 2.56077H14.9105C16.1826 2.53909 16.1819 0.669473 14.9105 0.648438H3.94435C1.98851 0.648438 0.396484 2.22101 0.396484 4.15438V11.1663C0.396484 13.0996 1.98851 14.6722 3.94435 14.6722H13.6204C14.8653 14.6722 15.8781 13.6714 15.8781 12.4411V6.06671C15.8781 4.83644 14.8653 3.83565 13.6204 3.83565ZM13.9429 12.4411C13.9429 12.6171 13.7977 12.7599 13.6204 12.7599H3.94435C3.05481 12.7599 2.33169 12.0447 2.33169 11.1663V5.36297C2.82387 5.61157 3.3754 5.74799 3.94435 5.74799H13.6204C13.7977 5.74799 13.9429 5.89077 13.9429 6.06671V12.4411ZM12.6528 9.25392C12.6308 10.511 10.7388 10.5103 10.7176 9.25392C10.7395 7.99689 12.6315 7.99752 12.6528 9.25392Z" fill="white"/>
</svg>
